<?xml version="1.0" encoding="UTF-8" standalone="no"?>
<svg
   xmlns:dc="http://purl.org/dc/elements/1.1/"
   xmlns:cc="http://creativecommons.org/ns#"
   xmlns:rdf="http://www.w3.org/1999/02/22-rdf-syntax-ns#"
   xmlns:svg="http://www.w3.org/2000/svg"
   xmlns="http://www.w3.org/2000/svg"
   xmlns:sodipodi="http://sodipodi.sourceforge.net/DTD/sodipodi-0.dtd"
   xmlns:inkscape="http://www.inkscape.org/namespaces/inkscape"
   width="715.98425"
   height="1106.4125"
   viewBox="0 0 202.06665 312.25418"
   version="1.1"
   id="svg2"
   inkscape:version="0.48.5 r10040"
   sodipodi:docname="PocketEtchABot.svg">
  <metadata
     id="metadata162">
    <rdf:RDF>
      <cc:Work
         rdf:about="">
        <dc:format>image/svg+xml</dc:format>
        <dc:type
           rdf:resource="http://purl.org/dc/dcmitype/StillImage" />
      </cc:Work>
    </rdf:RDF>
  </metadata>
  <defs
     id="defs160" />
  <sodipodi:namedview
     pagecolor="#ffffff"
     bordercolor="#666666"
     borderopacity="1"
     objecttolerance="10"
     gridtolerance="10"
     guidetolerance="10"
     inkscape:pageopacity="0"
     inkscape:pageshadow="2"
     inkscape:window-width="1267"
     inkscape:window-height="832"
     id="namedview158"
     showgrid="false"
     fit-margin-top="0"
     fit-margin-left="0"
     fit-margin-right="0"
     fit-margin-bottom="0"
     showguides="true"
     inkscape:guide-bbox="true"
     inkscape:zoom="0.45504318"
     inkscape:cx="358.54909"
     inkscape:cy="402.72116"
     inkscape:window-x="0"
     inkscape:window-y="0"
     inkscape:window-maximized="0"
     inkscape:current-layer="svg2" />
  <desc
     id="desc4">Output from Flights of Ideas SVG Sketchup Plugin</desc>
  <path
     id="face0-cut"
     style="fill:none;stroke:#000000;stroke-width:0.02822222;stroke-linecap:round;stroke-linejoin:round;stroke-miterlimit:4;stroke-dasharray:none;stroke-opacity:1"
     d="m 144.76633,167.31102 1.58919,2.07107 2.07107,1.58918 2.41181,0.99901 2.58819,0.34074 2.58819,-0.34074 2.41181,-0.99901 2.07106,-1.58918 1.58919,-2.07107 0.999,-2.41181 0.34075,-2.58819 -0.34075,-2.58819 -0.999,-2.41181 -1.58919,-2.07107 -2.07106,-1.58918 -2.41181,-0.99901 -2.58819,-0.34074 -2.58819,0.34074 -2.41181,0.99901 -2.07107,1.58918 -1.58919,2.07107 -0.999,2.41181 -0.34074,2.58819 0.34074,2.58819 0.999,2.41181 m 3.9459,-5.8 0.15984,0.38589 0.0545,0.41411 -0.0545,0.41411 -0.15984,0.38589 -0.25427,0.33137 -0.33137,0.25427 -0.38589,0.15984 -0.41411,0.0545 -0.41411,-0.0545 -0.38589,-0.15984 -0.33137,-0.25427 -0.25427,-0.33137 -0.15984,-0.38589 -0.0545,-0.41411 0.0545,-0.41411 0.15984,-0.38589 0.25427,-0.33137 0.33137,-0.25427 0.38589,-0.15984 0.41411,-0.0545 0.41411,0.0545 0.38589,0.15984 0.33137,0.25427 0.25427,0.33137 m 11.22847,2.34548 -0.41411,0.0545 -0.41411,-0.0545 -0.38589,-0.15984 -0.33138,-0.25427 -0.25427,-0.33137 -0.15984,-0.38589 -0.0545,-0.41411 0.0545,-0.41411 0.15984,-0.38589 0.25427,-0.33137 0.33138,-0.25427 0.38589,-0.15984 0.41411,-0.0545 0.41411,0.0545 0.38589,0.15984 0.33137,0.25427 0.25427,0.33137 0.15984,0.38589 0.0545,0.41411 -0.0545,0.41411 -0.15984,0.38589 -0.25427,0.33137 -0.33137,0.25427 -0.38589,0.15984 m -5.26411,-3.71054 0.25,0.19183 0,3.94646 -0.25,0.19183 -0.60296,0.24975 -0.64704,0.0852 -0.64705,-0.0852 -0.60295,-0.24975 -0.25,-0.19183 0,-1.97323 0,-1.97323 0.25,-0.19183 0.60295,-0.24975 0.64705,-0.0852 0.64704,0.0852 0.60296,0.24975"
     inkscape:connector-curvature="0" />
  <path
     id="face1-cut"
     style="fill:none;stroke:#000000;stroke-width:0.02822222;stroke-linecap:round;stroke-linejoin:round;stroke-miterlimit:4;stroke-dasharray:none;stroke-opacity:1"
     d="m 144.62386,191.15545 1.58919,2.07107 2.07106,1.58918 2.41181,0.99901 2.58819,0.34074 2.58819,-0.34074 2.41182,-0.99901 2.07107,-1.58918 1.58919,-2.07107 0.999,-2.41181 0.34074,-2.58819 -0.34074,-2.58819 -0.999,-2.41181 -1.58919,-2.07107 -2.07107,-1.58919 -2.41182,-0.999 -2.58819,-0.34074 -2.58819,0.34074 -2.41181,0.999 -2.07106,1.58919 -1.58919,2.07107 -0.999,2.41181 -0.34075,2.58819 0.34075,2.58819 0.999,2.41181 m 3.94589,-5.8 0.15984,0.38589 0.0545,0.41411 -0.0545,0.41411 -0.15984,0.38589 -0.25427,0.33137 -0.33137,0.25427 -0.38589,0.15984 -0.41411,0.0545 -0.41411,-0.0545 -0.38589,-0.15984 -0.33137,-0.25427 -0.25427,-0.33137 -0.15984,-0.38589 -0.0545,-0.41411 0.0545,-0.41411 0.15984,-0.38589 0.25427,-0.33137 0.33137,-0.25427 0.38589,-0.15984 0.41411,-0.0545 0.41411,0.0545 0.38589,0.15984 0.33137,0.25427 0.25427,0.33137 m 11.22848,2.34548 -0.41411,0.0545 -0.41411,-0.0545 -0.38589,-0.15984 -0.33137,-0.25427 -0.25427,-0.33137 -0.15985,-0.38589 -0.0545,-0.41411 0.0545,-0.41411 0.15985,-0.38589 0.25427,-0.33137 0.33137,-0.25427 0.38589,-0.15984 0.41411,-0.0545 0.41411,0.0545 0.38589,0.15984 0.33137,0.25427 0.25427,0.33137 0.15984,0.38589 0.0545,0.41411 -0.0545,0.41411 -0.15984,0.38589 -0.25427,0.33137 -0.33137,0.25427 -0.38589,0.15984 m -5.26412,-3.71055 0.25,0.19183 0,3.94647 -0.25,0.19183 -0.60295,0.24975 -0.64705,0.0852 -0.64704,-0.0852 -0.60296,-0.24975 -0.25,-0.19183 0,-1.97323 0,-1.97324 0.25,-0.19183 0.60296,-0.24975 0.64704,-0.0852 0.64705,0.0852 0.60295,0.24975"
     inkscape:connector-curvature="0" />
  <path
     id="face3-cut"
     style="fill:none;stroke:#000000;stroke-width:0.02822222;stroke-linecap:round;stroke-linejoin:round;stroke-miterlimit:4;stroke-dasharray:none;stroke-opacity:1"
     d="m 137.57758,243.86802 0,64.7 9,0 0.0274,0.41768 0.0817,0.41054 0.13455,0.39637 0.18513,0.37541 0.23255,0.34804 0.27599,0.3147 0.3147,0.27599 0.34804,0.23255 0.37541,0.18513 0.39637,0.13455 0.41054,0.0817 0.41768,0.0273 3.6,0 0.41768,-0.0274 0.41054,-0.0817 0.39636,-0.13455 0.37543,-0.18513 0.34802,-0.23256 0.31471,-0.27598 0.27599,-0.3147 0.23255,-0.34805 0.18513,-0.37541 0.13455,-0.39637 0.0817,-0.41054 0.0274,-0.41762 7.8,0 0,-3.2 5.05001,0 0,3.2 7.8,0 0.0274,0.41768 0.0817,0.41055 0.13455,0.39637 0.18513,0.3754 0.23255,0.34805 0.27599,0.3147 0.31471,0.27599 0.34803,0.23255 0.37542,0.18513 0.39636,0.13455 0.41054,0.0817 0.41768,0.0274 3.6,0 0.41769,-0.0274 0.41053,-0.0817 0.39637,-0.13455 0.3754,-0.18513 0.34805,-0.23255 0.31471,-0.27599 0.27598,-0.3147 0.23254,-0.34805 0.18515,-0.3754 0.13454,-0.39637 0.0817,-0.41055 0.0274,-0.41768 3,0 0,-15 -0.0428,-0.65263 -0.1276,-0.64147 -0.21022,-0.61932 -0.28927,-0.58658 -0.36337,-0.54381 -0.43123,-0.49172 -0.49173,-0.43124 -0.54379,-0.36336 -0.58659,-0.28927 -0.61932,-0.21023 -0.64147,-0.12759 -0.65262,-0.0428 -1.65,0 -0.65263,-0.0428 -0.64147,-0.12759 -0.61932,-0.21023 -0.58658,-0.28927 -0.54381,-0.36336 -0.49173,-0.43124 -0.43124,-0.49172 -0.36336,-0.54381 -0.28926,-0.58658 -0.21024,-0.61932 -0.12759,-0.64147 -0.0428,-0.65263 0,-26.5 -0.0428,-0.65263 -0.12759,-0.64147 -0.21024,-0.61932 -0.28926,-0.58658 -0.36336,-0.54381 -0.43124,-0.49172 -0.49172,-0.43124 -0.54381,-0.36336 -0.58659,-0.28927 -0.61932,-0.21023 -0.64147,-0.12759 -0.65263,-0.0428 -10,0 0,-3.2 -0.0428,-0.65263 -0.12759,-0.64147 -0.21023,-0.61932 -0.28927,-0.58658 -0.36336,-0.54381 -0.43124,-0.49172 -0.49172,-0.43124 -0.54381,-0.36336 -0.58658,-0.28927 -0.61932,-0.21023 -0.64147,-0.12759 -0.65263,-0.0428 -21,0 m 30.2,35.68564 -0.33137,-0.25427 -0.25427,-0.33137 -0.15984,-0.38589 -0.0545,-0.41411 0.0545,-0.41411 0.15984,-0.38589 0.25427,-0.33137 0.33137,-0.25427 0.38589,-0.15984 0.41411,-0.0545 0.41411,0.0545 0.38589,0.15984 0.33137,0.25427 0.25427,0.33137 0.15984,0.38589 0.0545,0.41413 -0.0545,0.41411 -0.15984,0.38589 -0.25427,0.33137 -0.33137,0.25427 -0.38589,0.15984 -0.41411,0.0545 -0.41411,-0.0545 -0.38589,-0.15984 m 1.6,-14.97128 0.33137,0.25427 0.25427,0.33137 0.15984,0.38589 0.0545,0.41411 -0.0545,0.41411 -0.15984,0.38589 -0.25427,0.33137 -0.33137,0.25427 -0.38589,0.15984 -0.41411,0.0545 -0.41411,-0.0545 -0.38589,-0.15984 -0.33137,-0.25427 -0.25427,-0.33137 -0.15984,-0.38589 -0.0545,-0.41411 0.0545,-0.41411 0.15984,-0.38589 0.25427,-0.33137 0.33137,-0.25427 0.38589,-0.15984 0.41411,-0.0545 0.41411,0.0545 0.38589,0.15984 m -2.35563,5.93001 0.42426,-0.32555 0.0314,-0.0241 0.5306,-0.21978 0.5694,-0.0749 0.5694,0.075 0.5306,0.21978 0.45564,0.34963 0.34962,0.45563 0.21978,0.5306 0.075,0.56936 -0.075,0.5694 -0.21978,0.5306 -0.34962,0.45563 -0.45564,0.34963 -0.5306,0.21978 -0.5694,0.075 -0.5694,-0.075 -0.5306,-0.21978 -0.0314,-0.0241 -0.42426,-0.32555 -0.34962,-0.45563 -0.21978,-0.5306 -0.075,-0.5694 0.075,-0.5694 0.21978,-0.5306 0.34962,-0.45563 m 16.337,37.587 -0.33136,0.25427 -0.38589,0.15984 -0.41411,0.0545 -0.41411,-0.0545 -0.38589,-0.15984 -0.33137,-0.25427 -0.25427,-0.33137 -0.15984,-0.38589 -0.0545,-0.41411 0.0545,-0.41411 0.15984,-0.38589 0.25427,-0.33137 0.33137,-0.25427 0.38589,-0.15984 0.41411,-0.0545 0.41411,0.0545 0.38589,0.15984 0.33137,0.25427 0.25427,0.33137 0.15984,0.38589 0.0545,0.41411 -0.0545,0.41411 -0.15984,0.38589 -0.25427,0.33137 m -32.19548,-2.67685 0.41411,-0.0545 0.41411,0.0545 0.38589,0.15984 0.33137,0.25427 0.25427,0.33137 0.15984,0.38589 0.0545,0.41413 -0.0545,0.41411 -0.15984,0.38589 -0.25427,0.33137 -0.33137,0.25427 -0.38589,0.15984 -0.41411,0.0545 -0.41411,-0.0545 -0.38589,-0.15984 -0.33137,-0.25427 -0.25427,-0.33137 -0.15984,-0.38589 -0.0545,-0.41411 0.0545,-0.41411 0.15984,-0.38589 0.25427,-0.33137 0.33137,-0.25427 0.38589,-0.15984 m 5.79425,-3.95452 0,-6 3.2,0 0,6 -3.2,0 m 0,-10.5 0,-6 3.2,0 0,6 -3.2,0 m -5.38014,-42.1 0.41411,0.0545 0.38589,0.15984 0.33137,0.25427 0.25427,0.33137 0.15984,0.38589 0.0545,0.41413 -0.0545,0.41411 -0.15984,0.38589 -0.25427,0.33137 -0.33137,0.25427 -0.38589,0.15984 -0.41411,0.0545 -0.41411,-0.0545 -0.38589,-0.15984 -0.33137,-0.25427 -0.25427,-0.33137 -0.15984,-0.38589 -0.0545,-0.41411 0.0545,-0.41411 0.15984,-0.38589 0.25427,-0.33137 0.33137,-0.25427 0.38589,-0.15984 0.41411,-0.0545 m -10,0 5,0 0,3.2 -5,0 0,-3.2"
     inkscape:connector-curvature="0" />
  <path
     id="face4-cut"
     style="fill:none;stroke:#000000;stroke-width:0.02822222;stroke-linecap:round;stroke-linejoin:round;stroke-miterlimit:4;stroke-dasharray:none;stroke-opacity:1"
     d="m 23.136381,1.0745332 -10,0 -1.305262,0.0855 -1.282928,0.25519 -1.2386446,0.42046 -1.173166,0.5786 -1.0876139,0.72672 -0.983454,0.86246 -0.862465,0.98346 -0.726721,1.08761 -0.578541,1.17317 -0.420463,1.23864 -0.255191,1.28293 -0.085551,1.3052598 0,10.1 10.0000005,0 0,3 -10.0000005,0 0,146.999997 10.0000005,0 0,3 -10.0000005,0 0,10.1 0.08555,1.30526 0.255191,1.28293 0.420463,1.23864 0.578541,1.17317 0.726721,1.08761 0.862465,0.98346 0.983454,0.86246 1.0876139,0.72672 1.173166,0.57855 1.2386446,0.42046 1.282928,0.25519 1.305263,0.0856 10,0 0,-193.1999968"
     inkscape:connector-curvature="0" />
  <path
     id="face5-cut"
     style="fill:none;stroke:#000000;stroke-width:0.02822222;stroke-linecap:round;stroke-linejoin:round;stroke-miterlimit:4;stroke-dasharray:none;stroke-opacity:1"
     d="m 133.20835,188.32131 0,-35 3.2,0 0,-5 -3.2,0 0,-41.7 3.2,0 0,-5 -3.2,0 0,-34.999997 -4,0 0,-3.2 -6,0 0,3.2 -4.5,0 0,-3.2 -6,0 0,3.2 -4,0 0,121.699997 4,0 0,3.2 6,0 0,-3.2 4.5,0 0,3.2 6,0 0,-3.2 4,0"
     inkscape:connector-curvature="0" />
  <path
     id="face6-cut"
     style="fill:none;stroke:#000000;stroke-width:0.02822222;stroke-linecap:round;stroke-linejoin:round;stroke-miterlimit:4;stroke-opacity:1;stroke-dasharray:none"
     d="m 193.96855,73.986275 -1.17925,-0.34171 -2.48466,-0.32711 -2.31534,-0.95905 -1.98823,-1.52561 -1.52561,-1.98823 -0.95905,-2.31534 -0.32711,-2.48466 0.32711,-2.48466 0.95905,-2.31534 1.52561,-1.98822 1.98823,-1.52562 2.31534,-0.95905 2.48466,-0.32711 0.43141,0 0.78089,-0.19238 0.65263,-0.0428 0.1926,-0.0383 0.44886,-0.0893 0.61932,-0.21024 0.58659,-0.28927 0.5438,-0.36336 0.49173,-0.43123 0.43123,-0.49173 0.36336,-0.5438 0.28927,-0.58659 0.21023,-0.61932 0.1276,-0.64146 0.0428,-0.65263 0,-7.71023 -0.0428,-0.65263 -0.1276,-0.64146 -0.21023,-0.61932 -0.28927,-0.58659 -0.36336,-0.5438 -0.43123,-0.49173 -0.49173,-0.43123 -0.5438,-0.36336 -0.58659,-0.28928 -0.61932,-0.21023 -0.64146,-0.12759 -0.65263,-0.0428 -3,0 0,3.2 -10.5,0 0,5.2 1.6,0 0,2.8 -1.4,0 0,3 -3.2,0 0,-3 -1.4,0 0,-2.8 1.4,0 0,-5.2 -3.5,0 0,-3.2 -5,0 0,128.091395 5,0 0,-3.2 3.5,0 0,-5.2 -1.4,0 0,-2.8 1.4,0 0,-3 3.2,0 0,3 1.4,0 0,2.8 -1.4,0 0,5.2 10.3,0 0,3.2 3,0 0.65263,-0.0428 0.64146,-0.1276 0.61932,-0.21023 0.58659,-0.28927 0.5438,-0.36336 0.49173,-0.43124 0.43123,-0.49172 0.36336,-0.54381 0.28927,-0.58658 0.21023,-0.61932 0.1276,-0.64147 0.0428,-0.65263 0,-7.77157 -0.0428,-0.65263 -0.1276,-0.64147 -0.21023,-0.61932 -0.28927,-0.58658 -0.36336,-0.54381 -0.43123,-0.49172 -0.49173,-0.43124 -0.5438,-0.36336 -0.58659,-0.28927 -0.61932,-0.21023 -0.22979,-0.0457 -1.0643,-0.12466 -0.8122,-0.0951 -0.12385,-0.0145 -0.19835,-0.0789 -0.0779,-0.0377 -2.48466,-0.32711 -2.31534,-0.95905 -1.98823,-1.52562 -1.52561,-1.98822 -0.95905,-2.31534 -0.32711,-2.48466 0.32711,-2.48466 0.95905,-2.31534 1.52561,-1.98823 1.98823,-1.52562 2.31534,-0.95904 3.69696,-0.50438 1.29409,-0.17038 0.0767,-0.0301 0.54266,-0.18016 0.58659,-0.28927 0.5438,-0.36336 0.49173,-0.43123 0.43123,-0.49173 0.36336,-0.5438 0.28927,-0.58658 0.21023,-0.61932 0.1276,-0.64146 0.0428,-0.65263 0,-5.2 -0.0426,-0.65039 -0.12716,-0.63925 -0.20951,-0.61719 -0.28827,-0.58456 -0.36211,-0.54194 -0.42975,-0.49003 -0.49003,-0.42975 -0.54193,-0.36211 -0.58457,-0.28827 -0.61718,-0.20951 -0.63926,-0.12715 -0.65038,-0.0426 -0.65488,-0.0429 -0.64367,-0.12804 -0.62146,-0.21096 -0.5886,-0.29026 -0.54568,-0.36461 -0.49342,-0.43272 -0.43272,-0.49342 -0.36461,-0.54568 -0.29027,-0.58861 -0.21096,-0.62145 -0.12803,-0.64368 -0.0429,-0.65488 0.034,-5.22299 4.8e-4,-7.631249 0.0428,-0.65263 0.12759,-0.64146 0.21023,-0.61932 0.28928,-0.58659 0.36336,-0.5438 0.43123,-0.49173 0.49173,-0.43123 0.5438,-0.36336 0.58659,-0.28927 0.61932,-0.21024 0.64146,-0.12759 0.63541,-0.0428 0.65038,-0.0426 0.63926,-0.12716 0.61719,-0.2095 0.58456,-0.28828 0.54193,-0.36211 0.49004,-0.42974 0.42974,-0.49004 0.36211,-0.54193 0.28828,-0.58456 0.2095,-0.61719 0.12716,-0.63926 0.0426,-0.65038 0,-5.235176 -0.0428,-0.65225 -0.12752,-0.64109 -0.21011,-0.61897 -0.2891,-0.58624 -0.36315,-0.54349 -0.43098,-0.49144 -0.49144,-0.43099 -0.5435,-0.36315 -0.58624,-0.2891 -0.61896,-0.21011 -0.6411,-0.12752 -0.65225,-0.0483 -0.0359,0.003 m -4.00129,-26.03515 -0.4788,-0.0649 -0.44569,-0.18658 -0.38222,-0.29558 -0.29269,-0.38443 -0.18322,-0.44708 -0.0613,-0.47928 0.0649,-0.47879 0.18658,-0.4457 0.29558,-0.38222 0.38443,-0.29269 0.44708,-0.18322 0.47927,-0.0613 0.4788,0.0649 0.4457,0.18658 0.38221,0.29558 0.29269,0.38443 0.18322,0.44709 0.0613,0.47927 -0.0649,0.4788 -0.18658,0.44569 -0.29558,0.38222 -0.38443,0.29269 -0.44709,0.18322 -0.47927,0.0613 m -0.97083,35.262626 -0.38221,-0.29558 -0.29269,-0.38443 -0.18322,-0.44709 -0.0613,-0.47927 0.0649,-0.478796 0.18658,-0.44569 0.29558,-0.38222 0.38443,-0.29269 0.44709,-0.18322 0.47927,-0.0613 0.4788,0.0649 0.44569,0.18658 0.38222,0.29558 0.29269,0.38443 0.18322,0.44709 0.0613,0.479266 -0.0649,0.4788 -0.18658,0.44569 -0.29557,0.38222 -0.38444,0.29269 -0.44708,0.18322 -0.47927,0.0613 -0.4788,-0.0649 -0.4457,-0.18658 m 0.10214,37.948809 -0.37442,-0.28955 -0.28673,-0.37659 -0.17948,-0.43797 -0.06,-0.4695 0.0635,-0.46904 0.18278,-0.43661 0.28955,-0.37442 0.37659,-0.28673 0.43798,-0.17948 0.4695,-0.06 0.46903,0.0635 0.43661,0.18278 0.37442,0.28955 0.28673,0.37659 0.17948,0.43798 0.06,0.4695 -0.0635,0.46903 -0.18278,0.43661 -0.28955,0.37443 -0.37659,0.28672 -0.43797,0.17948 -0.4695,0.06 -0.46904,-0.0636 -0.43661,-0.18278 m -0.87617,33.40157 0.18658,-0.4457 0.29558,-0.38221 0.38443,-0.29269 0.44709,-0.18323 0.47927,-0.0613 0.4788,0.0649 0.44569,0.18658 0.38222,0.29558 0.29269,0.38443 0.18322,0.44709 0.0613,0.47927 -0.0649,0.4788 -0.18658,0.44569 -0.29557,0.38222 -0.38443,0.29269 -0.44709,0.18322 -0.47927,0.0613 -0.4788,-0.0649 -0.44569,-0.18658 -0.38222,-0.29558 -0.29269,-0.38443 -0.18322,-0.44708 -0.0613,-0.47928 0.0649,-0.47879"
     inkscape:connector-curvature="0" />
  <path
     id="face7-cut"
     style="fill:none;stroke:#000000;stroke-width:0.02822222;stroke-linecap:round;stroke-linejoin:round;stroke-miterlimit:4;stroke-dasharray:none;stroke-opacity:1"
     d="m 27.928577,0.50295323 10,0 1.305262,0.0855 1.282928,0.25519 1.238644,0.42045997 1.173166,0.57854 1.087614,0.72672 0.983453,0.86247 0.862466,0.98345 0.726721,1.08762 0.578541,1.17316 0.420463,1.23865 0.25519,1.28292 0.08555,1.3052698 0,10.1 -10,0 0,3 10,0 0,146.999997 -10,0 0,3 10,0 0,10.1 -0.08555,1.30526 -0.25519,1.28293 -0.420463,1.23864 -0.578541,1.17317 -0.726721,1.08761 -0.862466,0.98345 -0.983453,0.86247 -1.087614,0.72672 -1.173166,0.57854 -1.238644,0.42046 -1.282928,0.25519 -1.305262,0.0856 -10,0 0,-193.19999677"
     inkscape:connector-curvature="0" />
  <path
     id="face26-cut"
     style="fill:none;stroke:#000000;stroke-width:0.02822222;stroke-linecap:round;stroke-linejoin:round;stroke-miterlimit:4;stroke-dasharray:none;stroke-opacity:1"
     d="m 144.02326,142.67925 1.58919,2.07106 2.07107,1.58919 2.41181,0.999 2.58819,0.34075 2.58819,-0.34075 2.41181,-0.999 2.07106,-1.58919 1.58919,-2.07106 0.99901,-2.41181 0.34074,-2.58819 -0.34074,-2.58819 -0.99901,-2.41181 -1.58919,-2.07107 -2.07106,-1.58919 -2.41181,-0.999 -2.58819,-0.34074 -2.58819,0.34074 -2.41181,0.999 -2.07107,1.58919 -1.58919,2.07107 -0.999,2.41181 -0.34074,2.58819 0.34074,2.58819 0.999,2.41181 m 8.66026,-7.2 0.5694,0.075 0.5306,0.21978 0.45563,0.34962 0.34962,0.45564 0.21978,0.53059 0.075,0.56941 -0.075,0.5694 -0.21978,0.5306 -0.34962,0.45563 -0.45563,0.34962 -0.5306,0.21978 -0.5694,0.075 -0.5694,-0.075 -0.5306,-0.21978 -0.45564,-0.34962 -0.34962,-0.45563 -0.21978,-0.5306 -0.075,-0.5694 0.075,-0.56941 0.21978,-0.53059 0.34962,-0.45564 0.45564,-0.34962 0.5306,-0.21978 0.5694,-0.075 m -4.71436,1.4 0.15984,0.38589 0.0545,0.41411 -0.0545,0.41411 -0.15984,0.38589 -0.25427,0.33137 -0.33137,0.25427 -0.38589,0.15984 -0.41411,0.0545 -0.41411,-0.0545 -0.38589,-0.15984 -0.33137,-0.25427 -0.25427,-0.33137 -0.15984,-0.38589 -0.0545,-0.41411 0.0545,-0.41411 0.15984,-0.38589 0.25427,-0.33137 0.33137,-0.25427 0.38589,-0.15984 0.41411,-0.0545 0.41411,0.0545 0.38589,0.15984 0.33137,0.25427 0.25427,0.33137 m 11.22847,2.34548 -0.41411,0.0545 -0.41411,-0.0545 -0.38589,-0.15984 -0.33137,-0.25427 -0.25427,-0.33137 -0.15984,-0.38589 -0.0545,-0.41411 0.0545,-0.41411 0.15984,-0.38589 0.25427,-0.33137 0.33137,-0.25427 0.38589,-0.15984 0.41411,-0.0545 0.41411,0.0545 0.38589,0.15984 0.33137,0.25427 0.25427,0.33137 0.15984,0.38589 0.0545,0.41411 -0.0545,0.41411 -0.15984,0.38589 -0.25427,0.33137 -0.33137,0.25427 -0.38589,0.15984"
     inkscape:connector-curvature="0" />
  <path
     id="face33-cut"
     style="fill:none;stroke:#000000;stroke-width:0.02822222;stroke-linecap:round;stroke-linejoin:round;stroke-miterlimit:4;stroke-dasharray:none;stroke-opacity:1"
     d="m 172.49535,11.121129 0,10 3,0 0,-10 20.1,0 0,10 -0.0856,1.30527 -0.25519,1.28293 -0.42046,1.23864 -0.57854,1.17316 -0.72672,1.08762 -0.86247,0.98345 -0.98345,0.86247 -1.08761,0.72672 -1.17317,0.57854 -1.23864,0.42046 -1.28293,0.25519 -1.30526,0.0856 -20,0 0,62.200002 -0.0513,0.78315 -0.15312,0.76976 -0.25228,0.74319 -0.34712,0.70389 -0.43603,0.65257 -0.51748,0.59007 -0.59008,0.51748 -0.65256,0.43603 -0.7039,0.34713 -0.74319,0.25228 -0.76976,0.15311 -0.78315,0.0513 -8,0 -0.78316,-0.0513 -0.76976,-0.15311 -0.74318,-0.25228 -0.7039,-0.34713 -0.65257,-0.43603 -0.59007,-0.51748 -0.51748,-0.59007 -0.43604,-0.65257 -0.34712,-0.70389 -0.25228,-0.74319 -0.15311,-0.76976 -0.0513,-0.78315 0,-62.200002 -20,0 -1.30527,-0.0856 -1.28292,-0.25519 -1.23865,-0.42046 -1.17316,-0.57854 -1.08762,-0.72672 -0.98345,-0.86247 -0.86247,-0.98345 -0.72672,-1.08762 -0.57854,-1.17316 -0.42046,-1.23864 -0.25519,-1.28293 -0.0856,-1.30527 0,-10 20.1,0 0,10 3,0 0,-10 33.8,0 m -18.83186,78.682362 -0.0681,0.51764 0.0681,0.51763 0.19981,0.48237 0.31783,0.41421 0.41422,0.31784 0.48236,0.1998 0.51764,0.0681 0.51763,-0.0681 0.48237,-0.1998 0.41421,-0.31784 0.31784,-0.41421 0.1998,-0.48237 0.0681,-0.51763 -0.0681,-0.51764 -0.1998,-0.48236 -0.31784,-0.41422 -0.41421,-0.31783 -0.48237,-0.1998 -0.51763,-0.0682 -0.51764,0.0682 -0.48236,0.1998 -0.41422,0.31783 -0.31783,0.41422 -0.19981,0.48236"
     inkscape:connector-curvature="0" />
  <path
     id="face34-cut"
     style="fill:none;stroke:#000000;stroke-width:0.02822222;stroke-linecap:round;stroke-linejoin:round;stroke-miterlimit:4;stroke-dasharray:none;stroke-opacity:1"
     d="m 188.83379,240.80435 0,-3 10,0 0,-33.8 -10,0 0,-3 10,0 0,-20.1 -10,0 -1.30526,0.0856 -1.28293,0.25519 -1.23865,0.42046 -1.17316,0.57854 -1.08762,0.72673 -0.98345,0.86246 -0.86247,0.98345 -0.72672,1.08762 -0.57854,1.17316 -0.42046,1.23865 -0.25519,1.28293 -0.0856,1.30526 0,20 -43.20001,0 0,-11 -0.0428,-0.65263 -0.12759,-0.64147 -0.21023,-0.61932 -0.28927,-0.58658 -0.36336,-0.54381 -0.43124,-0.49173 -0.49172,-0.43123 -0.54381,-0.36336 -0.58658,-0.28927 -0.61933,-0.21023 -0.64146,-0.1276 -0.65263,-0.0428 -5,0 -0.65263,0.0428 -0.64147,0.1276 -0.61932,0.21023 -0.58658,0.28927 -0.54381,0.36336 -0.49172,0.43123 -0.43124,0.49173 -0.36336,0.54381 -0.28927,0.58658 -0.21023,0.61932 -0.1276,0.64147 -0.0428,0.65263 0,9.38399 0.18917,0.0249 2.89417,1.1988 2.48528,1.90703 1.90702,2.48528 1.19881,2.89417 0.40889,3.10583 -0.40889,3.10583 -1.19881,2.89417 -1.90702,2.48528 -2.48528,1.90702 -2.89417,1.19881 -0.18917,0.0249 0,9.38399 0.21615,0.80369 0.31903,0.76868 0.41646,0.72056 0.5068,0.66015 0.58849,0.58849 0.66015,0.50679 0.72055,0.41646 0.76868,0.31903 0.80369,0.21615 5,0 0.65264,-0.0428 0.64146,-0.12759 0.61932,-0.21023 0.58658,-0.28927 0.54381,-0.36336 0.49173,-0.43124 0.43123,-0.49172 0.36336,-0.54381 0.28927,-0.58658 0.21023,-0.61933 0.1276,-0.64146 0.0428,-0.65263 0,-11 43.2,0 0,20 0.0856,1.30526 0.25519,1.28293 0.42047,1.23864 0.57854,1.17317 0.72672,1.08761 0.86246,0.98346 0.98346,0.86246 1.08761,0.72672 1.17317,0.57854 1.23864,0.42047 1.28293,0.25519 1.30526,0.0855 10,0 0,-20.1 -10,0 m -62.8335,-37.91764 0.1998,-0.48236 0.31784,-0.41421 0.41421,-0.31784 0.48237,-0.1998 0.51763,-0.0682 0.51764,0.0682 0.48236,0.1998 0.41422,0.31784 0.31783,0.41421 0.19981,0.48236 0.0682,0.51764 -0.0682,0.51764 -0.19981,0.48236 -0.31783,0.41421 -0.41422,0.31784 -0.48236,0.1998 -0.51764,0.0681 -0.51763,-0.0681 -0.48237,-0.1998 -0.41421,-0.31784 -0.31784,-0.41421 -0.1998,-0.48236 -0.0682,-0.51764 0.0682,-0.51764 m 0.71928,36.93185 -0.31783,-0.41421 -0.1998,-0.48236 -0.0682,-0.51764 0.0682,-0.51764 0.1998,-0.48236 0.31783,-0.41421 0.41422,-0.31784 0.48236,-0.1998 0.51764,-0.0682 0.51764,0.0682 0.48236,0.1998 0.41421,0.31784 0.31784,0.41421 0.1998,0.48236 0.0682,0.51764 -0.0682,0.51764 -0.1998,0.48236 -0.31784,0.41421 -0.41421,0.31784 -0.48236,0.1998 -0.51764,0.0681 -0.51764,-0.0681 -0.48236,-0.1998 -0.41422,-0.31784"
     inkscape:connector-curvature="0" />
  <path
     id="face35-cut"
     style="fill:none;stroke:#000000;stroke-width:0.02822222;stroke-linecap:round;stroke-linejoin:round;stroke-miterlimit:4;stroke-dasharray:none;stroke-opacity:1"
     d="m 0.50069149,203.14271 0,102 0.03422,0.52211 0.102076,0.51317 0.168185,0.49546 0.23141601,0.46926 0.290689,0.43505 0.344986,0.39338 0.393381,0.34499 0.435046,0.29069 0.469266,0.23141 0.495458,0.16819 0.513171,0.10207 0.522105,0.0342 108.5000095,0 0.52211,-0.0342 0.51317,-0.10207 0.49545,-0.16819 0.46927,-0.23141 0.43505,-0.29069 0.39338,-0.34499 0.34498,-0.39338 0.29069,-0.43505 0.23142,-0.46926 0.16818,-0.49546 0.10208,-0.51317 0.0342,-0.52211 0,-102 -0.0342,-0.5221 -0.10208,-0.51317 -0.16818,-0.49546 -0.23142,-0.46927 -0.29069,-0.43504 -0.34498,-0.39338 -0.39338,-0.34499 -0.43505,-0.29069 -0.46927,-0.23141 -0.49545,-0.16819 -0.51317,-0.10208 -0.52211,-0.0342 -108.5000095,0 -0.522105,0.0342 -0.513171,0.10208 -0.495458,0.16819 -0.469266,0.23141 -0.435046,0.29069 -0.393381,0.34499 -0.344986,0.39338 -0.290689,0.43504 -0.23141601,0.46927 -0.168185,0.49546 -0.102076,0.51317 -0.03422,0.5221 m 84.18750151,69.59271 0.391919,-0.16234 0.420581,-0.0554 0.420578,0.0554 0.39192,0.16234 0.33655,0.25824 0.25824,0.33655 0.16234,0.39192 0.0554,0.42058 -0.0554,0.42058 -0.16234,0.39192 -0.25824,0.33655 -0.33655,0.25824 -0.39192,0.16234 -0.420578,0.0554 -0.420581,-0.0554 -0.391919,-0.16234 -0.336548,-0.25824 -0.258243,-0.33655 -0.162338,-0.39192 -0.05537,-0.42058 0.05537,-0.42058 0.162338,-0.39192 0.258243,-0.33655 0.336548,-0.25824 m 26.500007,0 0.39192,-0.16234 0.42058,-0.0554 0.42058,0.0554 0.39192,0.16234 0.33655,0.25824 0.25824,0.33655 0.16234,0.39192 0.0554,0.42058 -0.0554,0.42058 -0.16234,0.39192 -0.25824,0.33655 -0.33655,0.25824 -0.39192,0.16234 -0.42058,0.0554 -0.42058,-0.0554 -0.39192,-0.16234 -0.33655,-0.25824 -0.25824,-0.33655 -0.16234,-0.39192 -0.0554,-0.42058 0.0554,-0.42058 0.16234,-0.39192 0.25824,-0.33655 0.33655,-0.25824 m 0,29.5 0.39192,-0.16234 0.42058,-0.0554 0.42058,0.0554 0.39192,0.16234 0.33655,0.25824 0.25824,0.33655 0.16234,0.39192 0.0554,0.42058 -0.0554,0.42058 -0.16234,0.39192 -0.25824,0.33655 -0.33655,0.25824 -0.39192,0.16234 -0.42058,0.0554 -0.42058,-0.0554 -0.39192,-0.16234 -0.33655,-0.25824 -0.25824,-0.33655 -0.16234,-0.39192 -0.0554,-0.42058 0.0554,-0.42058 0.16234,-0.39192 0.25824,-0.33655 0.33655,-0.25824 m -26.500007,0 0.391919,-0.16234 0.420581,-0.0554 0.420578,0.0554 0.39192,0.16234 0.33655,0.25824 0.25824,0.33655 0.16234,0.39192 0.0554,0.42058 -0.0554,0.42058 -0.16234,0.39192 -0.25824,0.33655 -0.33655,0.25824 -0.39192,0.16234 -0.420578,0.0554 -0.420581,-0.0554 -0.391919,-0.16234 -0.336548,-0.25824 -0.258243,-0.33655 -0.162338,-0.39192 -0.05537,-0.42058 0.05537,-0.42058 0.162338,-0.39192 0.258243,-0.33655 0.336548,-0.25824 m -13.5,-29.5 0.391919,-0.16234 0.420581,-0.0554 0.420581,0.0554 0.391919,0.16234 0.336549,0.25824 0.258242,0.33655 0.162339,0.39192 0.05537,0.42058 -0.05537,0.42058 -0.162339,0.39192 -0.258242,0.33655 -0.336549,0.25824 -0.391919,0.16234 -0.420581,0.0554 -0.420581,-0.0554 -0.391919,-0.16234 -0.336548,-0.25824 -0.258243,-0.33655 -0.162338,-0.39192 -0.05537,-0.42058 0.05537,-0.42058 0.162338,-0.39192 0.258243,-0.33655 0.336548,-0.25824 m -26.5,0 0.391919,-0.16234 0.420581,-0.0554 0.420581,0.0554 0.391919,0.16234 0.336549,0.25824 0.258242,0.33655 0.162339,0.39192 0.05537,0.42058 -0.05537,0.42058 -0.162339,0.39192 -0.258242,0.33655 -0.336549,0.25824 -0.391919,0.16234 -0.420581,0.0554 -0.420581,-0.0554 -0.391919,-0.16234 -0.336548,-0.25824 -0.258243,-0.33655 -0.162338,-0.39192 -0.05537,-0.42058 0.05537,-0.42058 0.162338,-0.39192 0.258243,-0.33655 0.336548,-0.25824 m 0,29.5 0.391919,-0.16234 0.420581,-0.0554 0.420581,0.0554 0.391919,0.16234 0.336549,0.25824 0.258242,0.33655 0.162339,0.39192 0.05537,0.42058 -0.05537,0.42058 -0.162339,0.39192 -0.258242,0.33655 -0.336549,0.25824 -0.391919,0.16234 -0.420581,0.0554 -0.420581,-0.0554 -0.391919,-0.16234 -0.336548,-0.25824 -0.258243,-0.33655 -0.162338,-0.39192 -0.05537,-0.42058 0.05537,-0.42058 0.162338,-0.39192 0.258243,-0.33655 0.336548,-0.25824 m 26.5,0 0.391919,-0.16234 0.420581,-0.0554 0.420581,0.0554 0.391919,0.16234 0.336549,0.25824 0.258242,0.33655 0.162339,0.39192 0.05537,0.42058 -0.05537,0.42058 -0.162339,0.39192 -0.258242,0.33655 -0.336549,0.25824 -0.391919,0.16234 -0.420581,0.0554 -0.420581,-0.0554 -0.391919,-0.16234 -0.336548,-0.25824 -0.258243,-0.33655 -0.162338,-0.39192 -0.05537,-0.42058 0.05537,-0.42058 0.162338,-0.39192 0.258243,-0.33655 0.336548,-0.25824 m -66.5000015,0 0.391919,-0.16234 0.4205817,-0.0554 0.420581,0.0554 0.391919,0.16234 0.336549,0.25824 0.258242,0.33655 0.162339,0.39192 0.05537,0.42058 -0.05537,0.42058 -0.162339,0.39192 -0.258242,0.33655 -0.336549,0.25824 -0.391919,0.16234 -0.420581,0.0554 -0.4205817,-0.0554 -0.391919,-0.16234 -0.336548,-0.25824 -0.258243,-0.33655 -0.162338,-0.39192 -0.05537,-0.42058 0.05537,-0.42058 0.162338,-0.39192 0.258243,-0.33655 0.336548,-0.25824 m 0,-29.5 0.391919,-0.16234 0.4205817,-0.0554 0.420581,0.0554 0.391919,0.16234 0.336549,0.25824 0.258242,0.33655 0.162339,0.39192 0.05537,0.42058 -0.05537,0.42058 -0.162339,0.39192 -0.258242,0.33655 -0.336549,0.25824 -0.391919,0.16234 -0.420581,0.0554 -0.4205817,-0.0554 -0.391919,-0.16234 -0.336548,-0.25824 -0.258243,-0.33655 -0.162338,-0.39192 -0.05537,-0.42058 0.05537,-0.42058 0.162338,-0.39192 0.258243,-0.33655 0.336548,-0.25824 m 25.9052105,31.71979 -0.162338,-0.39192 -0.05537,-0.42058 0.05537,-0.42058 0.162338,-0.39192 0.258243,-0.33655 0.336548,-0.25824 0.391919,-0.16234 0.420581,-0.0554 0.420581,0.0554 0.391919,0.16234 0.336549,0.25824 0.258242,0.33655 0.162339,0.39192 0.05537,0.42058 -0.05537,0.42058 -0.162339,0.39192 -0.258242,0.33655 -0.336549,0.25824 -0.391919,0.16234 -0.420581,0.0554 -0.420581,-0.0554 -0.391919,-0.16234 -0.336548,-0.25824 -0.258243,-0.33655 m 1.827872,-31.88213 0.391919,0.16234 0.336549,0.25824 0.258242,0.33655 0.162339,0.39192 0.05537,0.42058 -0.05537,0.42058 -0.162339,0.39192 -0.258242,0.33655 -0.336549,0.25824 -0.391919,0.16234 -0.420581,0.0554 -0.420581,-0.0554 -0.391919,-0.16234 -0.336548,-0.25824 -0.258243,-0.33655 -0.162338,-0.39192 -0.05537,-0.42058 0.05537,-0.42058 0.162338,-0.39192 0.258243,-0.33655 0.336548,-0.25824 0.391919,-0.16234 0.420581,-0.0554 0.420581,0.0554 m 65.707394,-15.71003 -0.23838,0.31066 -0.310662,0.23838 -0.36177,0.14985 -0.38823,0.0511 -0.38823,-0.0511 -0.36177,-0.14985 -0.31066,-0.23838 -0.23838,-0.31066 -0.14985,-0.36177 -0.0511,-0.38823 0.0511,-0.38823 0.14985,-0.36177 0.23838,-0.31066 0.31066,-0.23838 0.36177,-0.14985 0.38823,-0.0511 0.38823,0.0511 0.36177,0.14985 0.310662,0.23838 0.23838,0.31066 0.14985,0.36177 0.0511,0.38823 -0.0511,0.38823 -0.14985,0.36177 m -52.669043,-17.6 0.388229,0.0511 0.361771,0.14985 0.31066,0.23838 0.238378,0.31066 0.149851,0.36177 0.05111,0.38823 -0.05111,0.38823 -0.149851,0.36177 -0.238378,0.31066 -0.31066,0.23838 -0.361771,0.14985 -0.388229,0.0511 -0.388228,-0.0511 -0.361772,-0.14985 -0.31066,-0.23838 -0.238378,-0.31066 -0.149851,-0.36177 -0.05111,-0.38823 0.05111,-0.38823 0.149851,-0.36177 0.238378,-0.31066 0.31066,-0.23838 0.361772,-0.14985 0.388228,-0.0511 m -1.448889,-26.23177 -0.05111,-0.38823 0.05111,-0.38823 0.149851,-0.36177 0.238378,-0.31066 0.31066,-0.23838 0.361772,-0.14985 0.388228,-0.0511 0.388229,0.0511 0.361771,0.14985 0.31066,0.23838 0.238378,0.31066 0.149851,0.36177 0.05111,0.38823 -0.05111,0.38823 -0.149851,0.36177 -0.238378,0.31066 -0.31066,0.23838 -0.361771,0.14985 -0.388229,0.0511 -0.388228,-0.0511 -0.361772,-0.14985 -0.31066,-0.23838 -0.238378,-0.31066 -0.149851,-0.36177 m 52.71985,-6.28823 0.23838,-0.31066 0.31066,-0.23838 0.36177,-0.14985 0.388232,-0.0511 0.38823,0.0511 0.36177,0.14985 0.31066,0.23838 0.23838,0.31066 0.14985,0.36177 0.0511,0.38823 -0.0511,0.38823 -0.14985,0.36177 -0.23838,0.31066 -0.31066,0.23838 -0.36177,0.14985 -0.38823,0.0511 -0.388232,-0.0511 -0.36177,-0.14985 -0.31066,-0.23838 -0.23838,-0.31066 -0.14985,-0.36177 -0.0511,-0.38823 0.0511,-0.38823 0.14985,-0.36177"
     inkscape:connector-curvature="0" />
  <path
     id="face36-cut"
     style="fill:none;stroke:#000000;stroke-width:0.02822222;stroke-linecap:round;stroke-linejoin:round;stroke-miterlimit:4;stroke-dasharray:none;stroke-opacity:1"
     d="m 54.330698,59.069182 64.699992,0 0,-21.000011 -0.0428,-0.65263 -0.12759,-0.64146 -0.21024,-0.61932 -0.28927,-0.58659 -0.36336,-0.5438 -0.43123,-0.49173 -0.49173,-0.43123 -0.5438,-0.36336 -0.58659,-0.28927 -0.61932,-0.21024 -0.64146,-0.12759 -0.65263,-0.0428 -3.2,0 0,-10 -0.0428,-0.65263 -0.12759,-0.64147 -0.21024,-0.61932 -0.28927,-0.58658 -0.36336,-0.54381 -0.43123,-0.49172 -0.49173,-0.43124 -0.5438,-0.36336 -0.58659,-0.28927 -0.61932,-0.21023 -0.64146,-0.12759 -0.65263,-0.0428 -26.500002,0 -0.652639,-0.0428 -0.641461,-0.1276 -0.61932,-0.21023 -0.58658,-0.28927 -0.54381,-0.36336 -0.49173,-0.43124 -0.43123,-0.49172 -0.36336,-0.54381 -0.28927,-0.58658 -0.21023,-0.61932 -0.1276,-0.64147 -0.0428,-0.65263 0,-1.65 -0.0428,-0.65263 -0.12759,-0.64146 -0.21024,-0.6193298 -0.289269,-0.58658 -0.36336,-0.54381 -0.43123,-0.49172 -0.491731,-0.43124 -0.543799,-0.36336 -0.58659,-0.28927 -0.61932,-0.21023 -0.64146,-0.1276 -0.65263,-0.0428 -15,0 0,3 -0.41769,0.0274 -0.41053,0.0817 -0.39637,0.13455 -0.37541,0.18514 -0.34804,0.2325498 -0.3147,0.27599 -0.27599,0.3147 -0.23255,0.34804 -0.18514,0.37541 -0.13455,0.39637 -0.0817,0.41054 -0.0274,0.41768 0,3.6 0.0274,0.41768 0.0817,0.41054 0.13455,0.39637 0.18514,0.37541 0.23255,0.34804 0.27599,0.3147 0.3147,0.27599 0.34804,0.23255 0.37541,0.18513 0.39637,0.13455 0.41053,0.0817 0.41769,0.0274 0,7.8 3.2,0 0,5.05 -3.2,0 0,7.8 -0.41769,0.0274 -0.41053,0.0817 -0.39637,0.13455 -0.37541,0.18513 -0.34804,0.23255 -0.3147,0.27599 -0.27599,0.31471 -0.23255,0.34803 -0.18514,0.37542 -0.13455,0.39636 -0.0817,0.41054 -0.0274,0.41768 0,3.600001 0.0274,0.41769 0.0817,0.41054 0.13455,0.39636 0.18514,0.37542 0.23255,0.34803 0.27599,0.31471 0.3147,0.27599 0.34804,0.23255 0.37541,0.18513 0.39637,0.13455 0.41053,0.0817 0.41769,0.0274 0,9 m 29.26863,-29.868631 -0.25427,-0.33137 -0.15984,-0.38589 -0.0545,-0.41411 0.0545,-0.41411 0.15984,-0.38589 0.25427,-0.33137 0.33137,-0.25427 0.38589,-0.15984 0.41411,-0.0545 0.41411,0.0545 0.38589,0.15984 0.33137,0.25427 0.25427,0.33137 0.15984,0.38589 0.0545,0.41411 -0.0545,0.41411 -0.15984,0.38589 -0.25427,0.33137 -0.33137,0.25427 -0.38589,0.15984 -0.41411,0.0545 -0.41411,-0.0545 -0.38589,-0.15984 -0.33137,-0.25427 m 14.462739,-2.26274 0.25427,0.33137 0.15984,0.38589 0.0545,0.41411 -0.0545,0.41411 -0.15984,0.38589 -0.25427,0.33137 -0.33137,0.25427 -0.38589,0.15984 -0.41411,0.0545 -0.414111,-0.0545 -0.385891,-0.15984 -0.331369,-0.25427 -0.25427,-0.33137 -0.15984,-0.38589 -0.0545,-0.41411 0.0545,-0.41411 0.15984,-0.38589 0.25427,-0.33137 0.331369,-0.25427 0.385891,-0.15984 0.414111,-0.0545 0.41411,0.0545 0.38589,0.15984 0.33137,0.25427 m -5.350191,2.26274 -0.32555,0.42426 -0.45563,0.34962 -0.5306,0.21978 -0.5694,0.075 -0.56941,-0.075 -0.53059,-0.21978 -0.45564,-0.34962 -0.32555,-0.42426 -0.0241,-0.0314 -0.21978,-0.5306 -0.075,-0.5694 0.075,-0.5694 0.21978,-0.5306 0.34962,-0.45564 0.45564,-0.34962 0.5306,-0.21978 0.5694,-0.075 0.5694,0.075 0.5306,0.21978 0.45563,0.34962 0.34962,0.45564 0.21979,0.5306 0.075,0.5694 -0.075,0.5694 -0.21979,0.5306 -0.0241,0.0314 m -38.166818,-15.58137 0.25427,-0.33137 0.33137,-0.25427 0.38589,-0.15984 0.41411,-0.0545 0.41411,0.0545 0.38589,0.15984 0.33137,0.25427 0.25427,0.33137 0.15984,0.38589 0.0545,0.41411 -0.0545,0.41411 -0.15984,0.38589 -0.25427,0.33137 -0.33137,0.25427 -0.38589,0.15984 -0.41411,0.0545 -0.41411,-0.0545 -0.38589,-0.15984 -0.33137,-0.25427 -0.25427,-0.33137 -0.15984,-0.38589 -0.0545,-0.41411 0.0545,-0.41411 0.15984,-0.38589 m 2.98564,31.450001 -0.0545,0.41411 -0.15984,0.38589 -0.25427,0.33137 -0.33137,0.25427 -0.38589,0.15984 -0.41411,0.0545 -0.41411,-0.0545 -0.38589,-0.15984 -0.33137,-0.25427 -0.25427,-0.33137 -0.15984,-0.38589 -0.0545,-0.41411 0.0545,-0.41411 0.15984,-0.385891 0.25427,-0.33137 0.33137,-0.25427 0.38589,-0.15984 0.41411,-0.0545 0.41411,0.0545 0.38589,0.15984 0.33137,0.25427 0.25427,0.33137 0.15984,0.385891 0.0545,0.41411 m 9.9,-5.380151 -6,0 0,-3.2 6,0 0,3.2 m 10.5,0 -6,0 0,-3.2 6,0 0,3.2 m 36.045481,4.966041 0.0545,0.41411 -0.0545,0.41411 -0.15984,0.38589 -0.25427,0.33137 -0.33137,0.25427 -0.38589,0.15984 -0.41411,0.0545 -0.41411,-0.0545 -0.38589,-0.15984 -0.33137,-0.25427 -0.25427,-0.33137 -0.15984,-0.38589 -0.0545,-0.41411 0.0545,-0.41411 0.15984,-0.385891 0.25427,-0.33137 0.33137,-0.25427 0.38589,-0.15984 0.41411,-0.0545 0.41411,0.0545 0.38589,0.15984 0.33137,0.25427 0.25427,0.33137 0.15984,0.385891 m 0.0545,5.41411 0,5 -3.2,0 0,-5 3.2,0"
     inkscape:connector-curvature="0" />
  <path
     id="face37-cut"
     style="fill:none;stroke:#000000;stroke-width:0.02822222;stroke-linecap:round;stroke-linejoin:round;stroke-miterlimit:4;stroke-dasharray:none;stroke-opacity:1"
     d="m 101.06915,188.618 0,-121.699997 -6.468316,0 -7.6e-4,5.19522 1.4,10e-6 0,2.79971 -1.40041,0 0,2.99979 -3.20044,-5.3e-4 4.4e-4,-2.99925 -1.4,-1e-5 4.1e-4,-2.80046 1.4,2.3e-4 8.3e-4,-5.19468 -11.13176,-3e-5 0,-3.2 -4.96824,0 0,3.2 -11.13183,-3e-5 -7.7e-4,5.19522 1.4,1e-5 0,2.79971 -1.40041,-1e-5 0,2.9998 -3.20044,-5.4e-4 4.4e-4,-2.99924 -1.4,-2e-5 4.1e-4,-2.80045 1.4,2.2e-4 8.4e-4,-5.19467 -8.5,0 0,121.699997 8.5,0 -8.4e-4,-5.19468 -1.4,2.3e-4 -4.1e-4,-2.80046 1.4,-2e-5 -4.4e-4,-2.99924 3.20044,-5.3e-4 0,2.99979 1.40041,0 0,2.7997 -1.4,2e-5 7.7e-4,5.19519 11.13183,0 0,3.2 4.96824,0 0,-3.2 11.13176,0 -8.3e-4,-5.19471 -1.4,2.3e-4 -4.1e-4,-2.80046 1.4,-2e-5 -4.4e-4,-2.99924 3.20044,-5.3e-4 0,2.99979 1.40041,0 0,2.7997 -1.4,2e-5 7.6e-4,5.19522 6.468316,0 m -33.090186,-86.70002 3.09018,0 0,5.00001 -3.09018,0 0,-5.00001 m -0.10982,46.70003 3.2,0 0,5.00001 -3.2,0 0,-5.00001"
     inkscape:connector-curvature="0" />
  <path
     id="face4-interior"
     style="fill:none;stroke:#000000;stroke-width:0.02822222;stroke-linecap:round;stroke-linejoin:round;stroke-miterlimit:4;stroke-dasharray:none;stroke-opacity:1"
     d="m 23.136381,5.6991332 m -10,0 m -1.305262,0.0855 m -1.282928,0.25519 m -1.2386446,0.42046 m -1.173166,0.5786 m -1.0876139,0.72672 m -0.983454,0.86246 m -0.862465,0.98346 m -0.726721,1.0876098 m -0.578541,1.17317 m -0.420463,1.23864 m -0.255191,1.28293 m -0.085551,1.30526 m 0,10.1 m 10.0000005,0 m 0,3 m -10.0000005,0 m 0,146.999997 m 10.0000005,0 m 0,3 m -10.0000005,0 m 0,10.1 m 0.08555,1.30526 m 0.255191,1.28293 m 0.420463,1.23864 m 0.578542,1.17317 m 0.726721,1.08761 m 0.862465,0.98346 m 0.983454,0.86246 m 1.0876139,0.72672 m 1.173166,0.57855 m 1.2386446,0.42046 m 1.282928,0.25519 m 1.305262,0.0856 m 10,0"
     inkscape:connector-curvature="0" />
  <path
     id="face5-interior"
     style="fill:none;stroke:#000000;stroke-width:0.02822222;stroke-linecap:round;stroke-linejoin:round;stroke-miterlimit:4;stroke-dasharray:none;stroke-opacity:1"
     d="m 6.3363805,233.39913 m 35.0000005,0 m 0,3.2 m 5,0 m 0,-3.2 m 41.7,0 m 0,3.2 m 5,0 m 0,-3.2 m 34.999999,0 m 0,-4 m 3.2,0 m 0,-6 m -3.2,0 m 0,-4.5 m 3.2,0 m 0,-6 m -3.2,0 m 0,-4 m -121.6999995,0 m 0,4 m -3.2,0 m 0,6 m 3.2,0 m 0,4.5 m -3.2,0 m 0,6 m 3.2,0"
     inkscape:connector-curvature="0" />
  <path
     id="path90"
     style="fill:none;stroke:#000000;stroke-width:0.02822222;stroke-linecap:round;stroke-linejoin:round;stroke-miterlimit:4;stroke-dasharray:none;stroke-opacity:1"
     d="m 23.136381,5.6991332 m -10,0 m -1.305262,0.0855 m -1.282928,0.25519 m -1.2386446,0.42046 m -1.173166,0.5786 m -1.0876139,0.72672 m -0.983454,0.86246 m -0.862465,0.98346 m -0.726721,1.0876098 m -0.578541,1.17317 m -0.420463,1.23864 m -0.255191,1.28293 m -0.085551,1.30526 m 0,10.1 m 10.0000005,0 m 0,3 m -10.0000005,0 m 0,146.999997 m 10.0000005,0 m 0,3 m -10.0000005,0 m 0,10.1 m 0.08555,1.30526 m 0.255191,1.28293 m 0.420463,1.23864 m 0.578542,1.17317 m 0.726721,1.08761 m 0.862465,0.98346 m 0.983454,0.86246 m 1.0876139,0.72672 m 1.173166,0.57855 m 1.2386446,0.42046 m 1.282928,0.25519 m 1.305262,0.0856 m 10,0"
     inkscape:connector-curvature="0" />
  <path
     id="path92"
     style="fill:none;stroke:#000000;stroke-width:0.02822222;stroke-linecap:round;stroke-linejoin:round;stroke-miterlimit:4;stroke-dasharray:none;stroke-opacity:1"
     d="m 6.3363805,233.39913 m 35.0000005,0 m 0,3.2 m 5,0 m 0,-3.2 m 41.7,0 m 0,3.2 m 5,0 m 0,-3.2 m 34.999999,0 m 0,-4 m 3.2,0 m 0,-6 m -3.2,0 m 0,-4.5 m 3.2,0 m 0,-6 m -3.2,0 m 0,-4 m -121.6999995,0 m 0,4 m -3.2,0 m 0,6 m 3.2,0 m 0,4.5 m -3.2,0 m 0,6 m 3.2,0"
     inkscape:connector-curvature="0" />
  <rect
     style="fill:none;stroke:#000000;stroke-width:0.1;stroke-miterlimit:4;stroke-opacity:1;stroke-dasharray:none;stroke-dashoffset:0"
     id="rect3907"
     width="1417.3229"
     height="1417.3229"
     x="-7.287755"
     y="-4.9701357"
     transform="matrix(0.28222222,0,0,0.28222222,-6.0247038e-6,0)" />
  <path
     id="face26-cut-1"
     style="fill:none;stroke:#000000;stroke-width:0.02822222;stroke-linecap:round;stroke-linejoin:round;stroke-miterlimit:4;stroke-opacity:1;stroke-dasharray:none"
     d="m 144.39408,117.67671 1.58919,2.07106 2.07107,1.58919 2.41181,0.999 2.58819,0.34075 2.58819,-0.34075 2.41181,-0.999 2.07106,-1.58919 1.58919,-2.07106 0.99901,-2.41181 0.34074,-2.58819 -0.34074,-2.58819 -0.99901,-2.41181 -1.58919,-2.07107 -2.07106,-1.58919 -2.41181,-0.999 -2.58819,-0.34074 -2.58819,0.34074 -2.41181,0.999 -2.07107,1.58919 -1.58919,2.07107 -0.999,2.41181 -0.34074,2.58819 0.34074,2.58819 0.999,2.41181 m 8.66026,-7.2 0.5694,0.075 0.5306,0.21978 0.45563,0.34962 0.34962,0.45564 0.21978,0.53059 0.075,0.56941 -0.075,0.5694 -0.21978,0.5306 -0.34962,0.45563 -0.45563,0.34962 -0.5306,0.21978 -0.5694,0.075 -0.5694,-0.075 -0.5306,-0.21978 -0.45564,-0.34962 -0.34962,-0.45563 -0.21978,-0.5306 -0.075,-0.5694 0.075,-0.56941 0.21978,-0.53059 0.34962,-0.45564 0.45564,-0.34962 0.5306,-0.21978 0.5694,-0.075 m -4.71436,1.4 0.15984,0.38589 0.0545,0.41411 -0.0545,0.41411 -0.15984,0.38589 -0.25427,0.33137 -0.33137,0.25427 -0.38589,0.15984 -0.41411,0.0545 -0.41411,-0.0545 -0.38589,-0.15984 -0.33137,-0.25427 -0.25427,-0.33137 -0.15984,-0.38589 -0.0545,-0.41411 0.0545,-0.41411 0.15984,-0.38589 0.25427,-0.33137 0.33137,-0.25427 0.38589,-0.15984 0.41411,-0.0545 0.41411,0.0545 0.38589,0.15984 0.33137,0.25427 0.25427,0.33137 m 11.22847,2.34548 -0.41411,0.0545 -0.41411,-0.0545 -0.38589,-0.15984 -0.33137,-0.25427 -0.25427,-0.33137 -0.15984,-0.38589 -0.0545,-0.41411 0.0545,-0.41411 0.15984,-0.38589 0.25427,-0.33137 0.33137,-0.25427 0.38589,-0.15984 0.41411,-0.0545 0.41411,0.0545 0.38589,0.15984 0.33137,0.25427 0.25427,0.33137 0.15984,0.38589 0.0545,0.41411 -0.0545,0.41411 -0.15984,0.38589 -0.25427,0.33137 -0.33137,0.25427 -0.38589,0.15984"
     inkscape:connector-curvature="0" />
  <g
     transform="matrix(0,-0.83648956,1.1954722,0,0,0)"
     style="font-size:10.10494804000000000px;font-style:normal;font-variant:normal;font-weight:normal;font-stretch:normal;text-align:start;line-height:125%;letter-spacing:0px;word-spacing:0px;writing-mode:lr-tb;text-anchor:start;fill:none;stroke:#ff0000;stroke-opacity:1;font-family:Segoe Print;-inkscape-font-specification:Segoe Print;fill-opacity:1;stroke-width:0.02822222000000000;stroke-miterlimit:4;stroke-dasharray:none"
     id="text3139">
    <path
       d="m -186.14797,10.864961 c -0.0921,0.0033 -0.31414,0.386504 -0.6661,1.149635 -0.28947,0.628272 -0.58551,1.188287 -0.88813,1.680047 -0.30263,0.491761 -0.52466,0.737641 -0.6661,0.737641 -0.40788,0 -0.78534,-0.606066 -1.13236,-1.8182 -0.34703,-1.21213 -0.52055,-2.18825 -0.52055,-2.9283624 0,-0.2401194 0.06,-0.4391262 0.1801,-0.5970209 0.12006,-0.1578846 0.26232,-0.2434081 0.42679,-0.2565709 0.023,-0.00328 0.0641,-0.00246 0.12335,0.00247 0.0592,0.00494 0.13158,0.059214 0.2171,0.1628239 0.0855,0.1036202 0.12829,0.2047683 0.12829,0.3034445 l 0,0.019736 c 0,0.039477 -0.0181,0.2039456 -0.0543,0.4934057 -0.0296,0.2138129 -0.0444,0.4753179 -0.0444,0.7845149 -1e-5,0.490119 0.0937,1.03122 0.28124,1.623305 0.18749,0.592088 0.34538,0.888131 0.47367,0.88813 0.0921,1e-6 0.39636,-0.499983 0.9128,-1.499953 0.32564,-0.634846 0.55919,-1.072332 0.70063,-1.312459 l 0.15789,-0.296044 c 0.22697,-0.4341922 0.44242,-0.7335247 0.64636,-0.8979981 0.28289,0.036188 0.42433,0.1776309 0.42433,0.4243289 0,0.082239 -0.007,0.1513155 -0.0197,0.2072304 -0.0132,0.055924 -0.0197,0.1250003 -0.0197,0.2072303 0,0.6085375 0.15789,1.2458525 0.47367,1.9119465 0.31577,0.6661 0.5411,0.999148 0.67597,0.999147 0.0987,10e-7 0.25492,-0.348672 0.46873,-1.04602 0.28946,-0.947336 0.55672,-1.657839 0.80179,-2.1315125 0.24505,-0.4736645 0.42514,-0.7549055 0.54027,-0.8437237 0.11512,-0.088808 0.24505,-0.1332141 0.3898,-0.1332195 0.0822,5.4e-6 0.15212,0.035366 0.20969,0.1060822 0.0576,0.070727 0.0863,0.1472045 0.0863,0.2294336 -1e-5,0.1217117 -0.0181,0.2055906 -0.0543,0.2516369 -0.40789,0.5361718 -0.79932,1.373316 -1.1743,2.511435 -0.31908,0.976944 -0.53782,1.590412 -0.65623,1.840403 -0.11843,0.249992 -0.21711,0.374988 -0.29604,0.374988 -0.39802,0 -0.72367,-0.145554 -0.97695,-0.436664 -0.25328,-0.291108 -0.5888,-1.064932 -1.00655,-2.321473 -0.0493,-0.148019 -0.097,-0.277949 -0.14308,-0.389791 z"
       style="fill:none;fill-opacity:1;stroke-width:0.02822222000000000;stroke-miterlimit:4;stroke-dasharray:none;stroke:#ff0000;stroke-opacity:1"
       id="path3780" />
    <path
       d="m -177.24693,10.864961 c -0.0921,0.0033 -0.31414,0.386504 -0.6661,1.149635 -0.28947,0.628272 -0.58551,1.188287 -0.88813,1.680047 -0.30263,0.491761 -0.52466,0.737641 -0.6661,0.737641 -0.40788,0 -0.78534,-0.606066 -1.13237,-1.8182 -0.34703,-1.21213 -0.52054,-2.18825 -0.52054,-2.9283624 0,-0.2401194 0.06,-0.4391262 0.18009,-0.5970209 0.12007,-0.1578846 0.26233,-0.2434081 0.4268,-0.2565709 0.023,-0.00328 0.0641,-0.00246 0.12335,0.00247 0.0592,0.00494 0.13157,0.059214 0.2171,0.1628239 0.0855,0.1036202 0.12828,0.2047683 0.12829,0.3034445 l 0,0.019736 c -10e-6,0.039477 -0.0181,0.2039456 -0.0543,0.4934057 -0.0296,0.2138129 -0.0444,0.4753179 -0.0444,0.7845149 0,0.490119 0.0937,1.03122 0.28125,1.623305 0.18749,0.592088 0.34538,0.888131 0.47366,0.88813 0.0921,1e-6 0.39637,-0.499983 0.91281,-1.499953 0.32564,-0.634846 0.55918,-1.072332 0.70063,-1.312459 l 0.15789,-0.296044 c 0.22696,-0.4341922 0.44242,-0.7335247 0.64636,-0.8979981 0.28288,0.036188 0.42433,0.1776309 0.42433,0.4243289 0,0.082239 -0.007,0.1513155 -0.0197,0.2072304 -0.0132,0.055924 -0.0197,0.1250003 -0.0197,0.2072303 -1e-5,0.6085375 0.15788,1.2458525 0.47367,1.9119465 0.31577,0.6661 0.54109,0.999148 0.67596,0.999147 0.0987,10e-7 0.25492,-0.348672 0.46874,-1.04602 0.28946,-0.947336 0.55672,-1.657839 0.80178,-2.1315125 0.24505,-0.4736645 0.42515,-0.7549055 0.54028,-0.8437237 0.11512,-0.088808 0.24505,-0.1332141 0.38979,-0.1332195 0.0822,5.4e-6 0.15213,0.035366 0.2097,0.1060822 0.0576,0.070727 0.0863,0.1472045 0.0863,0.2294336 -1e-5,0.1217117 -0.0181,0.2055906 -0.0543,0.2516369 -0.40789,0.5361718 -0.79932,1.373316 -1.1743,2.511435 -0.31908,0.976944 -0.53782,1.590412 -0.65623,1.840403 -0.11843,0.249992 -0.21711,0.374988 -0.29605,0.374988 -0.39802,0 -0.72366,-0.145554 -0.97694,-0.436664 -0.25329,-0.291108 -0.5888,-1.064932 -1.00655,-2.321473 -0.0493,-0.148019 -0.097,-0.277949 -0.14308,-0.389791 z"
       style="fill:none;fill-opacity:1;stroke-width:0.02822222000000000;stroke-miterlimit:4;stroke-dasharray:none;stroke:#ff0000;stroke-opacity:1"
       id="path3782" />
    <path
       d="m -168.3459,10.864961 c -0.0921,0.0033 -0.31414,0.386504 -0.66609,1.149635 -0.28947,0.628272 -0.58552,1.188287 -0.88813,1.680047 -0.30263,0.491761 -0.52466,0.737641 -0.6661,0.737641 -0.40789,0 -0.78534,-0.606066 -1.13237,-1.8182 -0.34703,-1.21213 -0.52054,-2.18825 -0.52054,-2.9283624 0,-0.2401194 0.06,-0.4391262 0.18009,-0.5970209 0.12006,-0.1578846 0.26233,-0.2434081 0.4268,-0.2565709 0.023,-0.00328 0.0641,-0.00246 0.12335,0.00247 0.0592,0.00494 0.13157,0.059214 0.2171,0.1628239 0.0855,0.1036202 0.12828,0.2047683 0.12828,0.3034445 l 0,0.019736 c 0,0.039477 -0.0181,0.2039456 -0.0543,0.4934057 -0.0296,0.2138129 -0.0444,0.4753179 -0.0444,0.7845149 0,0.490119 0.0937,1.03122 0.28124,1.623305 0.1875,0.592088 0.34539,0.888131 0.47367,0.88813 0.0921,1e-6 0.39637,-0.499983 0.9128,-1.499953 0.32565,-0.634846 0.55919,-1.072332 0.70064,-1.312459 l 0.15789,-0.296044 c 0.22696,-0.4341922 0.44242,-0.7335247 0.64636,-0.8979981 0.28288,0.036188 0.42432,0.1776309 0.42433,0.4243289 -1e-5,0.082239 -0.007,0.1513155 -0.0197,0.2072304 -0.0132,0.055924 -0.0197,0.1250003 -0.0197,0.2072303 -1e-5,0.6085375 0.15788,1.2458525 0.47367,1.9119465 0.31577,0.6661 0.54109,0.999148 0.67596,0.999147 0.0987,10e-7 0.25492,-0.348672 0.46874,-1.04602 0.28946,-0.947336 0.55672,-1.657839 0.80178,-2.1315125 0.24505,-0.4736645 0.42515,-0.7549055 0.54028,-0.8437237 0.11512,-0.088808 0.24505,-0.1332141 0.38979,-0.1332195 0.0822,5.4e-6 0.15213,0.035366 0.2097,0.1060822 0.0575,0.070727 0.0863,0.1472045 0.0864,0.2294336 -1e-5,0.1217117 -0.0181,0.2055906 -0.0543,0.2516369 -0.40789,0.5361718 -0.79932,1.373316 -1.1743,2.511435 -0.31908,0.976944 -0.53782,1.590412 -0.65623,1.840403 -0.11843,0.249992 -0.21711,0.374988 -0.29605,0.374988 -0.39802,0 -0.72367,-0.145554 -0.97694,-0.436664 -0.25329,-0.291108 -0.5888,-1.064932 -1.00655,-2.321473 -0.0493,-0.148019 -0.097,-0.277949 -0.14309,-0.389791 z"
       style="fill:none;fill-opacity:1;stroke-width:0.02822222000000000;stroke-miterlimit:4;stroke-dasharray:none;stroke:#ff0000;stroke-opacity:1"
       id="path3784" />
    <path
       d="m -162.64213,12.769507 0.10855,0 c 0.0592,10e-7 0.12993,0.02878 0.21217,0.08635 0.0822,0.05757 0.12335,0.135688 0.12335,0.234368 0,0.197363 -0.0345,0.342095 -0.10362,0.434197 -0.0691,0.0921 -0.18009,0.194073 -0.33305,0.305911 -0.15295,0.111839 -0.26068,0.167758 -0.32318,0.167758 -0.13815,0 -0.24012,-0.03125 -0.30591,-0.09375 -0.0658,-0.0625 -0.0987,-0.233545 -0.0987,-0.513142 0,-0.259859 0.0148,-0.414459 0.0444,-0.463801 0.0296,-0.04934 0.10114,-0.08799 0.21463,-0.115951 0.11348,-0.02796 0.26726,-0.04194 0.46133,-0.04194 z"
       style="fill:none;fill-opacity:1;stroke-width:0.02822222000000000;stroke-miterlimit:4;stroke-dasharray:none;stroke:#ff0000;stroke-opacity:1"
       id="path3786" />
    <path
       d="m -155.78872,12.680694 c -1.21049,0.950629 -2.30421,1.425942 -3.28115,1.425942 -0.55262,0 -0.99175,-0.163646 -1.31739,-0.490938 -0.32565,-0.327292 -0.48847,-0.780402 -0.48847,-1.359333 0,-1.391401 0.59373,-2.6898785 1.78119,-3.8954376 1.18746,-1.2055476 2.41768,-1.8083242 3.69067,-1.8083318 0.37499,7.6e-6 0.67514,0.06744 0.90047,0.2022963 0.22531,0.1348715 0.33798,0.3059186 0.33798,0.5131419 0,0.1809221 -0.0683,0.3807512 -0.20476,0.5994879 -0.13652,0.2187492 -0.26891,0.3281207 -0.39719,0.3281148 -0.0855,5.9e-6 -0.15625,-0.067426 -0.21217,-0.2022963 -0.0921,-0.2138028 -0.19243,-0.3618244 -0.30097,-0.4440651 -0.10856,-0.082228 -0.27467,-0.1233448 -0.49834,-0.1233515 -0.57236,6.7e-6 -1.21543,0.2730243 -1.92922,0.8190535 -0.7138,0.5460409 -1.2771,1.1718431 -1.68991,1.8774089 -0.41282,0.705573 -0.61923,1.388939 -0.61923,2.0501 0,0.769714 0.35361,1.15457 1.06082,1.154569 0.32565,1e-6 0.70146,-0.08141 1.12744,-0.244235 0.42597,-0.162823 0.88154,-0.409526 1.36673,-0.740109 0.48518,-0.33058 0.77957,-0.620866 0.8832,-0.870861 0.1036,-0.249989 0.18502,-0.590439 0.24423,-1.02135 0.0329,-0.233541 0.20394,-0.350314 0.51314,-0.350318 0.33222,4e-6 0.49834,0.101975 0.49834,0.305912 0,0.09211 -0.0493,0.256574 -0.14802,0.493406 -0.16118,0.381569 -0.28125,0.728598 -0.36018,1.041085 -0.079,0.312493 -0.1505,0.674323 -0.21464,1.085493 -0.0641,0.411172 -0.0962,0.703926 -0.0962,0.878262 -1e-5,0.154601 0.0296,0.383212 0.0888,0.685834 0.01,0.0625 0.0148,0.115127 0.0148,0.15789 0,0.115127 -0.0436,0.226965 -0.13075,0.335516 -0.0872,0.108548 -0.1949,0.162822 -0.32318,0.162823 -0.14145,-1e-6 -0.28042,-0.0551 -0.41693,-0.16529 -0.13651,-0.110195 -0.20476,-0.232724 -0.20476,-0.367588 0,-0.10526 0.0756,-0.577284 0.22697,-1.416074 0.046,-0.263149 0.0789,-0.468734 0.0987,-0.616757 z"
       style="fill:none;fill-opacity:1;stroke-width:0.02822222000000000;stroke-miterlimit:4;stroke-dasharray:none;stroke:#ff0000;stroke-opacity:1"
       id="path3788" />
    <path
       d="m -148.74782,12.458661 c -1e-5,0.335518 -0.29687,0.74011 -0.8906,1.213778 -0.59374,0.47367 -1.20638,0.710504 -1.83794,0.710505 -0.52959,-1e-6 -0.93829,-0.156246 -1.22611,-0.468736 -0.28782,-0.31249 -0.43173,-0.748331 -0.43173,-1.307525 0,-0.940758 0.31742,-1.835466 0.95227,-2.6841267 0.63485,-0.8486527 1.32891,-1.2729811 2.08218,-1.2729866 0.24669,5.5e-6 0.44817,0.080595 0.60442,0.2417688 0.15624,0.1611842 0.23436,0.3552569 0.23436,0.5822187 0,0.5065673 -0.24835,0.9917488 -0.74504,1.4555468 -0.4967,0.463804 -1.16115,0.919381 -1.99336,1.366734 -0.17105,0.08881 -0.25657,0.203942 -0.25657,0.345384 0,0.273019 0.079,0.491762 0.23684,0.656229 0.15789,0.164469 0.39143,0.246703 0.70063,0.246703 0.70721,0 1.42923,-0.391434 2.16605,-1.174306 0.10855,-0.108547 0.19078,-0.162822 0.24671,-0.162823 0.10525,1e-6 0.15788,0.08388 0.15789,0.251636 z m -3.42917,-0.769712 c 1.39469,-0.828919 2.09203,-1.495016 2.09204,-1.9982933 -1e-5,-0.1973577 -0.0888,-0.2960387 -0.26644,-0.2960434 -0.30263,4.7e-6 -0.6439,0.222037 -1.02382,0.6660977 -0.37992,0.444069 -0.64718,0.986814 -0.80178,1.628239 z"
       style="fill:none;fill-opacity:1;stroke-width:0.02822222000000000;stroke-miterlimit:4;stroke-dasharray:none;stroke:#ff0000;stroke-opacity:1"
       id="path3790" />
    <path
       d="m -143.49799,12.458661 c 0,0.335518 -0.29687,0.74011 -0.89059,1.213778 -0.59374,0.47367 -1.20638,0.710504 -1.83794,0.710505 -0.52959,-1e-6 -0.9383,-0.156246 -1.22611,-0.468736 -0.28782,-0.31249 -0.43173,-0.748331 -0.43173,-1.307525 0,-0.940758 0.31742,-1.835466 0.95227,-2.6841267 0.63485,-0.8486527 1.3289,-1.2729811 2.08217,-1.2729866 0.2467,5.5e-6 0.44817,0.080595 0.60442,0.2417688 0.15624,0.1611842 0.23437,0.3552569 0.23437,0.5822187 0,0.5065673 -0.24835,0.9917488 -0.74504,1.4555468 -0.4967,0.463804 -1.16115,0.919381 -1.99336,1.366734 -0.17105,0.08881 -0.25657,0.203942 -0.25657,0.345384 0,0.273019 0.0789,0.491762 0.23683,0.656229 0.15789,0.164469 0.39144,0.246703 0.70064,0.246703 0.70721,0 1.42923,-0.391434 2.16605,-1.174306 0.10854,-0.108547 0.19078,-0.162822 0.2467,-0.162823 0.10526,1e-6 0.15789,0.08388 0.15789,0.251636 z m -3.42917,-0.769712 c 1.39469,-0.828919 2.09204,-1.495016 2.09204,-1.9982933 0,-0.1973577 -0.0888,-0.2960387 -0.26644,-0.2960434 -0.30262,4.7e-6 -0.64389,0.222037 -1.02381,0.6660977 -0.37993,0.444069 -0.64719,0.986814 -0.80179,1.628239 z"
       style="fill:none;fill-opacity:1;stroke-width:0.02822222000000000;stroke-miterlimit:4;stroke-dasharray:none;stroke:#ff0000;stroke-opacity:1"
       id="path3792" />
    <path
       d="m -141.5145,11.827102 c 0.0428,-0.05592 0.33716,-0.320711 0.8832,-0.794383 0.51643,-0.45064 0.87661,-0.777932 1.08056,-0.981877 0.75984,-0.7598401 1.30587,-1.1397621 1.6381,-1.1397673 0.25657,5.2e-6 0.38486,0.1233565 0.38486,0.3700542 0,0.2796012 -0.12665,0.4851867 -0.37992,0.6167571 -0.32894,0.167762 -0.76807,0.446536 -1.31739,0.836323 -0.54933,0.389793 -0.824,0.665278 -0.82399,0.826454 -1e-5,0.06579 0.19407,0.31167 0.58222,0.737642 0.38814,0.425975 0.72365,0.740109 1.00654,0.942404 0.28289,0.202297 0.55755,0.303445 0.82399,0.303445 l 0.16283,-0.0049 c 0.11512,-0.0066 0.17268,0.04441 0.17269,0.152956 -10e-6,0.144732 -0.0905,0.291931 -0.27138,0.441598 -0.18092,0.149666 -0.4194,0.224499 -0.71543,0.224499 -0.19079,0 -0.38404,-0.06661 -0.57976,-0.199829 -0.19572,-0.133219 -0.54357,-0.492583 -1.04355,-1.078091 -0.39802,-0.483536 -0.64636,-0.772178 -0.74504,-0.865927 -0.0987,-0.09375 -0.18092,-0.140619 -0.2467,-0.140621 -0.0362,2e-6 -0.15132,0.08553 -0.34539,0.256571 -0.19407,0.171049 -0.30015,0.300979 -0.31824,0.38979 -0.0181,0.08881 -0.0271,0.42762 -0.0271,1.016416 l 0,0.231901 c 0,0.121707 -0.0576,0.230256 -0.17269,0.325648 -0.11513,0.09539 -0.24013,0.143087 -0.37499,0.143087 -0.13816,0 -0.24671,-0.0403 -0.32565,-0.120884 -0.0789,-0.08059 -0.11842,-0.163646 -0.11842,-0.24917 0,-0.118417 0.0444,-0.398014 0.13322,-0.83879 0.125,-0.634847 0.24013,-1.485148 0.34539,-2.550907 0.24341,-2.5163629 0.4309,-3.9398369 0.56248,-4.2704261 0.13157,-0.3305737 0.31907,-0.4958644 0.56248,-0.4958727 0.0855,8.3e-6 0.15707,0.046059 0.21463,0.1381536 0.0576,0.09211 0.0863,0.2105277 0.0863,0.3552521 0,0.2631572 -0.11349,0.9621478 -0.34045,2.0969741 -0.22697,1.1381269 -0.39144,2.246644 -0.49341,3.325554 z"
       style="fill:none;fill-opacity:1;stroke-width:0.02822222000000000;stroke-miterlimit:4;stroke-dasharray:none;stroke:#ff0000;stroke-opacity:1"
       id="path3794" />
    <path
       d="m -129.27804,8.3140538 c -0.32565,0.3618363 -0.82893,1.0081971 -1.50982,1.9390842 -0.6809,0.927606 -1.15951,1.524626 -1.43581,1.791063 -0.27631,0.266441 -0.50328,0.39966 -0.6809,0.399658 -0.13487,2e-6 -0.26644,-0.101146 -0.39472,-0.303444 -0.12829,-0.202294 -0.29441,-0.610998 -0.49834,-1.226113 -0.42105,-1.2532462 -0.68584,-1.9752625 -0.79439,-2.1660512 -0.0395,0.1118439 -0.0839,0.2944038 -0.13322,0.5476803 -0.10526,0.5328824 -0.24506,1.1825329 -0.41939,1.9489529 -0.33881,1.47035 -0.53124,2.444003 -0.57729,2.920961 -0.007,0.05921 -0.06,0.123351 -0.16035,0.192428 -0.10033,0.06908 -0.18174,0.103615 -0.24424,0.103615 -0.11842,0 -0.22779,-0.05921 -0.32811,-0.177626 -0.10033,-0.118417 -0.15049,-0.233545 -0.15049,-0.345384 0,-0.289464 0.0954,-0.794382 0.28617,-1.514755 l 0.42927,-1.618371 c 0.26314,-1.0197002 0.42597,-1.7696761 0.48847,-2.2499294 0.0625,-0.4802421 0.0937,-0.8585194 0.0937,-1.134833 -1e-5,-0.2861683 0.22532,-0.4292558 0.67596,-0.4292629 0.0954,7.1e-6 0.19572,0.083064 0.30098,0.2491698 0.10526,0.16612 0.17433,0.3116745 0.20723,0.436664 0.0428,0.1250025 0.0937,0.2648006 0.15295,0.4193949 l 0.66117,1.8502712 c 0.25985,0.7565584 0.42021,1.1833544 0.48107,1.2803874 0.0609,0.09704 0.11101,0.145558 0.15049,0.145555 0.16775,-0.03618 0.76148,-0.758197 1.78119,-2.1660509 1.13483,-1.5624448 1.78283,-2.3436696 1.94402,-2.3436769 0.13157,7.3e-6 0.27712,0.051815 0.43666,0.1554228 0.15953,0.1036222 0.2393,0.1932574 0.23931,0.2689061 -1e-5,0.0329 -0.0954,0.7549167 -0.28618,2.1660508 -0.0691,0.5230142 -0.13323,1.1504611 -0.19243,1.8823431 -0.0592,0.731887 -0.0888,1.14388 -0.0888,1.235981 -1e-5,0.167759 0.0296,0.355253 0.0888,0.562482 0.0526,0.184206 0.0789,0.332227 0.0789,0.444065 -10e-6,0.08881 -0.0165,0.217921 -0.0493,0.387324 -0.0329,0.169402 -0.10445,0.268906 -0.21463,0.29851 -0.11021,0.0296 -0.1982,0.04441 -0.26398,0.04441 -0.34539,0 -0.51808,-0.28782 -0.51807,-0.86346 -10e-6,-0.526298 0.11347,-1.814086 0.34045,-3.8633666 0.0164,-0.1644638 0.0247,-0.2664342 0.0247,-0.3059115 -1e-5,-0.02631 0.0197,-0.1365039 0.0592,-0.3305818 0.0296,-0.1644632 0.0444,-0.3026167 0.0444,-0.4144608 0,-0.1085435 -0.008,-0.1809096 -0.0247,-0.2170985 z"
       style="fill:none;fill-opacity:1;stroke-width:0.02822222000000000;stroke-miterlimit:4;stroke-dasharray:none;stroke:#ff0000;stroke-opacity:1"
       id="path3796" />
    <path
       d="m -125.47881,14.378009 c -0.45065,0 -0.82235,-0.171047 -1.1151,-0.513141 -0.29275,-0.342094 -0.43913,-0.764778 -0.43913,-1.268053 0,-0.848655 0.28535,-1.684977 0.85606,-2.508968 0.5707,-0.8239824 1.25407,-1.2359757 2.0501,-1.235981 0.52629,5.3e-6 0.95309,0.2023014 1.28039,0.606889 0.32728,0.4045969 0.49093,0.886489 0.49094,1.445679 -1e-5,0.855238 -0.33799,1.647976 -1.01395,2.378215 -0.67597,0.73024 -1.37907,1.09536 -2.10931,1.09536 z m -0.68584,-1.909479 c 0,0.332227 0.0699,0.6036 0.2097,0.814119 0.1398,0.21052 0.32482,0.31578 0.55508,0.31578 0.49012,0 0.98188,-0.268906 1.47529,-0.806719 0.4934,-0.53781 0.7401,-1.135653 0.7401,-1.793529 0,-0.404589 -0.0946,-0.732704 -0.2837,-0.984345 -0.18915,-0.2516322 -0.44325,-0.3774505 -0.76232,-0.377455 -0.52959,4.5e-6 -0.98434,0.3248296 -1.36426,0.974476 -0.37993,0.649654 -0.56989,1.268877 -0.56989,1.857673 z"
       style="fill:none;fill-opacity:1;stroke-width:0.02822222000000000;stroke-miterlimit:4;stroke-dasharray:none;stroke:#ff0000;stroke-opacity:1"
       id="path3798" />
    <path
       d="m -117.47084,10.228468 c -0.30591,0.0066 -0.9605,0.912803 -1.96375,2.718665 -0.33881,0.608534 -0.53617,0.939938 -0.59209,0.994212 -0.0559,0.05428 -0.15871,0.102793 -0.30838,0.145555 -0.14966,0.04276 -0.27384,0.06414 -0.37252,0.06414 -0.22039,0 -0.33058,-0.429263 -0.33058,-1.287789 0,-0.483536 0.10361,-1.358508 0.31085,-2.624918 0.0855,-0.5131375 0.12828,-0.8799021 0.12828,-1.1002947 0,-0.2170933 0.097,-0.3256424 0.29111,-0.3256477 0.36512,5.3e-6 0.54768,0.2631547 0.54768,0.789449 0,0.2467071 -0.0609,0.7302444 -0.18256,1.4506124 -0.14144,0.822345 -0.21381,1.322329 -0.2171,1.499954 0.20394,-0.197361 0.50327,-0.629913 0.898,-1.297657 0.55919,-0.914442 0.97118,-1.4941928 1.23598,-1.7392554 0.26479,-0.2450532 0.53863,-0.3675822 0.82152,-0.3675872 0.21381,5e-6 0.38403,0.1430925 0.51068,0.4292629 0.12663,0.2861796 0.20311,0.9687237 0.22943,2.0476337 0.007,0.269731 0.0312,0.470382 0.074,0.601955 0.0428,0.131576 0.074,0.197364 0.0937,0.197362 0.15459,2e-6 0.49011,-0.526297 1.00655,-1.578898 0.2763,-0.5559 0.5452,-0.9785837 0.80671,-1.2680527 0.2615,-0.2894598 0.55179,-0.4341919 0.87086,-0.4341969 0.26644,5e-6 0.46051,0.1373361 0.58222,0.4119937 0.1217,0.2746668 0.20887,0.6817259 0.26151,1.2211789 0.0493,0.546039 0.12581,1.046022 0.22943,1.499953 0.10361,0.453935 0.29357,0.745044 0.56989,0.873328 0.18748,0.08881 0.28123,0.192429 0.28124,0.310846 -1e-5,0.115128 -0.079,0.233546 -0.23684,0.355252 -0.1579,0.121707 -0.30263,0.18256 -0.43419,0.18256 -0.26316,0 -0.49835,-0.161179 -0.70557,-0.483537 -0.20724,-0.322358 -0.36349,-1.019704 -0.46874,-2.09204 -0.0461,-0.430905 -0.0905,-0.736816 -0.13322,-0.917735 -0.0428,-0.180912 -0.1102,-0.271369 -0.2023,-0.271373 -0.13816,4e-6 -0.3018,0.131578 -0.49093,0.394724 -0.18915,0.263153 -0.49424,0.797676 -0.91527,1.603569 -0.32895,0.628271 -0.57812,1.046843 -0.74751,1.255717 -0.16941,0.208876 -0.33306,0.313313 -0.49094,0.313313 -0.14145,0 -0.26809,-0.05674 -0.37992,-0.170225 -0.11185,-0.113483 -0.18257,-0.249992 -0.21217,-0.409527 -0.0296,-0.159533 -0.0609,-0.55179 -0.0937,-1.176772 -0.0494,-1.039438 -0.13981,-1.644682 -0.27138,-1.815733 z"
       style="fill:none;fill-opacity:1;stroke-width:0.02822222000000000;stroke-miterlimit:4;stroke-dasharray:none;stroke:#ff0000;stroke-opacity:1"
       id="path3800" />
    <path
       d="m -110.02041,8.2745814 c -0.1875,-0.065781 -0.28124,-0.235184 -0.28124,-0.5082078 0,-0.2138026 0.43502,-0.4218551 1.30506,-0.6241582 0.87003,-0.2022891 1.62905,-0.3034372 2.27706,-0.3034445 0.71708,7.3e-6 1.28614,0.1480288 1.70719,0.4440651 0.42103,0.29605 0.63155,0.6891294 0.63156,1.1792395 -1e-5,0.726956 -0.40049,1.3782508 -1.20145,1.9538865 -0.80096,0.575643 -1.8807,0.998327 -3.23921,1.268053 -0.35854,0.07237 -0.56001,0.132399 -0.60442,0.180093 -0.0444,0.0477 -0.0789,0.340451 -0.10361,0.878262 -0.0247,0.537813 -0.037,0.911978 -0.037,1.122498 0,0.148021 -0.0469,0.281241 -0.14062,0.399658 -0.0937,0.118417 -0.20312,0.177626 -0.32811,0.177626 -0.28947,0 -0.4342,-0.195717 -0.4342,-0.587153 0,-0.213808 0.0592,-0.809184 0.17763,-1.786128 l 0.35031,-2.9258956 c 0.01,-0.049336 0.0123,-0.1907784 0.007,-0.4243289 -0.005,-0.2335397 -0.0337,-0.3815613 -0.0863,-0.4440651 z m 1.02628,-0.2812412 c -0.023,0.095398 -0.0461,0.2713789 -0.0691,0.527944 -0.0461,0.4572278 -0.10362,0.9621457 -0.1727,1.5147558 -0.0362,0.289468 -0.0707,0.603603 -0.10361,0.942404 1.0822,-0.148018 2.04269,-0.45064 2.88149,-0.907866 0.83878,-0.4572181 1.25818,-0.9588466 1.25818,-1.5048873 0,-0.6710254 -0.51972,-1.006541 -1.55916,-1.0065475 -0.6809,6.5e-6 -1.42595,0.1447387 -2.23513,0.434197 z"
       style="fill:none;fill-opacity:1;stroke-width:0.02822222000000000;stroke-miterlimit:4;stroke-dasharray:none;stroke:#ff0000;stroke-opacity:1"
       id="path3802" />
    <path
       d="m -102.6736,12.172486 c 0.0329,-0.05921 0.0724,-0.141441 0.11842,-0.246703 0.22367,-0.513139 0.42926,-0.915264 0.61676,-1.206377 0.18749,-0.291105 0.3939,-0.569879 0.61922,-0.8363221 0.22532,-0.2664346 0.4309,-0.4687307 0.61676,-0.606889 0.18584,-0.1381486 0.35442,-0.2343626 0.50574,-0.2886423 0.1513,-0.054269 0.297682,-0.081407 0.439129,-0.081412 0.28617,5.3e-6 0.519715,0.086351 0.700636,0.259038 0.18091,0.1726968 0.271368,0.3741706 0.271373,0.604422 -5e-6,0.1019747 -0.03208,0.194077 -0.09621,0.2763074 -0.06415,0.08224 -0.162007,0.123355 -0.293576,0.123351 -0.138159,4e-6 -0.2648,-0.06085 -0.379923,-0.1825599 -0.118422,-0.1217025 -0.241773,-0.1825558 -0.370054,-0.1825601 -0.342101,4.3e-6 -0.815771,0.414465 -1.421011,1.243382 -0.60524,0.828924 -0.97365,1.741724 -1.10523,2.738402 -0.0329,0.256571 -0.0954,0.425973 -0.18749,0.508208 -0.0921,0.08223 -0.22203,0.123351 -0.38979,0.123351 -0.16118,0 -0.27795,-0.120062 -0.35032,-0.360186 -0.0724,-0.240124 -0.10855,-0.644716 -0.10855,-1.213778 0,-0.154599 0.008,-0.495049 0.0247,-1.02135 0.0197,-0.621688 0.0592,-1.123317 0.11842,-1.504887 0.01,-0.06249 0.0263,-0.208871 0.0493,-0.4391312 0.023,-0.2532771 0.0518,-0.4292582 0.0863,-0.5279441 0.0345,-0.098676 0.10525,-0.1907785 0.21216,-0.2763071 0.1069,-0.085518 0.22285,-0.1282803 0.34785,-0.1282855 0.12171,5.2e-6 0.21299,0.038655 0.27384,0.1159503 0.0609,0.077305 0.0913,0.1603618 0.0913,0.2491699 0,0.1282902 -0.0329,0.3092054 -0.0987,0.5427462 -0.0757,0.2598645 -0.12006,0.4391345 -0.13322,0.5378125 -0.01,0.111842 -0.028,0.228615 -0.0543,0.350318 -0.0329,0.141446 -0.0658,0.513144 -0.0987,1.115097 l -0.005,0.18256 z"
       style="fill:none;fill-opacity:1;stroke-width:0.02822222000000000;stroke-miterlimit:4;stroke-dasharray:none;stroke:#ff0000;stroke-opacity:1"
       id="path3804" />
    <path
       d="m -97.07838,14.378009 c -0.450645,0 -0.822344,-0.171047 -1.115097,-0.513141 -0.292754,-0.342094 -0.439131,-0.764778 -0.439131,-1.268053 0,-0.848655 0.285352,-1.684977 0.856059,-2.508968 0.570704,-0.8239824 1.25407,-1.2359757 2.050101,-1.235981 0.526295,5.3e-6 0.95309,0.2023014 1.280387,0.606889 0.327288,0.4045969 0.490934,0.886489 0.490939,1.445679 -5e-6,0.855238 -0.337988,1.647976 -1.013949,2.378215 -0.675969,0.73024 -1.379071,1.09536 -2.109309,1.09536 z m -0.685834,-1.909479 c -10e-7,0.332227 0.0699,0.6036 0.209698,0.814119 0.139796,0.21052 0.324823,0.31578 0.555081,0.31578 0.490114,0 0.981874,-0.268906 1.475283,-0.806719 0.493401,-0.53781 0.740104,-1.135653 0.740108,-1.793529 -4e-6,-0.404589 -0.09457,-0.732704 -0.283708,-0.984345 -0.189143,-0.2516322 -0.443246,-0.3774505 -0.762312,-0.377455 -0.529591,4.5e-6 -0.984346,0.3248296 -1.364266,0.974476 -0.379924,0.649654 -0.569885,1.268877 -0.569884,1.857673 z"
       style="fill:none;fill-opacity:1;stroke-width:0.02822222000000000;stroke-miterlimit:4;stroke-dasharray:none;stroke:#ff0000;stroke-opacity:1"
       id="path3806" />
    <path
       d="m -91.41902,6.152937 0.0148,0 c 0.0921,8e-6 0.230253,0.032902 0.41446,0.098681 0.184203,0.065795 0.305087,0.1208921 0.362654,0.1652909 0.05756,0.044414 0.08634,0.1192473 0.08635,0.2244995 -3e-6,0.2039483 -0.09375,0.3823965 -0.281242,0.5353452 -0.187496,0.1529625 -0.327294,0.2294403 -0.419395,0.2294336 -0.157891,6.7e-6 -0.296045,-0.06907 -0.41446,-0.2072304 -0.118419,-0.1381465 -0.177628,-0.2762999 -0.177626,-0.4144607 -2e-6,-0.3552444 0.138152,-0.5657639 0.41446,-0.6315593 z m -1.998292,11.111496 c -0.391435,-4e-6 -0.770535,-0.16365 -1.137301,-0.490939 -0.366763,-0.327295 -0.550145,-0.609358 -0.550147,-0.846191 2e-6,-0.06579 0.02303,-0.130754 0.06908,-0.194895 0.04605,-0.06414 0.08059,-0.09622 0.103615,-0.09621 0.02303,-2e-6 0.07401,0.03289 0.152956,0.09868 0.516432,0.453931 0.932537,0.680898 1.248316,0.6809 0.25986,-2e-6 0.483537,-0.124176 0.671032,-0.372521 0.187493,-0.24835 0.322357,-0.708861 0.404593,-1.381536 0.08223,-0.672677 0.159533,-1.717873 0.2319,-3.135593 0.04934,-1.022991 0.09292,-1.6726412 0.130753,-1.9489527 0.03783,-0.2763023 0.115949,-0.4695527 0.234367,-0.5797516 0.118416,-0.1101887 0.269727,-0.1652856 0.453934,-0.1652909 0.09539,5.3e-6 0.185025,0.037011 0.268906,0.1110163 0.08388,0.074016 0.125816,0.1636512 0.125818,0.2689061 -2e-6,0.059214 -0.01151,0.139803 -0.03454,0.2417687 -0.240126,1.0394451 -0.396371,2.3930201 -0.468736,4.0607291 -0.04605,1.006547 -0.1398,1.751589 -0.281241,2.235127 -0.141444,0.483536 -0.359365,0.856879 -0.653762,1.120031 -0.2944,0.263147 -0.61758,0.394721 -0.969542,0.394725 z"
       style="fill:none;fill-opacity:1;stroke-width:0.02822222000000000;stroke-miterlimit:4;stroke-dasharray:none;stroke:#ff0000;stroke-opacity:1"
       id="path3808" />
    <path
       d="m -85.315591,12.458661 c -5e-6,0.335518 -0.296871,0.74011 -0.890598,1.213778 -0.593735,0.47367 -1.206379,0.710504 -1.837936,0.710505 -0.52959,-1e-6 -0.938294,-0.156246 -1.226113,-0.468736 -0.287821,-0.31249 -0.43173,-0.748331 -0.43173,-1.307525 0,-0.940758 0.317424,-1.835466 0.952273,-2.6841267 0.634847,-0.8486527 1.328903,-1.2729811 2.082172,-1.2729866 0.246699,5.5e-6 0.448173,0.080595 0.604422,0.2417688 0.156241,0.1611842 0.234363,0.3552569 0.234368,0.5822187 -5e-6,0.5065673 -0.248352,0.9917488 -0.745043,1.4555468 -0.496698,0.463804 -1.16115,0.919381 -1.993359,1.366734 -0.171049,0.08881 -0.256572,0.203942 -0.256571,0.345384 -10e-7,0.273019 0.07894,0.491762 0.236835,0.656229 0.157888,0.164469 0.391433,0.246703 0.700636,0.246703 0.707212,0 1.429228,-0.391434 2.166051,-1.174306 0.108545,-0.108547 0.190779,-0.162822 0.246703,-0.162823 0.105255,1e-6 0.157885,0.08388 0.15789,0.251636 z m -3.42917,-0.769712 c 1.394691,-0.828919 2.092037,-1.495016 2.09204,-1.9982933 -3e-6,-0.1973577 -0.08882,-0.2960387 -0.266439,-0.2960434 -0.302625,4.7e-6 -0.643897,0.222037 -1.023817,0.6660977 -0.379924,0.444069 -0.647185,0.986814 -0.801784,1.628239 z"
       style="fill:none;fill-opacity:1;stroke-width:0.02822222000000000;stroke-miterlimit:4;stroke-dasharray:none;stroke:#ff0000;stroke-opacity:1"
       id="path3810" />
    <path
       d="m -82.942307,14.412548 c -0.493407,0 -0.872507,-0.141443 -1.1373,-0.424329 -0.264795,-0.282885 -0.397192,-0.679254 -0.397191,-1.189108 -10e-7,-0.858523 0.340449,-1.763922 1.021349,-2.716198 0.680898,-0.9522678 1.314101,-1.4284038 1.899612,-1.4284092 0.266436,5.4e-6 0.495869,0.1439153 0.688301,0.4317299 0.192424,0.2878247 0.288638,0.5929136 0.288642,0.9152673 -4e-6,0.194077 -0.04194,0.361012 -0.125818,0.500807 -0.08388,0.139802 -0.168584,0.209701 -0.254104,0.209697 -0.190787,4e-6 -0.325651,-0.192424 -0.404593,-0.577284 -0.08882,-0.4144566 -0.217101,-0.6216868 -0.384856,-0.6216914 -0.342097,4.6e-6 -0.74669,0.4062416 -1.213778,1.2187124 -0.467092,0.812477 -0.700637,1.49831 -0.700636,2.057501 -10e-7,0.559194 0.317423,0.83879 0.952273,0.83879 0.483535,0 1.052595,-0.226966 1.707184,-0.6809 0.230251,-0.161178 0.399654,-0.241767 0.508207,-0.241769 0.111834,2e-6 0.167754,0.06414 0.167758,0.192428 -4e-6,0.249994 -0.294403,0.564951 -0.883196,0.944872 -0.5888,0.379923 -1.166084,0.569884 -1.731854,0.569884 z"
       style="fill:none;fill-opacity:1;stroke-width:0.02822222000000000;stroke-miterlimit:4;stroke-dasharray:none;stroke:#ff0000;stroke-opacity:1"
       id="path3812" />
    <path
       d="m -77.149727,9.1528435 c 0.338802,-0.02631 0.657871,-0.057559 0.957207,-0.093747 0.29604,-0.032889 0.542742,-0.049335 0.740109,-0.049341 0.249987,5.2e-6 0.407877,0.023031 0.473669,0.069077 0.06578,0.046056 0.09868,0.1266457 0.09868,0.2417688 -5e-6,0.2664436 -0.185854,0.4111758 -0.557548,0.434197 -0.476963,0.029609 -0.916093,0.070726 -1.317393,0.1233514 -0.401306,0.052634 -0.617582,0.096218 -0.648829,0.1307522 -0.03125,0.03454 -0.130755,0.425978 -0.29851,1.174306 -0.16776,0.748334 -0.251639,1.234338 -0.251637,1.458014 -2e-6,0.361831 0.04769,0.602778 0.143088,0.722839 0.09539,0.120063 0.238477,0.180093 0.429263,0.180093 0.282883,0 0.675962,-0.212164 1.179239,-0.636493 0.194069,-0.174336 0.343735,-0.261504 0.448999,-0.261505 0.141439,1e-6 0.21216,0.07566 0.212165,0.226966 -5e-6,0.236836 -0.227793,0.543569 -0.683367,0.920202 -0.455581,0.376633 -0.921849,0.564949 -1.398805,0.564949 -0.796029,0 -1.194043,-0.468735 -1.194042,-1.406206 -10e-7,-0.338804 0.08223,-0.863458 0.246703,-1.573964 0.161178,-0.707211 0.241767,-1.13154 0.241769,-1.272987 -2e-6,-0.04934 -0.03947,-0.07401 -0.118418,-0.07401 l -0.513142,0.04441 c -0.42104,4e-6 -0.631559,-0.1677536 -0.631559,-0.5032737 0,-0.1907788 0.09704,-0.2861704 0.291109,-0.2861753 l 1.016416,0 c 0.06907,4.9e-6 0.129929,-0.031244 0.18256,-0.093747 0.05263,-0.062493 0.129929,-0.2721902 0.231901,-0.6290922 0.101968,-0.3568908 0.192426,-0.7096755 0.271373,-1.0583551 0.07894,-0.345377 0.233543,-0.5180689 0.463801,-0.518076 0.14144,7.1e-6 0.251634,0.049348 0.330582,0.1480217 0.07894,0.098688 0.118414,0.1907903 0.118417,0.2763072 -3e-6,0.046058 -0.05921,0.2812476 -0.177626,0.7055701 z"
       style="fill:none;fill-opacity:1;stroke-width:0.02822222000000000;stroke-miterlimit:4;stroke-dasharray:none;stroke:#ff0000;stroke-opacity:1"
       id="path3814" />
    <path
       d="m -71.939363,13.001408 c -3e-6,-0.213808 -0.263153,-0.457221 -0.789449,-0.730241 -0.667744,-0.342092 -1.11921,-0.615932 -1.354399,-0.82152 -0.23519,-0.205583 -0.352785,-0.435016 -0.352785,-0.688301 0,-0.654581 0.328114,-1.1973266 0.984345,-1.6282388 0.656227,-0.4309021 1.191571,-0.6463557 1.606035,-0.6463614 0.266436,5.7e-6 0.459686,0.046057 0.579752,0.1381536 0.120058,0.092108 0.180089,0.2516422 0.180093,0.4786035 -4e-6,0.1019754 -0.04359,0.1891437 -0.130753,0.261505 -0.08717,0.072371 -0.155426,0.1085539 -0.204763,0.1085493 -0.03619,4.6e-6 -0.106908,-0.024666 -0.212165,-0.074011 -0.105263,-0.046046 -0.174339,-0.069072 -0.20723,-0.069077 -0.164472,4.8e-6 -0.498342,0.1200667 -1.001613,0.3601862 -0.503276,0.2401282 -0.754913,0.5115013 -0.754911,0.8141193 -2e-6,0.184208 0.08881,0.351144 0.266439,0.500807 0.177624,0.149669 0.496693,0.333051 0.957207,0.550147 0.371696,0.177629 0.668561,0.367589 0.890597,0.569884 0.222029,0.202298 0.333045,0.439955 0.333049,0.712971 -4e-6,0.503274 -0.347032,0.897176 -1.041086,1.181706 -0.694059,0.284531 -1.356867,0.426796 -1.988425,0.426796 -0.532878,0 -0.799317,-0.180915 -0.799317,-0.542746 0,-0.124996 0.06003,-0.217098 0.180093,-0.276307 0.120062,-0.05921 0.240946,-0.08881 0.362653,-0.08881 0.04934,0 0.143087,0.01645 0.281242,0.04934 0.134863,0.03289 0.223676,0.04934 0.266439,0.04934 0.365118,0 0.756553,-0.06085 1.174305,-0.18256 0.417747,-0.121706 0.675963,-0.273017 0.774647,-0.453933 z"
       style="fill:none;fill-opacity:1;stroke-width:0.02822222000000000;stroke-miterlimit:4;stroke-dasharray:none;stroke:#ff0000;stroke-opacity:1"
       id="path3816" />
    <path
       d="m -69.427929,12.769507 0.108549,0 c 0.05921,10e-7 0.129929,0.02878 0.212165,0.08635 0.08223,0.05757 0.12335,0.135688 0.123351,0.234368 -10e-7,0.197363 -0.03454,0.342095 -0.103615,0.434197 -0.06908,0.0921 -0.180094,0.194073 -0.333049,0.305911 -0.152957,0.111839 -0.260683,0.167758 -0.32318,0.167758 -0.138155,0 -0.240125,-0.03125 -0.305912,-0.09375 -0.06579,-0.0625 -0.09868,-0.233545 -0.09868,-0.513142 -10e-7,-0.259859 0.0148,-0.414459 0.04441,-0.463801 0.0296,-0.04934 0.101148,-0.08799 0.214632,-0.115951 0.113482,-0.02796 0.26726,-0.04194 0.461334,-0.04194 z"
       style="fill:none;fill-opacity:1;stroke-width:0.02822222000000000;stroke-miterlimit:4;stroke-dasharray:none;stroke:#ff0000;stroke-opacity:1"
       id="path3818" />
    <path
       d="m -66.245461,14.412548 c -0.493407,0 -0.872507,-0.141443 -1.1373,-0.424329 -0.264795,-0.282885 -0.397192,-0.679254 -0.397191,-1.189108 -1e-6,-0.858523 0.340449,-1.763922 1.021349,-2.716198 0.680898,-0.9522678 1.314101,-1.4284038 1.899612,-1.4284092 0.266436,5.4e-6 0.495869,0.1439153 0.688301,0.4317299 0.192424,0.2878247 0.288638,0.5929136 0.288642,0.9152673 -4e-6,0.194077 -0.04194,0.361012 -0.125818,0.500807 -0.08388,0.139802 -0.168584,0.209701 -0.254104,0.209697 -0.190787,4e-6 -0.325651,-0.192424 -0.404593,-0.577284 -0.08882,-0.4144566 -0.217101,-0.6216868 -0.384856,-0.6216914 -0.342097,4.6e-6 -0.74669,0.4062416 -1.213778,1.2187124 -0.467092,0.812477 -0.700637,1.49831 -0.700636,2.057501 -10e-7,0.559194 0.317423,0.83879 0.952273,0.83879 0.483535,0 1.052595,-0.226966 1.707184,-0.6809 0.230251,-0.161178 0.399654,-0.241767 0.508207,-0.241769 0.111834,2e-6 0.167754,0.06414 0.167758,0.192428 -4e-6,0.249994 -0.294403,0.564951 -0.883196,0.944872 -0.5888,0.379923 -1.166084,0.569884 -1.731854,0.569884 z"
       style="fill:none;fill-opacity:1;stroke-width:0.02822222000000000;stroke-miterlimit:4;stroke-dasharray:none;stroke:#ff0000;stroke-opacity:1"
       id="path3820" />
    <path
       d="m -61.020297,14.378009 c -0.450646,0 -0.822344,-0.171047 -1.115097,-0.513141 -0.292755,-0.342094 -0.439132,-0.764778 -0.439131,-1.268053 -10e-7,-0.848655 0.285352,-1.684977 0.856059,-2.508968 0.570704,-0.8239824 1.25407,-1.2359757 2.0501,-1.235981 0.526296,5.3e-6 0.953091,0.2023014 1.280388,0.606889 0.327287,0.4045969 0.490933,0.886489 0.490939,1.445679 -6e-6,0.855238 -0.337988,1.647976 -1.013949,2.378215 -0.675969,0.73024 -1.379072,1.09536 -2.109309,1.09536 z m -0.685834,-1.909479 c -2e-6,0.332227 0.0699,0.6036 0.209697,0.814119 0.139797,0.21052 0.324824,0.31578 0.555082,0.31578 0.490113,0 0.981874,-0.268906 1.475283,-0.806719 0.493401,-0.53781 0.740104,-1.135653 0.740108,-1.793529 -4e-6,-0.404589 -0.09457,-0.732704 -0.283708,-0.984345 -0.189143,-0.2516322 -0.443247,-0.3774505 -0.762312,-0.377455 -0.529592,4.5e-6 -0.984347,0.3248296 -1.364267,0.974476 -0.379924,0.649654 -0.569885,1.268877 -0.569883,1.857673 z"
       style="fill:none;fill-opacity:1;stroke-width:0.02822222000000000;stroke-miterlimit:4;stroke-dasharray:none;stroke:#ff0000;stroke-opacity:1"
       id="path3822" />
    <path
       d="m -53.012326,10.228468 c -0.305916,0.0066 -0.9605,0.912803 -1.963755,2.718665 -0.338807,0.608534 -0.536169,0.939938 -0.592086,0.994212 -0.05592,0.05428 -0.158714,0.102793 -0.308379,0.145555 -0.149668,0.04276 -0.273841,0.06414 -0.372521,0.06414 -0.220389,0 -0.330583,-0.429263 -0.330582,-1.287789 -10e-7,-0.483536 0.103614,-1.358508 0.310846,-2.624918 0.08552,-0.5131375 0.128284,-0.8799021 0.128285,-1.1002947 -10e-7,-0.2170933 0.09703,-0.3256424 0.291109,-0.3256477 0.365119,5.3e-6 0.547679,0.2631547 0.547681,0.789449 -2e-6,0.2467071 -0.06086,0.7302444 -0.18256,1.4506124 -0.141445,0.822345 -0.213811,1.322329 -0.217099,1.499954 0.203939,-0.197361 0.503272,-0.629913 0.897998,-1.297657 0.55919,-0.914442 0.971184,-1.4941928 1.235982,-1.7392554 0.26479,-0.2450532 0.53863,-0.3675822 0.82152,-0.3675872 0.213804,5e-6 0.384029,0.1430925 0.510675,0.4292629 0.126635,0.2861796 0.203113,0.9687237 0.229434,2.0476337 0.0066,0.269731 0.03124,0.470382 0.07401,0.601955 0.04276,0.131576 0.07401,0.197364 0.09375,0.197362 0.154595,2e-6 0.490111,-0.526297 1.006548,-1.578898 0.2763,-0.5559 0.545206,-0.9785837 0.806718,-1.2680527 0.261498,-0.2894598 0.551784,-0.4341919 0.870861,-0.4341969 0.266431,5e-6 0.460504,0.1373361 0.582219,0.4119937 0.121698,0.2746668 0.208866,0.6817259 0.261505,1.2211789 0.04933,0.546039 0.125809,1.046022 0.229434,1.499953 0.103605,0.453935 0.293566,0.745044 0.569883,0.873328 0.187484,0.08881 0.281231,0.192429 0.281241,0.310846 -10e-6,0.115128 -0.07895,0.233546 -0.236834,0.355252 -0.1579,0.121707 -0.302632,0.18256 -0.434197,0.18256 -0.263159,0 -0.498349,-0.161179 -0.70557,-0.483537 -0.207239,-0.322358 -0.363484,-1.019704 -0.468736,-2.09204 -0.04606,-0.430905 -0.09047,-0.736816 -0.133219,-0.917735 -0.04277,-0.180912 -0.110202,-0.271369 -0.202297,-0.271373 -0.138161,4e-6 -0.301807,0.131578 -0.490938,0.394724 -0.189146,0.263153 -0.494235,0.797676 -0.915268,1.603569 -0.328943,0.628271 -0.578113,1.046843 -0.747509,1.255717 -0.169409,0.208876 -0.333055,0.313313 -0.490939,0.313313 -0.141448,0 -0.268089,-0.05674 -0.379922,-0.170225 -0.111844,-0.113483 -0.182565,-0.249992 -0.212165,-0.409527 -0.02961,-0.159533 -0.06086,-0.55179 -0.09375,-1.176772 -0.04935,-1.039438 -0.139803,-1.644682 -0.271373,-1.815733 z"
       style="fill:none;fill-opacity:1;stroke-width:0.02822222000000000;stroke-miterlimit:4;stroke-dasharray:none;stroke:#ff0000;stroke-opacity:1"
       id="path3824" />
  </g>
  <text
     xml:space="preserve"
     style="font-size:8.03003668999999930px;font-style:normal;font-variant:normal;font-weight:normal;font-stretch:normal;text-align:start;line-height:125%;letter-spacing:0px;word-spacing:0px;writing-mode:lr;text-anchor:start;fill:none;fill-opacity:1;stroke:#ff0000;font-family:Segoe Print;-inkscape-font-specification:Segoe Print;stroke-opacity:1;stroke-width:0.02822222;stroke-miterlimit:4;stroke-dasharray:none"
     x="135.7433"
     y="-116.44502"
     id="text3131"
     sodipodi:linespacing="125%"
     transform="matrix(0,0.66369213,-1.5067227,0,0,0)"><tspan
       sodipodi:role="line"
       id="tspan3133"
       x="135.7433"
       y="-116.44502">EtchABot</tspan></text>
  <text
     xml:space="preserve"
     style="font-size:7.90987607000000010px;font-style:normal;font-variant:normal;font-weight:normal;font-stretch:normal;text-align:start;line-height:125%;letter-spacing:0px;word-spacing:0px;writing-mode:lr;text-anchor:start;fill:none;fill-opacity:1;stroke:#ff0000;font-family:Segoe Print;-inkscape-font-specification:Segoe Print;stroke-opacity:1;stroke-width:0.02822222;stroke-miterlimit:4;stroke-dasharray:none"
     x="10.822349"
     y="277.15326"
     id="text3058"
     sodipodi:linespacing="125%"
     transform="scale(1.0266698,0.974023)"><tspan
       sodipodi:role="line"
       id="tspan3060"
       x="10.822349"
       y="277.15326">horz</tspan></text>
  <text
     xml:space="preserve"
     style="font-size:7.90987607000000010px;font-style:normal;font-variant:normal;font-weight:normal;font-stretch:normal;text-align:start;line-height:125%;letter-spacing:0px;word-spacing:0px;writing-mode:lr;text-anchor:start;fill:none;fill-opacity:1;stroke:#ff0000;font-family:Segoe Print;-inkscape-font-specification:Segoe Print;stroke-opacity:1;stroke-width:0.02822222;stroke-miterlimit:4;stroke-dasharray:none"
     x="50.389824"
     y="276.69937"
     id="text3058-4"
     sodipodi:linespacing="125%"
     transform="scale(1.0266698,0.974023)"><tspan
       sodipodi:role="line"
       id="tspan3060-0"
       x="50.389824"
       y="276.69937">vert</tspan></text>
  <text
     xml:space="preserve"
     style="font-size:7.90987607000000010px;font-style:normal;font-variant:normal;font-weight:normal;font-stretch:normal;text-align:start;line-height:125%;letter-spacing:0px;word-spacing:0px;writing-mode:lr;text-anchor:start;fill:none;fill-opacity:1;stroke:#ff0000;font-family:Segoe Print;-inkscape-font-specification:Segoe Print;stroke-opacity:1;stroke-width:0.02822222;stroke-miterlimit:4;stroke-dasharray:none"
     x="86.238197"
     y="276.66846"
     id="text3058-4-9"
     sodipodi:linespacing="125%"
     transform="scale(1.0266698,0.974023)"><tspan
       sodipodi:role="line"
       id="tspan3060-0-4"
       x="86.238197"
       y="276.66846">erase</tspan></text>
</svg>
