<?xml version="1.0" encoding="UTF-8" standalone="no"?>
<svg
   xmlns:dc="http://purl.org/dc/elements/1.1/"
   xmlns:cc="http://creativecommons.org/ns#"
   xmlns:rdf="http://www.w3.org/1999/02/22-rdf-syntax-ns#"
   xmlns:svg="http://www.w3.org/2000/svg"
   xmlns="http://www.w3.org/2000/svg"
   xmlns:sodipodi="http://sodipodi.sourceforge.net/DTD/sodipodi-0.dtd"
   xmlns:inkscape="http://www.inkscape.org/namespaces/inkscape"
   width="715.98425"
   height="1106.4125"
   viewBox="0 0 202.06665 312.25418"
   version="1.1"
   id="svg2"
   inkscape:version="0.48.5 r10040"
   sodipodi:docname="PocketEtchABot.svg">
  <metadata
     id="metadata162">
    <rdf:RDF>
      <cc:Work
         rdf:about="">
        <dc:format>image/svg+xml</dc:format>
        <dc:type
           rdf:resource="http://purl.org/dc/dcmitype/StillImage" />
        <dc:title></dc:title>
      </cc:Work>
    </rdf:RDF>
  </metadata>
  <defs
     id="defs160" />
  <sodipodi:namedview
     pagecolor="#ffffff"
     bordercolor="#666666"
     borderopacity="1"
     objecttolerance="10"
     gridtolerance="10"
     guidetolerance="10"
     inkscape:pageopacity="0"
     inkscape:pageshadow="2"
     inkscape:window-width="1267"
     inkscape:window-height="832"
     id="namedview158"
     showgrid="false"
     fit-margin-top="0"
     fit-margin-left="0"
     fit-margin-right="0"
     fit-margin-bottom="0"
     showguides="true"
     inkscape:guide-bbox="true"
     inkscape:zoom="1.1820458"
     inkscape:cx="358.54909"
     inkscape:cy="741.47374"
     inkscape:window-x="0"
     inkscape:window-y="0"
     inkscape:window-maximized="0"
     inkscape:current-layer="svg2" />
  <desc
     id="desc4">Output from Flights of Ideas SVG Sketchup Plugin</desc>
  <path
     id="face0-cut"
     style="fill:none;stroke:#000000;stroke-width:0.02822222;stroke-linecap:round;stroke-linejoin:round;stroke-miterlimit:4;stroke-dasharray:none;stroke-opacity:1"
     d="m 144.76633,167.31102 1.58919,2.07107 2.07107,1.58918 2.41181,0.99901 2.58819,0.34074 2.58819,-0.34074 2.41181,-0.99901 2.07106,-1.58918 1.58919,-2.07107 0.999,-2.41181 0.34075,-2.58819 -0.34075,-2.58819 -0.999,-2.41181 -1.58919,-2.07107 -2.07106,-1.58918 -2.41181,-0.99901 -2.58819,-0.34074 -2.58819,0.34074 -2.41181,0.99901 -2.07107,1.58918 -1.58919,2.07107 -0.999,2.41181 -0.34074,2.58819 0.34074,2.58819 0.999,2.41181 m 3.9459,-5.8 0.15984,0.38589 0.0545,0.41411 -0.0545,0.41411 -0.15984,0.38589 -0.25427,0.33137 -0.33137,0.25427 -0.38589,0.15984 -0.41411,0.0545 -0.41411,-0.0545 -0.38589,-0.15984 -0.33137,-0.25427 -0.25427,-0.33137 -0.15984,-0.38589 -0.0545,-0.41411 0.0545,-0.41411 0.15984,-0.38589 0.25427,-0.33137 0.33137,-0.25427 0.38589,-0.15984 0.41411,-0.0545 0.41411,0.0545 0.38589,0.15984 0.33137,0.25427 0.25427,0.33137 m 11.22847,2.34548 -0.41411,0.0545 -0.41411,-0.0545 -0.38589,-0.15984 -0.33138,-0.25427 -0.25427,-0.33137 -0.15984,-0.38589 -0.0545,-0.41411 0.0545,-0.41411 0.15984,-0.38589 0.25427,-0.33137 0.33138,-0.25427 0.38589,-0.15984 0.41411,-0.0545 0.41411,0.0545 0.38589,0.15984 0.33137,0.25427 0.25427,0.33137 0.15984,0.38589 0.0545,0.41411 -0.0545,0.41411 -0.15984,0.38589 -0.25427,0.33137 -0.33137,0.25427 -0.38589,0.15984 m -5.26411,-3.71054 0.25,0.19183 0,3.94646 -0.25,0.19183 -0.60296,0.24975 -0.64704,0.0852 -0.64705,-0.0852 -0.60295,-0.24975 -0.25,-0.19183 0,-1.97323 0,-1.97323 0.25,-0.19183 0.60295,-0.24975 0.64705,-0.0852 0.64704,0.0852 0.60296,0.24975"
     inkscape:connector-curvature="0" />
  <path
     id="face1-cut"
     style="fill:none;stroke:#000000;stroke-width:0.02822222;stroke-linecap:round;stroke-linejoin:round;stroke-miterlimit:4;stroke-dasharray:none;stroke-opacity:1"
     d="m 144.62386,191.15545 1.58919,2.07107 2.07106,1.58918 2.41181,0.99901 2.58819,0.34074 2.58819,-0.34074 2.41182,-0.99901 2.07107,-1.58918 1.58919,-2.07107 0.999,-2.41181 0.34074,-2.58819 -0.34074,-2.58819 -0.999,-2.41181 -1.58919,-2.07107 -2.07107,-1.58919 -2.41182,-0.999 -2.58819,-0.34074 -2.58819,0.34074 -2.41181,0.999 -2.07106,1.58919 -1.58919,2.07107 -0.999,2.41181 -0.34075,2.58819 0.34075,2.58819 0.999,2.41181 m 3.94589,-5.8 0.15984,0.38589 0.0545,0.41411 -0.0545,0.41411 -0.15984,0.38589 -0.25427,0.33137 -0.33137,0.25427 -0.38589,0.15984 -0.41411,0.0545 -0.41411,-0.0545 -0.38589,-0.15984 -0.33137,-0.25427 -0.25427,-0.33137 -0.15984,-0.38589 -0.0545,-0.41411 0.0545,-0.41411 0.15984,-0.38589 0.25427,-0.33137 0.33137,-0.25427 0.38589,-0.15984 0.41411,-0.0545 0.41411,0.0545 0.38589,0.15984 0.33137,0.25427 0.25427,0.33137 m 11.22848,2.34548 -0.41411,0.0545 -0.41411,-0.0545 -0.38589,-0.15984 -0.33137,-0.25427 -0.25427,-0.33137 -0.15985,-0.38589 -0.0545,-0.41411 0.0545,-0.41411 0.15985,-0.38589 0.25427,-0.33137 0.33137,-0.25427 0.38589,-0.15984 0.41411,-0.0545 0.41411,0.0545 0.38589,0.15984 0.33137,0.25427 0.25427,0.33137 0.15984,0.38589 0.0545,0.41411 -0.0545,0.41411 -0.15984,0.38589 -0.25427,0.33137 -0.33137,0.25427 -0.38589,0.15984 m -5.26412,-3.71055 0.25,0.19183 0,3.94647 -0.25,0.19183 -0.60295,0.24975 -0.64705,0.0852 -0.64704,-0.0852 -0.60296,-0.24975 -0.25,-0.19183 0,-1.97323 0,-1.97324 0.25,-0.19183 0.60296,-0.24975 0.64704,-0.0852 0.64705,0.0852 0.60295,0.24975"
     inkscape:connector-curvature="0" />
  <path
     id="face3-cut"
     style="fill:none;stroke:#000000;stroke-width:0.02822222;stroke-linecap:round;stroke-linejoin:round;stroke-miterlimit:4;stroke-dasharray:none;stroke-opacity:1"
     d="m 137.57758,243.86802 0,64.7 9,0 0.0274,0.41768 0.0817,0.41054 0.13455,0.39637 0.18513,0.37541 0.23255,0.34804 0.27599,0.3147 0.3147,0.27599 0.34804,0.23255 0.37541,0.18513 0.39637,0.13455 0.41054,0.0817 0.41768,0.0273 3.6,0 0.41768,-0.0274 0.41054,-0.0817 0.39636,-0.13455 0.37543,-0.18513 0.34802,-0.23256 0.31471,-0.27598 0.27599,-0.3147 0.23255,-0.34805 0.18513,-0.37541 0.13455,-0.39637 0.0817,-0.41054 0.0274,-0.41762 7.8,0 0,-3.2 5.05001,0 0,3.2 7.8,0 0.0274,0.41768 0.0817,0.41055 0.13455,0.39637 0.18513,0.3754 0.23255,0.34805 0.27599,0.3147 0.31471,0.27599 0.34803,0.23255 0.37542,0.18513 0.39636,0.13455 0.41054,0.0817 0.41768,0.0274 3.6,0 0.41769,-0.0274 0.41053,-0.0817 0.39637,-0.13455 0.3754,-0.18513 0.34805,-0.23255 0.31471,-0.27599 0.27598,-0.3147 0.23254,-0.34805 0.18515,-0.3754 0.13454,-0.39637 0.0817,-0.41055 0.0274,-0.41768 3,0 0,-15 -0.0428,-0.65263 -0.1276,-0.64147 -0.21022,-0.61932 -0.28927,-0.58658 -0.36337,-0.54381 -0.43123,-0.49172 -0.49173,-0.43124 -0.54379,-0.36336 -0.58659,-0.28927 -0.61932,-0.21023 -0.64147,-0.12759 -0.65262,-0.0428 -1.65,0 -0.65263,-0.0428 -0.64147,-0.12759 -0.61932,-0.21023 -0.58658,-0.28927 -0.54381,-0.36336 -0.49173,-0.43124 -0.43124,-0.49172 -0.36336,-0.54381 -0.28926,-0.58658 -0.21024,-0.61932 -0.12759,-0.64147 -0.0428,-0.65263 0,-26.5 -0.0428,-0.65263 -0.12759,-0.64147 -0.21024,-0.61932 -0.28926,-0.58658 -0.36336,-0.54381 -0.43124,-0.49172 -0.49172,-0.43124 -0.54381,-0.36336 -0.58659,-0.28927 -0.61932,-0.21023 -0.64147,-0.12759 -0.65263,-0.0428 -10,0 0,-3.2 -0.0428,-0.65263 -0.12759,-0.64147 -0.21023,-0.61932 -0.28927,-0.58658 -0.36336,-0.54381 -0.43124,-0.49172 -0.49172,-0.43124 -0.54381,-0.36336 -0.58658,-0.28927 -0.61932,-0.21023 -0.64147,-0.12759 -0.65263,-0.0428 -21,0 m 30.2,35.68564 -0.33137,-0.25427 -0.25427,-0.33137 -0.15984,-0.38589 -0.0545,-0.41411 0.0545,-0.41411 0.15984,-0.38589 0.25427,-0.33137 0.33137,-0.25427 0.38589,-0.15984 0.41411,-0.0545 0.41411,0.0545 0.38589,0.15984 0.33137,0.25427 0.25427,0.33137 0.15984,0.38589 0.0545,0.41413 -0.0545,0.41411 -0.15984,0.38589 -0.25427,0.33137 -0.33137,0.25427 -0.38589,0.15984 -0.41411,0.0545 -0.41411,-0.0545 -0.38589,-0.15984 m 1.6,-14.97128 0.33137,0.25427 0.25427,0.33137 0.15984,0.38589 0.0545,0.41411 -0.0545,0.41411 -0.15984,0.38589 -0.25427,0.33137 -0.33137,0.25427 -0.38589,0.15984 -0.41411,0.0545 -0.41411,-0.0545 -0.38589,-0.15984 -0.33137,-0.25427 -0.25427,-0.33137 -0.15984,-0.38589 -0.0545,-0.41411 0.0545,-0.41411 0.15984,-0.38589 0.25427,-0.33137 0.33137,-0.25427 0.38589,-0.15984 0.41411,-0.0545 0.41411,0.0545 0.38589,0.15984 m -2.35563,5.93001 0.42426,-0.32555 0.0314,-0.0241 0.5306,-0.21978 0.5694,-0.0749 0.5694,0.075 0.5306,0.21978 0.45564,0.34963 0.34962,0.45563 0.21978,0.5306 0.075,0.56936 -0.075,0.5694 -0.21978,0.5306 -0.34962,0.45563 -0.45564,0.34963 -0.5306,0.21978 -0.5694,0.075 -0.5694,-0.075 -0.5306,-0.21978 -0.0314,-0.0241 -0.42426,-0.32555 -0.34962,-0.45563 -0.21978,-0.5306 -0.075,-0.5694 0.075,-0.5694 0.21978,-0.5306 0.34962,-0.45563 m 16.337,37.587 -0.33136,0.25427 -0.38589,0.15984 -0.41411,0.0545 -0.41411,-0.0545 -0.38589,-0.15984 -0.33137,-0.25427 -0.25427,-0.33137 -0.15984,-0.38589 -0.0545,-0.41411 0.0545,-0.41411 0.15984,-0.38589 0.25427,-0.33137 0.33137,-0.25427 0.38589,-0.15984 0.41411,-0.0545 0.41411,0.0545 0.38589,0.15984 0.33137,0.25427 0.25427,0.33137 0.15984,0.38589 0.0545,0.41411 -0.0545,0.41411 -0.15984,0.38589 -0.25427,0.33137 m -32.19548,-2.67685 0.41411,-0.0545 0.41411,0.0545 0.38589,0.15984 0.33137,0.25427 0.25427,0.33137 0.15984,0.38589 0.0545,0.41413 -0.0545,0.41411 -0.15984,0.38589 -0.25427,0.33137 -0.33137,0.25427 -0.38589,0.15984 -0.41411,0.0545 -0.41411,-0.0545 -0.38589,-0.15984 -0.33137,-0.25427 -0.25427,-0.33137 -0.15984,-0.38589 -0.0545,-0.41411 0.0545,-0.41411 0.15984,-0.38589 0.25427,-0.33137 0.33137,-0.25427 0.38589,-0.15984 m 5.79425,-3.95452 0,-6 3.2,0 0,6 -3.2,0 m 0,-10.5 0,-6 3.2,0 0,6 -3.2,0 m -5.38014,-42.1 0.41411,0.0545 0.38589,0.15984 0.33137,0.25427 0.25427,0.33137 0.15984,0.38589 0.0545,0.41413 -0.0545,0.41411 -0.15984,0.38589 -0.25427,0.33137 -0.33137,0.25427 -0.38589,0.15984 -0.41411,0.0545 -0.41411,-0.0545 -0.38589,-0.15984 -0.33137,-0.25427 -0.25427,-0.33137 -0.15984,-0.38589 -0.0545,-0.41411 0.0545,-0.41411 0.15984,-0.38589 0.25427,-0.33137 0.33137,-0.25427 0.38589,-0.15984 0.41411,-0.0545 m -10,0 5,0 0,3.2 -5,0 0,-3.2"
     inkscape:connector-curvature="0" />
  <path
     id="face4-cut"
     style="fill:none;stroke:#000000;stroke-width:0.02822222;stroke-linecap:round;stroke-linejoin:round;stroke-miterlimit:4;stroke-dasharray:none;stroke-opacity:1"
     d="m 23.136381,1.0745332 -10,0 -1.305262,0.0855 -1.282928,0.25519 -1.2386446,0.42046 -1.173166,0.5786 -1.0876139,0.72672 -0.983454,0.86246 -0.862465,0.98346 -0.726721,1.08761 -0.578541,1.17317 -0.420463,1.23864 -0.255191,1.28293 -0.085551,1.3052598 0,10.1 10.0000005,0 0,3 -10.0000005,0 0,146.999997 10.0000005,0 0,3 -10.0000005,0 0,10.1 0.08555,1.30526 0.255191,1.28293 0.420463,1.23864 0.578541,1.17317 0.726721,1.08761 0.862465,0.98346 0.983454,0.86246 1.0876139,0.72672 1.173166,0.57855 1.2386446,0.42046 1.282928,0.25519 1.305263,0.0856 10,0 0,-193.1999968"
     inkscape:connector-curvature="0" />
  <path
     id="face5-cut"
     style="fill:none;stroke:#000000;stroke-width:0.02822222;stroke-linecap:round;stroke-linejoin:round;stroke-miterlimit:4;stroke-dasharray:none;stroke-opacity:1"
     d="m 133.20835,188.32131 0,-35 3.2,0 0,-5 -3.2,0 0,-41.7 3.2,0 0,-5 -3.2,0 0,-34.999997 -4,0 0,-3.2 -6,0 0,3.2 -4.5,0 0,-3.2 -6,0 0,3.2 -4,0 0,121.699997 4,0 0,3.2 6,0 0,-3.2 4.5,0 0,3.2 6,0 0,-3.2 4,0"
     inkscape:connector-curvature="0" />
  <path
     id="face6-cut"
     style="fill:none;stroke:#000000;stroke-width:0.02822222;stroke-linecap:round;stroke-linejoin:round;stroke-miterlimit:4;stroke-opacity:1;stroke-dasharray:none"
     d="m 193.96855,73.986275 -1.17925,-0.34171 -2.48466,-0.32711 -2.31534,-0.95905 -1.98823,-1.52561 -1.52561,-1.98823 -0.95905,-2.31534 -0.32711,-2.48466 0.32711,-2.48466 0.95905,-2.31534 1.52561,-1.98822 1.98823,-1.52562 2.31534,-0.95905 2.48466,-0.32711 0.43141,0 0.78089,-0.19238 0.65263,-0.0428 0.1926,-0.0383 0.44886,-0.0893 0.61932,-0.21024 0.58659,-0.28927 0.5438,-0.36336 0.49173,-0.43123 0.43123,-0.49173 0.36336,-0.5438 0.28927,-0.58659 0.21023,-0.61932 0.1276,-0.64146 0.0428,-0.65263 0,-7.71023 -0.0428,-0.65263 -0.1276,-0.64146 -0.21023,-0.61932 -0.28927,-0.58659 -0.36336,-0.5438 -0.43123,-0.49173 -0.49173,-0.43123 -0.5438,-0.36336 -0.58659,-0.28928 -0.61932,-0.21023 -0.64146,-0.12759 -0.65263,-0.0428 -3,0 0,3.2 -10.5,0 0,5.2 1.6,0 0,2.8 -1.4,0 0,3 -3.2,0 0,-3 -1.4,0 0,-2.8 1.4,0 0,-5.2 -3.5,0 0,-3.2 -5,0 0,128.091395 5,0 0,-3.2 3.5,0 0,-5.2 -1.4,0 0,-2.8 1.4,0 0,-3 3.2,0 0,3 1.4,0 0,2.8 -1.4,0 0,5.2 10.3,0 0,3.2 3,0 0.65263,-0.0428 0.64146,-0.1276 0.61932,-0.21023 0.58659,-0.28927 0.5438,-0.36336 0.49173,-0.43124 0.43123,-0.49172 0.36336,-0.54381 0.28927,-0.58658 0.21023,-0.61932 0.1276,-0.64147 0.0428,-0.65263 0,-7.77157 -0.0428,-0.65263 -0.1276,-0.64147 -0.21023,-0.61932 -0.28927,-0.58658 -0.36336,-0.54381 -0.43123,-0.49172 -0.49173,-0.43124 -0.5438,-0.36336 -0.58659,-0.28927 -0.61932,-0.21023 -0.22979,-0.0457 -1.0643,-0.12466 -0.8122,-0.0951 -0.12385,-0.0145 -0.19835,-0.0789 -0.0779,-0.0377 -2.48466,-0.32711 -2.31534,-0.95905 -1.98823,-1.52562 -1.52561,-1.98822 -0.95905,-2.31534 -0.32711,-2.48466 0.32711,-2.48466 0.95905,-2.31534 1.52561,-1.98823 1.98823,-1.52562 2.31534,-0.95904 3.69696,-0.50438 1.29409,-0.17038 0.0767,-0.0301 0.54266,-0.18016 0.58659,-0.28927 0.5438,-0.36336 0.49173,-0.43123 0.43123,-0.49173 0.36336,-0.5438 0.28927,-0.58658 0.21023,-0.61932 0.1276,-0.64146 0.0428,-0.65263 0,-5.2 -0.0426,-0.65039 -0.12716,-0.63925 -0.20951,-0.61719 -0.28827,-0.58456 -0.36211,-0.54194 -0.42975,-0.49003 -0.49003,-0.42975 -0.54193,-0.36211 -0.58457,-0.28827 -0.61718,-0.20951 -0.63926,-0.12715 -0.65038,-0.0426 -0.65488,-0.0429 -0.64367,-0.12804 -0.62146,-0.21096 -0.5886,-0.29026 -0.54568,-0.36461 -0.49342,-0.43272 -0.43272,-0.49342 -0.36461,-0.54568 -0.29027,-0.58861 -0.21096,-0.62145 -0.12803,-0.64368 -0.0429,-0.65488 0.034,-5.22299 4.8e-4,-7.631249 0.0428,-0.65263 0.12759,-0.64146 0.21023,-0.61932 0.28928,-0.58659 0.36336,-0.5438 0.43123,-0.49173 0.49173,-0.43123 0.5438,-0.36336 0.58659,-0.28927 0.61932,-0.21024 0.64146,-0.12759 0.63541,-0.0428 0.65038,-0.0426 0.63926,-0.12716 0.61719,-0.2095 0.58456,-0.28828 0.54193,-0.36211 0.49004,-0.42974 0.42974,-0.49004 0.36211,-0.54193 0.28828,-0.58456 0.2095,-0.61719 0.12716,-0.63926 0.0426,-0.65038 0,-5.235176 -0.0428,-0.65225 -0.12752,-0.64109 -0.21011,-0.61897 -0.2891,-0.58624 -0.36315,-0.54349 -0.43098,-0.49144 -0.49144,-0.43099 -0.5435,-0.36315 -0.58624,-0.2891 -0.61896,-0.21011 -0.6411,-0.12752 -0.65225,-0.0483 -0.0359,0.003 m -4.00129,-26.03515 -0.4788,-0.0649 -0.44569,-0.18658 -0.38222,-0.29558 -0.29269,-0.38443 -0.18322,-0.44708 -0.0613,-0.47928 0.0649,-0.47879 0.18658,-0.4457 0.29558,-0.38222 0.38443,-0.29269 0.44708,-0.18322 0.47927,-0.0613 0.4788,0.0649 0.4457,0.18658 0.38221,0.29558 0.29269,0.38443 0.18322,0.44709 0.0613,0.47927 -0.0649,0.4788 -0.18658,0.44569 -0.29558,0.38222 -0.38443,0.29269 -0.44709,0.18322 -0.47927,0.0613 m -0.97083,35.262626 -0.38221,-0.29558 -0.29269,-0.38443 -0.18322,-0.44709 -0.0613,-0.47927 0.0649,-0.478796 0.18658,-0.44569 0.29558,-0.38222 0.38443,-0.29269 0.44709,-0.18322 0.47927,-0.0613 0.4788,0.0649 0.44569,0.18658 0.38222,0.29558 0.29269,0.38443 0.18322,0.44709 0.0613,0.479266 -0.0649,0.4788 -0.18658,0.44569 -0.29557,0.38222 -0.38444,0.29269 -0.44708,0.18322 -0.47927,0.0613 -0.4788,-0.0649 -0.4457,-0.18658 m 0.10214,37.948809 -0.37442,-0.28955 -0.28673,-0.37659 -0.17948,-0.43797 -0.06,-0.4695 0.0635,-0.46904 0.18278,-0.43661 0.28955,-0.37442 0.37659,-0.28673 0.43798,-0.17948 0.4695,-0.06 0.46903,0.0635 0.43661,0.18278 0.37442,0.28955 0.28673,0.37659 0.17948,0.43798 0.06,0.4695 -0.0635,0.46903 -0.18278,0.43661 -0.28955,0.37443 -0.37659,0.28672 -0.43797,0.17948 -0.4695,0.06 -0.46904,-0.0636 -0.43661,-0.18278 m -0.87617,33.40157 0.18658,-0.4457 0.29558,-0.38221 0.38443,-0.29269 0.44709,-0.18323 0.47927,-0.0613 0.4788,0.0649 0.44569,0.18658 0.38222,0.29558 0.29269,0.38443 0.18322,0.44709 0.0613,0.47927 -0.0649,0.4788 -0.18658,0.44569 -0.29557,0.38222 -0.38443,0.29269 -0.44709,0.18322 -0.47927,0.0613 -0.4788,-0.0649 -0.44569,-0.18658 -0.38222,-0.29558 -0.29269,-0.38443 -0.18322,-0.44708 -0.0613,-0.47928 0.0649,-0.47879"
     inkscape:connector-curvature="0" />
  <path
     id="face7-cut"
     style="fill:none;stroke:#000000;stroke-width:0.02822222;stroke-linecap:round;stroke-linejoin:round;stroke-miterlimit:4;stroke-dasharray:none;stroke-opacity:1"
     d="m 27.928577,0.50295323 10,0 1.305262,0.0855 1.282928,0.25519 1.238644,0.42045997 1.173166,0.57854 1.087614,0.72672 0.983453,0.86247 0.862466,0.98345 0.726721,1.08762 0.578541,1.17316 0.420463,1.23865 0.25519,1.28292 0.08555,1.3052698 0,10.1 -10,0 0,3 10,0 0,146.999997 -10,0 0,3 10,0 0,10.1 -0.08555,1.30526 -0.25519,1.28293 -0.420463,1.23864 -0.578541,1.17317 -0.726721,1.08761 -0.862466,0.98345 -0.983453,0.86247 -1.087614,0.72672 -1.173166,0.57854 -1.238644,0.42046 -1.282928,0.25519 -1.305262,0.0856 -10,0 0,-193.19999677"
     inkscape:connector-curvature="0" />
  <path
     id="face26-cut"
     style="fill:none;stroke:#000000;stroke-width:0.02822222;stroke-linecap:round;stroke-linejoin:round;stroke-miterlimit:4;stroke-dasharray:none;stroke-opacity:1"
     d="m 144.02326,142.67925 1.58919,2.07106 2.07107,1.58919 2.41181,0.999 2.58819,0.34075 2.58819,-0.34075 2.41181,-0.999 2.07106,-1.58919 1.58919,-2.07106 0.99901,-2.41181 0.34074,-2.58819 -0.34074,-2.58819 -0.99901,-2.41181 -1.58919,-2.07107 -2.07106,-1.58919 -2.41181,-0.999 -2.58819,-0.34074 -2.58819,0.34074 -2.41181,0.999 -2.07107,1.58919 -1.58919,2.07107 -0.999,2.41181 -0.34074,2.58819 0.34074,2.58819 0.999,2.41181 m 8.66026,-7.2 0.5694,0.075 0.5306,0.21978 0.45563,0.34962 0.34962,0.45564 0.21978,0.53059 0.075,0.56941 -0.075,0.5694 -0.21978,0.5306 -0.34962,0.45563 -0.45563,0.34962 -0.5306,0.21978 -0.5694,0.075 -0.5694,-0.075 -0.5306,-0.21978 -0.45564,-0.34962 -0.34962,-0.45563 -0.21978,-0.5306 -0.075,-0.5694 0.075,-0.56941 0.21978,-0.53059 0.34962,-0.45564 0.45564,-0.34962 0.5306,-0.21978 0.5694,-0.075 m -4.71436,1.4 0.15984,0.38589 0.0545,0.41411 -0.0545,0.41411 -0.15984,0.38589 -0.25427,0.33137 -0.33137,0.25427 -0.38589,0.15984 -0.41411,0.0545 -0.41411,-0.0545 -0.38589,-0.15984 -0.33137,-0.25427 -0.25427,-0.33137 -0.15984,-0.38589 -0.0545,-0.41411 0.0545,-0.41411 0.15984,-0.38589 0.25427,-0.33137 0.33137,-0.25427 0.38589,-0.15984 0.41411,-0.0545 0.41411,0.0545 0.38589,0.15984 0.33137,0.25427 0.25427,0.33137 m 11.22847,2.34548 -0.41411,0.0545 -0.41411,-0.0545 -0.38589,-0.15984 -0.33137,-0.25427 -0.25427,-0.33137 -0.15984,-0.38589 -0.0545,-0.41411 0.0545,-0.41411 0.15984,-0.38589 0.25427,-0.33137 0.33137,-0.25427 0.38589,-0.15984 0.41411,-0.0545 0.41411,0.0545 0.38589,0.15984 0.33137,0.25427 0.25427,0.33137 0.15984,0.38589 0.0545,0.41411 -0.0545,0.41411 -0.15984,0.38589 -0.25427,0.33137 -0.33137,0.25427 -0.38589,0.15984"
     inkscape:connector-curvature="0" />
  <path
     id="face33-cut"
     style="fill:none;stroke:#000000;stroke-width:0.02822222;stroke-linecap:round;stroke-linejoin:round;stroke-miterlimit:4;stroke-dasharray:none;stroke-opacity:1"
     d="m 172.49535,11.121129 0,10 3,0 0,-10 20.1,0 0,10 -0.0856,1.30527 -0.25519,1.28293 -0.42046,1.23864 -0.57854,1.17316 -0.72672,1.08762 -0.86247,0.98345 -0.98345,0.86247 -1.08761,0.72672 -1.17317,0.57854 -1.23864,0.42046 -1.28293,0.25519 -1.30526,0.0856 -20,0 0,62.200002 -0.0513,0.78315 -0.15312,0.76976 -0.25228,0.74319 -0.34712,0.70389 -0.43603,0.65257 -0.51748,0.59007 -0.59008,0.51748 -0.65256,0.43603 -0.7039,0.34713 -0.74319,0.25228 -0.76976,0.15311 -0.78315,0.0513 -8,0 -0.78316,-0.0513 -0.76976,-0.15311 -0.74318,-0.25228 -0.7039,-0.34713 -0.65257,-0.43603 -0.59007,-0.51748 -0.51748,-0.59007 -0.43604,-0.65257 -0.34712,-0.70389 -0.25228,-0.74319 -0.15311,-0.76976 -0.0513,-0.78315 0,-62.200002 -20,0 -1.30527,-0.0856 -1.28292,-0.25519 -1.23865,-0.42046 -1.17316,-0.57854 -1.08762,-0.72672 -0.98345,-0.86247 -0.86247,-0.98345 -0.72672,-1.08762 -0.57854,-1.17316 -0.42046,-1.23864 -0.25519,-1.28293 -0.0856,-1.30527 0,-10 20.1,0 0,10 3,0 0,-10 33.8,0 m -18.83186,78.682362 -0.0681,0.51764 0.0681,0.51763 0.19981,0.48237 0.31783,0.41421 0.41422,0.31784 0.48236,0.1998 0.51764,0.0681 0.51763,-0.0681 0.48237,-0.1998 0.41421,-0.31784 0.31784,-0.41421 0.1998,-0.48237 0.0681,-0.51763 -0.0681,-0.51764 -0.1998,-0.48236 -0.31784,-0.41422 -0.41421,-0.31783 -0.48237,-0.1998 -0.51763,-0.0682 -0.51764,0.0682 -0.48236,0.1998 -0.41422,0.31783 -0.31783,0.41422 -0.19981,0.48236"
     inkscape:connector-curvature="0" />
  <path
     id="face34-cut"
     style="fill:none;stroke:#000000;stroke-width:0.02822222;stroke-linecap:round;stroke-linejoin:round;stroke-miterlimit:4;stroke-dasharray:none;stroke-opacity:1"
     d="m 188.83379,240.80435 0,-3 10,0 0,-33.8 -10,0 0,-3 10,0 0,-20.1 -10,0 -1.30526,0.0856 -1.28293,0.25519 -1.23865,0.42046 -1.17316,0.57854 -1.08762,0.72673 -0.98345,0.86246 -0.86247,0.98345 -0.72672,1.08762 -0.57854,1.17316 -0.42046,1.23865 -0.25519,1.28293 -0.0856,1.30526 0,20 -43.20001,0 0,-11 -0.0428,-0.65263 -0.12759,-0.64147 -0.21023,-0.61932 -0.28927,-0.58658 -0.36336,-0.54381 -0.43124,-0.49173 -0.49172,-0.43123 -0.54381,-0.36336 -0.58658,-0.28927 -0.61933,-0.21023 -0.64146,-0.1276 -0.65263,-0.0428 -5,0 -0.65263,0.0428 -0.64147,0.1276 -0.61932,0.21023 -0.58658,0.28927 -0.54381,0.36336 -0.49172,0.43123 -0.43124,0.49173 -0.36336,0.54381 -0.28927,0.58658 -0.21023,0.61932 -0.1276,0.64147 -0.0428,0.65263 0,9.38399 0.18917,0.0249 2.89417,1.1988 2.48528,1.90703 1.90702,2.48528 1.19881,2.89417 0.40889,3.10583 -0.40889,3.10583 -1.19881,2.89417 -1.90702,2.48528 -2.48528,1.90702 -2.89417,1.19881 -0.18917,0.0249 0,9.38399 0.21615,0.80369 0.31903,0.76868 0.41646,0.72056 0.5068,0.66015 0.58849,0.58849 0.66015,0.50679 0.72055,0.41646 0.76868,0.31903 0.80369,0.21615 5,0 0.65264,-0.0428 0.64146,-0.12759 0.61932,-0.21023 0.58658,-0.28927 0.54381,-0.36336 0.49173,-0.43124 0.43123,-0.49172 0.36336,-0.54381 0.28927,-0.58658 0.21023,-0.61933 0.1276,-0.64146 0.0428,-0.65263 0,-11 43.2,0 0,20 0.0856,1.30526 0.25519,1.28293 0.42047,1.23864 0.57854,1.17317 0.72672,1.08761 0.86246,0.98346 0.98346,0.86246 1.08761,0.72672 1.17317,0.57854 1.23864,0.42047 1.28293,0.25519 1.30526,0.0855 10,0 0,-20.1 -10,0 m -62.8335,-37.91764 0.1998,-0.48236 0.31784,-0.41421 0.41421,-0.31784 0.48237,-0.1998 0.51763,-0.0682 0.51764,0.0682 0.48236,0.1998 0.41422,0.31784 0.31783,0.41421 0.19981,0.48236 0.0682,0.51764 -0.0682,0.51764 -0.19981,0.48236 -0.31783,0.41421 -0.41422,0.31784 -0.48236,0.1998 -0.51764,0.0681 -0.51763,-0.0681 -0.48237,-0.1998 -0.41421,-0.31784 -0.31784,-0.41421 -0.1998,-0.48236 -0.0682,-0.51764 0.0682,-0.51764 m 0.71928,36.93185 -0.31783,-0.41421 -0.1998,-0.48236 -0.0682,-0.51764 0.0682,-0.51764 0.1998,-0.48236 0.31783,-0.41421 0.41422,-0.31784 0.48236,-0.1998 0.51764,-0.0682 0.51764,0.0682 0.48236,0.1998 0.41421,0.31784 0.31784,0.41421 0.1998,0.48236 0.0682,0.51764 -0.0682,0.51764 -0.1998,0.48236 -0.31784,0.41421 -0.41421,0.31784 -0.48236,0.1998 -0.51764,0.0681 -0.51764,-0.0681 -0.48236,-0.1998 -0.41422,-0.31784"
     inkscape:connector-curvature="0" />
  <path
     id="face35-cut"
     style="fill:none;stroke:#000000;stroke-width:0.02822222;stroke-linecap:round;stroke-linejoin:round;stroke-miterlimit:4;stroke-dasharray:none;stroke-opacity:1"
     d="m 0.50069149,203.14271 0,102 0.03422,0.52211 0.102076,0.51317 0.168185,0.49546 0.23141601,0.46926 0.290689,0.43505 0.344986,0.39338 0.393381,0.34499 0.435046,0.29069 0.469266,0.23141 0.495458,0.16819 0.513171,0.10207 0.522105,0.0342 108.5000095,0 0.52211,-0.0342 0.51317,-0.10207 0.49545,-0.16819 0.46927,-0.23141 0.43505,-0.29069 0.39338,-0.34499 0.34498,-0.39338 0.29069,-0.43505 0.23142,-0.46926 0.16818,-0.49546 0.10208,-0.51317 0.0342,-0.52211 0,-102 -0.0342,-0.5221 -0.10208,-0.51317 -0.16818,-0.49546 -0.23142,-0.46927 -0.29069,-0.43504 -0.34498,-0.39338 -0.39338,-0.34499 -0.43505,-0.29069 -0.46927,-0.23141 -0.49545,-0.16819 -0.51317,-0.10208 -0.52211,-0.0342 -108.5000095,0 -0.522105,0.0342 -0.513171,0.10208 -0.495458,0.16819 -0.469266,0.23141 -0.435046,0.29069 -0.393381,0.34499 -0.344986,0.39338 -0.290689,0.43504 -0.23141601,0.46927 -0.168185,0.49546 -0.102076,0.51317 -0.03422,0.5221 m 84.18750151,69.59271 0.391919,-0.16234 0.420581,-0.0554 0.420578,0.0554 0.39192,0.16234 0.33655,0.25824 0.25824,0.33655 0.16234,0.39192 0.0554,0.42058 -0.0554,0.42058 -0.16234,0.39192 -0.25824,0.33655 -0.33655,0.25824 -0.39192,0.16234 -0.420578,0.0554 -0.420581,-0.0554 -0.391919,-0.16234 -0.336548,-0.25824 -0.258243,-0.33655 -0.162338,-0.39192 -0.05537,-0.42058 0.05537,-0.42058 0.162338,-0.39192 0.258243,-0.33655 0.336548,-0.25824 m 26.500007,0 0.39192,-0.16234 0.42058,-0.0554 0.42058,0.0554 0.39192,0.16234 0.33655,0.25824 0.25824,0.33655 0.16234,0.39192 0.0554,0.42058 -0.0554,0.42058 -0.16234,0.39192 -0.25824,0.33655 -0.33655,0.25824 -0.39192,0.16234 -0.42058,0.0554 -0.42058,-0.0554 -0.39192,-0.16234 -0.33655,-0.25824 -0.25824,-0.33655 -0.16234,-0.39192 -0.0554,-0.42058 0.0554,-0.42058 0.16234,-0.39192 0.25824,-0.33655 0.33655,-0.25824 m 0,29.5 0.39192,-0.16234 0.42058,-0.0554 0.42058,0.0554 0.39192,0.16234 0.33655,0.25824 0.25824,0.33655 0.16234,0.39192 0.0554,0.42058 -0.0554,0.42058 -0.16234,0.39192 -0.25824,0.33655 -0.33655,0.25824 -0.39192,0.16234 -0.42058,0.0554 -0.42058,-0.0554 -0.39192,-0.16234 -0.33655,-0.25824 -0.25824,-0.33655 -0.16234,-0.39192 -0.0554,-0.42058 0.0554,-0.42058 0.16234,-0.39192 0.25824,-0.33655 0.33655,-0.25824 m -26.500007,0 0.391919,-0.16234 0.420581,-0.0554 0.420578,0.0554 0.39192,0.16234 0.33655,0.25824 0.25824,0.33655 0.16234,0.39192 0.0554,0.42058 -0.0554,0.42058 -0.16234,0.39192 -0.25824,0.33655 -0.33655,0.25824 -0.39192,0.16234 -0.420578,0.0554 -0.420581,-0.0554 -0.391919,-0.16234 -0.336548,-0.25824 -0.258243,-0.33655 -0.162338,-0.39192 -0.05537,-0.42058 0.05537,-0.42058 0.162338,-0.39192 0.258243,-0.33655 0.336548,-0.25824 m -13.5,-29.5 0.391919,-0.16234 0.420581,-0.0554 0.420581,0.0554 0.391919,0.16234 0.336549,0.25824 0.258242,0.33655 0.162339,0.39192 0.05537,0.42058 -0.05537,0.42058 -0.162339,0.39192 -0.258242,0.33655 -0.336549,0.25824 -0.391919,0.16234 -0.420581,0.0554 -0.420581,-0.0554 -0.391919,-0.16234 -0.336548,-0.25824 -0.258243,-0.33655 -0.162338,-0.39192 -0.05537,-0.42058 0.05537,-0.42058 0.162338,-0.39192 0.258243,-0.33655 0.336548,-0.25824 m -26.5,0 0.391919,-0.16234 0.420581,-0.0554 0.420581,0.0554 0.391919,0.16234 0.336549,0.25824 0.258242,0.33655 0.162339,0.39192 0.05537,0.42058 -0.05537,0.42058 -0.162339,0.39192 -0.258242,0.33655 -0.336549,0.25824 -0.391919,0.16234 -0.420581,0.0554 -0.420581,-0.0554 -0.391919,-0.16234 -0.336548,-0.25824 -0.258243,-0.33655 -0.162338,-0.39192 -0.05537,-0.42058 0.05537,-0.42058 0.162338,-0.39192 0.258243,-0.33655 0.336548,-0.25824 m 0,29.5 0.391919,-0.16234 0.420581,-0.0554 0.420581,0.0554 0.391919,0.16234 0.336549,0.25824 0.258242,0.33655 0.162339,0.39192 0.05537,0.42058 -0.05537,0.42058 -0.162339,0.39192 -0.258242,0.33655 -0.336549,0.25824 -0.391919,0.16234 -0.420581,0.0554 -0.420581,-0.0554 -0.391919,-0.16234 -0.336548,-0.25824 -0.258243,-0.33655 -0.162338,-0.39192 -0.05537,-0.42058 0.05537,-0.42058 0.162338,-0.39192 0.258243,-0.33655 0.336548,-0.25824 m 26.5,0 0.391919,-0.16234 0.420581,-0.0554 0.420581,0.0554 0.391919,0.16234 0.336549,0.25824 0.258242,0.33655 0.162339,0.39192 0.05537,0.42058 -0.05537,0.42058 -0.162339,0.39192 -0.258242,0.33655 -0.336549,0.25824 -0.391919,0.16234 -0.420581,0.0554 -0.420581,-0.0554 -0.391919,-0.16234 -0.336548,-0.25824 -0.258243,-0.33655 -0.162338,-0.39192 -0.05537,-0.42058 0.05537,-0.42058 0.162338,-0.39192 0.258243,-0.33655 0.336548,-0.25824 m -66.5000015,0 0.391919,-0.16234 0.4205817,-0.0554 0.420581,0.0554 0.391919,0.16234 0.336549,0.25824 0.258242,0.33655 0.162339,0.39192 0.05537,0.42058 -0.05537,0.42058 -0.162339,0.39192 -0.258242,0.33655 -0.336549,0.25824 -0.391919,0.16234 -0.420581,0.0554 -0.4205817,-0.0554 -0.391919,-0.16234 -0.336548,-0.25824 -0.258243,-0.33655 -0.162338,-0.39192 -0.05537,-0.42058 0.05537,-0.42058 0.162338,-0.39192 0.258243,-0.33655 0.336548,-0.25824 m 0,-29.5 0.391919,-0.16234 0.4205817,-0.0554 0.420581,0.0554 0.391919,0.16234 0.336549,0.25824 0.258242,0.33655 0.162339,0.39192 0.05537,0.42058 -0.05537,0.42058 -0.162339,0.39192 -0.258242,0.33655 -0.336549,0.25824 -0.391919,0.16234 -0.420581,0.0554 -0.4205817,-0.0554 -0.391919,-0.16234 -0.336548,-0.25824 -0.258243,-0.33655 -0.162338,-0.39192 -0.05537,-0.42058 0.05537,-0.42058 0.162338,-0.39192 0.258243,-0.33655 0.336548,-0.25824 m 25.9052105,31.71979 -0.162338,-0.39192 -0.05537,-0.42058 0.05537,-0.42058 0.162338,-0.39192 0.258243,-0.33655 0.336548,-0.25824 0.391919,-0.16234 0.420581,-0.0554 0.420581,0.0554 0.391919,0.16234 0.336549,0.25824 0.258242,0.33655 0.162339,0.39192 0.05537,0.42058 -0.05537,0.42058 -0.162339,0.39192 -0.258242,0.33655 -0.336549,0.25824 -0.391919,0.16234 -0.420581,0.0554 -0.420581,-0.0554 -0.391919,-0.16234 -0.336548,-0.25824 -0.258243,-0.33655 m 1.827872,-31.88213 0.391919,0.16234 0.336549,0.25824 0.258242,0.33655 0.162339,0.39192 0.05537,0.42058 -0.05537,0.42058 -0.162339,0.39192 -0.258242,0.33655 -0.336549,0.25824 -0.391919,0.16234 -0.420581,0.0554 -0.420581,-0.0554 -0.391919,-0.16234 -0.336548,-0.25824 -0.258243,-0.33655 -0.162338,-0.39192 -0.05537,-0.42058 0.05537,-0.42058 0.162338,-0.39192 0.258243,-0.33655 0.336548,-0.25824 0.391919,-0.16234 0.420581,-0.0554 0.420581,0.0554 m 65.707394,-15.71003 -0.23838,0.31066 -0.310662,0.23838 -0.36177,0.14985 -0.38823,0.0511 -0.38823,-0.0511 -0.36177,-0.14985 -0.31066,-0.23838 -0.23838,-0.31066 -0.14985,-0.36177 -0.0511,-0.38823 0.0511,-0.38823 0.14985,-0.36177 0.23838,-0.31066 0.31066,-0.23838 0.36177,-0.14985 0.38823,-0.0511 0.38823,0.0511 0.36177,0.14985 0.310662,0.23838 0.23838,0.31066 0.14985,0.36177 0.0511,0.38823 -0.0511,0.38823 -0.14985,0.36177 m -52.669043,-17.6 0.388229,0.0511 0.361771,0.14985 0.31066,0.23838 0.238378,0.31066 0.149851,0.36177 0.05111,0.38823 -0.05111,0.38823 -0.149851,0.36177 -0.238378,0.31066 -0.31066,0.23838 -0.361771,0.14985 -0.388229,0.0511 -0.388228,-0.0511 -0.361772,-0.14985 -0.31066,-0.23838 -0.238378,-0.31066 -0.149851,-0.36177 -0.05111,-0.38823 0.05111,-0.38823 0.149851,-0.36177 0.238378,-0.31066 0.31066,-0.23838 0.361772,-0.14985 0.388228,-0.0511 m -1.448889,-26.23177 -0.05111,-0.38823 0.05111,-0.38823 0.149851,-0.36177 0.238378,-0.31066 0.31066,-0.23838 0.361772,-0.14985 0.388228,-0.0511 0.388229,0.0511 0.361771,0.14985 0.31066,0.23838 0.238378,0.31066 0.149851,0.36177 0.05111,0.38823 -0.05111,0.38823 -0.149851,0.36177 -0.238378,0.31066 -0.31066,0.23838 -0.361771,0.14985 -0.388229,0.0511 -0.388228,-0.0511 -0.361772,-0.14985 -0.31066,-0.23838 -0.238378,-0.31066 -0.149851,-0.36177 m 52.71985,-6.28823 0.23838,-0.31066 0.31066,-0.23838 0.36177,-0.14985 0.388232,-0.0511 0.38823,0.0511 0.36177,0.14985 0.31066,0.23838 0.23838,0.31066 0.14985,0.36177 0.0511,0.38823 -0.0511,0.38823 -0.14985,0.36177 -0.23838,0.31066 -0.31066,0.23838 -0.36177,0.14985 -0.38823,0.0511 -0.388232,-0.0511 -0.36177,-0.14985 -0.31066,-0.23838 -0.23838,-0.31066 -0.14985,-0.36177 -0.0511,-0.38823 0.0511,-0.38823 0.14985,-0.36177"
     inkscape:connector-curvature="0" />
  <path
     id="face36-cut"
     style="fill:none;stroke:#000000;stroke-width:0.02822222;stroke-linecap:round;stroke-linejoin:round;stroke-miterlimit:4;stroke-dasharray:none;stroke-opacity:1"
     d="m 54.330698,59.069182 64.699992,0 0,-21.000011 -0.0428,-0.65263 -0.12759,-0.64146 -0.21024,-0.61932 -0.28927,-0.58659 -0.36336,-0.5438 -0.43123,-0.49173 -0.49173,-0.43123 -0.5438,-0.36336 -0.58659,-0.28927 -0.61932,-0.21024 -0.64146,-0.12759 -0.65263,-0.0428 -3.2,0 0,-10 -0.0428,-0.65263 -0.12759,-0.64147 -0.21024,-0.61932 -0.28927,-0.58658 -0.36336,-0.54381 -0.43123,-0.49172 -0.49173,-0.43124 -0.5438,-0.36336 -0.58659,-0.28927 -0.61932,-0.21023 -0.64146,-0.12759 -0.65263,-0.0428 -26.500002,0 -0.652639,-0.0428 -0.641461,-0.1276 -0.61932,-0.21023 -0.58658,-0.28927 -0.54381,-0.36336 -0.49173,-0.43124 -0.43123,-0.49172 -0.36336,-0.54381 -0.28927,-0.58658 -0.21023,-0.61932 -0.1276,-0.64147 -0.0428,-0.65263 0,-1.65 -0.0428,-0.65263 -0.12759,-0.64146 -0.21024,-0.6193298 -0.289269,-0.58658 -0.36336,-0.54381 -0.43123,-0.49172 -0.491731,-0.43124 -0.543799,-0.36336 -0.58659,-0.28927 -0.61932,-0.21023 -0.64146,-0.1276 -0.65263,-0.0428 -15,0 0,3 -0.41769,0.0274 -0.41053,0.0817 -0.39637,0.13455 -0.37541,0.18514 -0.34804,0.2325498 -0.3147,0.27599 -0.27599,0.3147 -0.23255,0.34804 -0.18514,0.37541 -0.13455,0.39637 -0.0817,0.41054 -0.0274,0.41768 0,3.6 0.0274,0.41768 0.0817,0.41054 0.13455,0.39637 0.18514,0.37541 0.23255,0.34804 0.27599,0.3147 0.3147,0.27599 0.34804,0.23255 0.37541,0.18513 0.39637,0.13455 0.41053,0.0817 0.41769,0.0274 0,7.8 3.2,0 0,5.05 -3.2,0 0,7.8 -0.41769,0.0274 -0.41053,0.0817 -0.39637,0.13455 -0.37541,0.18513 -0.34804,0.23255 -0.3147,0.27599 -0.27599,0.31471 -0.23255,0.34803 -0.18514,0.37542 -0.13455,0.39636 -0.0817,0.41054 -0.0274,0.41768 0,3.600001 0.0274,0.41769 0.0817,0.41054 0.13455,0.39636 0.18514,0.37542 0.23255,0.34803 0.27599,0.31471 0.3147,0.27599 0.34804,0.23255 0.37541,0.18513 0.39637,0.13455 0.41053,0.0817 0.41769,0.0274 0,9 m 29.26863,-29.868631 -0.25427,-0.33137 -0.15984,-0.38589 -0.0545,-0.41411 0.0545,-0.41411 0.15984,-0.38589 0.25427,-0.33137 0.33137,-0.25427 0.38589,-0.15984 0.41411,-0.0545 0.41411,0.0545 0.38589,0.15984 0.33137,0.25427 0.25427,0.33137 0.15984,0.38589 0.0545,0.41411 -0.0545,0.41411 -0.15984,0.38589 -0.25427,0.33137 -0.33137,0.25427 -0.38589,0.15984 -0.41411,0.0545 -0.41411,-0.0545 -0.38589,-0.15984 -0.33137,-0.25427 m 14.462739,-2.26274 0.25427,0.33137 0.15984,0.38589 0.0545,0.41411 -0.0545,0.41411 -0.15984,0.38589 -0.25427,0.33137 -0.33137,0.25427 -0.38589,0.15984 -0.41411,0.0545 -0.414111,-0.0545 -0.385891,-0.15984 -0.331369,-0.25427 -0.25427,-0.33137 -0.15984,-0.38589 -0.0545,-0.41411 0.0545,-0.41411 0.15984,-0.38589 0.25427,-0.33137 0.331369,-0.25427 0.385891,-0.15984 0.414111,-0.0545 0.41411,0.0545 0.38589,0.15984 0.33137,0.25427 m -5.350191,2.26274 -0.32555,0.42426 -0.45563,0.34962 -0.5306,0.21978 -0.5694,0.075 -0.56941,-0.075 -0.53059,-0.21978 -0.45564,-0.34962 -0.32555,-0.42426 -0.0241,-0.0314 -0.21978,-0.5306 -0.075,-0.5694 0.075,-0.5694 0.21978,-0.5306 0.34962,-0.45564 0.45564,-0.34962 0.5306,-0.21978 0.5694,-0.075 0.5694,0.075 0.5306,0.21978 0.45563,0.34962 0.34962,0.45564 0.21979,0.5306 0.075,0.5694 -0.075,0.5694 -0.21979,0.5306 -0.0241,0.0314 m -38.166818,-15.58137 0.25427,-0.33137 0.33137,-0.25427 0.38589,-0.15984 0.41411,-0.0545 0.41411,0.0545 0.38589,0.15984 0.33137,0.25427 0.25427,0.33137 0.15984,0.38589 0.0545,0.41411 -0.0545,0.41411 -0.15984,0.38589 -0.25427,0.33137 -0.33137,0.25427 -0.38589,0.15984 -0.41411,0.0545 -0.41411,-0.0545 -0.38589,-0.15984 -0.33137,-0.25427 -0.25427,-0.33137 -0.15984,-0.38589 -0.0545,-0.41411 0.0545,-0.41411 0.15984,-0.38589 m 2.98564,31.450001 -0.0545,0.41411 -0.15984,0.38589 -0.25427,0.33137 -0.33137,0.25427 -0.38589,0.15984 -0.41411,0.0545 -0.41411,-0.0545 -0.38589,-0.15984 -0.33137,-0.25427 -0.25427,-0.33137 -0.15984,-0.38589 -0.0545,-0.41411 0.0545,-0.41411 0.15984,-0.385891 0.25427,-0.33137 0.33137,-0.25427 0.38589,-0.15984 0.41411,-0.0545 0.41411,0.0545 0.38589,0.15984 0.33137,0.25427 0.25427,0.33137 0.15984,0.385891 0.0545,0.41411 m 9.9,-5.380151 -6,0 0,-3.2 6,0 0,3.2 m 10.5,0 -6,0 0,-3.2 6,0 0,3.2 m 36.045481,4.966041 0.0545,0.41411 -0.0545,0.41411 -0.15984,0.38589 -0.25427,0.33137 -0.33137,0.25427 -0.38589,0.15984 -0.41411,0.0545 -0.41411,-0.0545 -0.38589,-0.15984 -0.33137,-0.25427 -0.25427,-0.33137 -0.15984,-0.38589 -0.0545,-0.41411 0.0545,-0.41411 0.15984,-0.385891 0.25427,-0.33137 0.33137,-0.25427 0.38589,-0.15984 0.41411,-0.0545 0.41411,0.0545 0.38589,0.15984 0.33137,0.25427 0.25427,0.33137 0.15984,0.385891 m 0.0545,5.41411 0,5 -3.2,0 0,-5 3.2,0"
     inkscape:connector-curvature="0" />
  <path
     id="face37-cut"
     style="fill:none;stroke:#000000;stroke-width:0.02822222;stroke-linecap:round;stroke-linejoin:round;stroke-miterlimit:4;stroke-dasharray:none;stroke-opacity:1"
     d="m 101.06915,188.618 0,-121.699997 -6.468316,0 -7.6e-4,5.19522 1.4,10e-6 0,2.79971 -1.40041,0 0,2.99979 -3.20044,-5.3e-4 4.4e-4,-2.99925 -1.4,-1e-5 4.1e-4,-2.80046 1.4,2.3e-4 8.3e-4,-5.19468 -11.13176,-3e-5 0,-3.2 -4.96824,0 0,3.2 -11.13183,-3e-5 -7.7e-4,5.19522 1.4,1e-5 0,2.79971 -1.40041,-1e-5 0,2.9998 -3.20044,-5.4e-4 4.4e-4,-2.99924 -1.4,-2e-5 4.1e-4,-2.80045 1.4,2.2e-4 8.4e-4,-5.19467 -8.5,0 0,121.699997 8.5,0 -8.4e-4,-5.19468 -1.4,2.3e-4 -4.1e-4,-2.80046 1.4,-2e-5 -4.4e-4,-2.99924 3.20044,-5.3e-4 0,2.99979 1.40041,0 0,2.7997 -1.4,2e-5 7.7e-4,5.19519 11.13183,0 0,3.2 4.96824,0 0,-3.2 11.13176,0 -8.3e-4,-5.19471 -1.4,2.3e-4 -4.1e-4,-2.80046 1.4,-2e-5 -4.4e-4,-2.99924 3.20044,-5.3e-4 0,2.99979 1.40041,0 0,2.7997 -1.4,2e-5 7.6e-4,5.19522 6.468316,0 m -33.090186,-86.70002 3.09018,0 0,5.00001 -3.09018,0 0,-5.00001 m -0.10982,46.70003 3.2,0 0,5.00001 -3.2,0 0,-5.00001"
     inkscape:connector-curvature="0" />
  <path
     id="face4-interior"
     style="fill:none;stroke:#000000;stroke-width:0.02822222;stroke-linecap:round;stroke-linejoin:round;stroke-miterlimit:4;stroke-dasharray:none;stroke-opacity:1"
     d="m 23.136381,5.6991332 m -10,0 m -1.305262,0.0855 m -1.282928,0.25519 m -1.2386446,0.42046 m -1.173166,0.5786 m -1.0876139,0.72672 m -0.983454,0.86246 m -0.862465,0.98346 m -0.726721,1.0876098 m -0.578541,1.17317 m -0.420463,1.23864 m -0.255191,1.28293 m -0.085551,1.30526 m 0,10.1 m 10.0000005,0 m 0,3 m -10.0000005,0 m 0,146.999997 m 10.0000005,0 m 0,3 m -10.0000005,0 m 0,10.1 m 0.08555,1.30526 m 0.255191,1.28293 m 0.420463,1.23864 m 0.578542,1.17317 m 0.726721,1.08761 m 0.862465,0.98346 m 0.983454,0.86246 m 1.0876139,0.72672 m 1.173166,0.57855 m 1.2386446,0.42046 m 1.282928,0.25519 m 1.305262,0.0856 m 10,0"
     inkscape:connector-curvature="0" />
  <path
     id="face5-interior"
     style="fill:none;stroke:#000000;stroke-width:0.02822222;stroke-linecap:round;stroke-linejoin:round;stroke-miterlimit:4;stroke-dasharray:none;stroke-opacity:1"
     d="m 6.3363805,233.39913 m 35.0000005,0 m 0,3.2 m 5,0 m 0,-3.2 m 41.7,0 m 0,3.2 m 5,0 m 0,-3.2 m 34.999999,0 m 0,-4 m 3.2,0 m 0,-6 m -3.2,0 m 0,-4.5 m 3.2,0 m 0,-6 m -3.2,0 m 0,-4 m -121.6999995,0 m 0,4 m -3.2,0 m 0,6 m 3.2,0 m 0,4.5 m -3.2,0 m 0,6 m 3.2,0"
     inkscape:connector-curvature="0" />
  <path
     id="path90"
     style="fill:none;stroke:#000000;stroke-width:0.02822222;stroke-linecap:round;stroke-linejoin:round;stroke-miterlimit:4;stroke-dasharray:none;stroke-opacity:1"
     d="m 23.136381,5.6991332 m -10,0 m -1.305262,0.0855 m -1.282928,0.25519 m -1.2386446,0.42046 m -1.173166,0.5786 m -1.0876139,0.72672 m -0.983454,0.86246 m -0.862465,0.98346 m -0.726721,1.0876098 m -0.578541,1.17317 m -0.420463,1.23864 m -0.255191,1.28293 m -0.085551,1.30526 m 0,10.1 m 10.0000005,0 m 0,3 m -10.0000005,0 m 0,146.999997 m 10.0000005,0 m 0,3 m -10.0000005,0 m 0,10.1 m 0.08555,1.30526 m 0.255191,1.28293 m 0.420463,1.23864 m 0.578542,1.17317 m 0.726721,1.08761 m 0.862465,0.98346 m 0.983454,0.86246 m 1.0876139,0.72672 m 1.173166,0.57855 m 1.2386446,0.42046 m 1.282928,0.25519 m 1.305262,0.0856 m 10,0"
     inkscape:connector-curvature="0" />
  <path
     id="path92"
     style="fill:none;stroke:#000000;stroke-width:0.02822222;stroke-linecap:round;stroke-linejoin:round;stroke-miterlimit:4;stroke-dasharray:none;stroke-opacity:1"
     d="m 6.3363805,233.39913 m 35.0000005,0 m 0,3.2 m 5,0 m 0,-3.2 m 41.7,0 m 0,3.2 m 5,0 m 0,-3.2 m 34.999999,0 m 0,-4 m 3.2,0 m 0,-6 m -3.2,0 m 0,-4.5 m 3.2,0 m 0,-6 m -3.2,0 m 0,-4 m -121.6999995,0 m 0,4 m -3.2,0 m 0,6 m 3.2,0 m 0,4.5 m -3.2,0 m 0,6 m 3.2,0"
     inkscape:connector-curvature="0" />
  <rect
     style="fill:none;stroke:#000000;stroke-width:0.1;stroke-miterlimit:4;stroke-opacity:1;stroke-dasharray:none;stroke-dashoffset:0"
     id="rect3907"
     width="1417.3229"
     height="1417.3229"
     x="-7.287755"
     y="-4.9701357"
     transform="matrix(0.28222222,0,0,0.28222222,-6.0247038e-6,0)" />
  <path
     id="face26-cut-1"
     style="fill:none;stroke:#000000;stroke-width:0.02822222;stroke-linecap:round;stroke-linejoin:round;stroke-miterlimit:4;stroke-opacity:1;stroke-dasharray:none"
     d="m 144.39408,117.67671 1.58919,2.07106 2.07107,1.58919 2.41181,0.999 2.58819,0.34075 2.58819,-0.34075 2.41181,-0.999 2.07106,-1.58919 1.58919,-2.07106 0.99901,-2.41181 0.34074,-2.58819 -0.34074,-2.58819 -0.99901,-2.41181 -1.58919,-2.07107 -2.07106,-1.58919 -2.41181,-0.999 -2.58819,-0.34074 -2.58819,0.34074 -2.41181,0.999 -2.07107,1.58919 -1.58919,2.07107 -0.999,2.41181 -0.34074,2.58819 0.34074,2.58819 0.999,2.41181 m 8.66026,-7.2 0.5694,0.075 0.5306,0.21978 0.45563,0.34962 0.34962,0.45564 0.21978,0.53059 0.075,0.56941 -0.075,0.5694 -0.21978,0.5306 -0.34962,0.45563 -0.45563,0.34962 -0.5306,0.21978 -0.5694,0.075 -0.5694,-0.075 -0.5306,-0.21978 -0.45564,-0.34962 -0.34962,-0.45563 -0.21978,-0.5306 -0.075,-0.5694 0.075,-0.56941 0.21978,-0.53059 0.34962,-0.45564 0.45564,-0.34962 0.5306,-0.21978 0.5694,-0.075 m -4.71436,1.4 0.15984,0.38589 0.0545,0.41411 -0.0545,0.41411 -0.15984,0.38589 -0.25427,0.33137 -0.33137,0.25427 -0.38589,0.15984 -0.41411,0.0545 -0.41411,-0.0545 -0.38589,-0.15984 -0.33137,-0.25427 -0.25427,-0.33137 -0.15984,-0.38589 -0.0545,-0.41411 0.0545,-0.41411 0.15984,-0.38589 0.25427,-0.33137 0.33137,-0.25427 0.38589,-0.15984 0.41411,-0.0545 0.41411,0.0545 0.38589,0.15984 0.33137,0.25427 0.25427,0.33137 m 11.22847,2.34548 -0.41411,0.0545 -0.41411,-0.0545 -0.38589,-0.15984 -0.33137,-0.25427 -0.25427,-0.33137 -0.15984,-0.38589 -0.0545,-0.41411 0.0545,-0.41411 0.15984,-0.38589 0.25427,-0.33137 0.33137,-0.25427 0.38589,-0.15984 0.41411,-0.0545 0.41411,0.0545 0.38589,0.15984 0.33137,0.25427 0.25427,0.33137 0.15984,0.38589 0.0545,0.41411 -0.0545,0.41411 -0.15984,0.38589 -0.25427,0.33137 -0.33137,0.25427 -0.38589,0.15984"
     inkscape:connector-curvature="0" />
  <text
     xml:space="preserve"
     style="font-size:8.03003668999999930px;font-style:normal;font-variant:normal;font-weight:normal;font-stretch:normal;text-align:start;line-height:125%;letter-spacing:0px;word-spacing:0px;writing-mode:lr;text-anchor:start;fill:none;fill-opacity:1;stroke:#ff0000;font-family:Segoe Print;-inkscape-font-specification:Segoe Print;stroke-opacity:1;stroke-width:0.02822222;stroke-miterlimit:4;stroke-dasharray:none"
     x="135.7433"
     y="-116.44502"
     id="text3131"
     sodipodi:linespacing="125%"
     transform="matrix(0,0.66369213,-1.5067227,0,0,0)"><tspan
       sodipodi:role="line"
       id="tspan3133"
       x="135.7433"
       y="-116.44502">EtchABot</tspan></text>
  <text
     xml:space="preserve"
     style="font-size:7.90987607000000010px;font-style:normal;font-variant:normal;font-weight:normal;font-stretch:normal;text-align:start;line-height:125%;letter-spacing:0px;word-spacing:0px;writing-mode:lr;text-anchor:start;fill:none;fill-opacity:1;stroke:#ff0000;font-family:Segoe Print;-inkscape-font-specification:Segoe Print;stroke-opacity:1;stroke-width:0.02822222;stroke-miterlimit:4;stroke-dasharray:none"
     x="10.822349"
     y="277.15326"
     id="text3058"
     sodipodi:linespacing="125%"
     transform="scale(1.0266698,0.974023)"><tspan
       sodipodi:role="line"
       id="tspan3060"
       x="10.822349"
       y="277.15326">horz</tspan></text>
  <text
     xml:space="preserve"
     style="font-size:7.90987607000000010px;font-style:normal;font-variant:normal;font-weight:normal;font-stretch:normal;text-align:start;line-height:125%;letter-spacing:0px;word-spacing:0px;writing-mode:lr;text-anchor:start;fill:none;fill-opacity:1;stroke:#ff0000;font-family:Segoe Print;-inkscape-font-specification:Segoe Print;stroke-opacity:1;stroke-width:0.02822222;stroke-miterlimit:4;stroke-dasharray:none"
     x="50.389824"
     y="276.69937"
     id="text3058-4"
     sodipodi:linespacing="125%"
     transform="scale(1.0266698,0.974023)"><tspan
       sodipodi:role="line"
       id="tspan3060-0"
       x="50.389824"
       y="276.69937">vert</tspan></text>
  <text
     xml:space="preserve"
     style="font-size:7.90987607000000010px;font-style:normal;font-variant:normal;font-weight:normal;font-stretch:normal;text-align:start;line-height:125%;letter-spacing:0px;word-spacing:0px;writing-mode:lr;text-anchor:start;fill:none;fill-opacity:1;stroke:#ff0000;font-family:Segoe Print;-inkscape-font-specification:Segoe Print;stroke-opacity:1;stroke-width:0.02822222;stroke-miterlimit:4;stroke-dasharray:none"
     x="86.238197"
     y="276.66846"
     id="text3058-4-9"
     sodipodi:linespacing="125%"
     transform="scale(1.0266698,0.974023)"><tspan
       sodipodi:role="line"
       id="tspan3060-0-4"
       x="86.238197"
       y="276.66846">erase</tspan></text>
</svg>
