<?xml version="1.0" encoding="UTF-8" standalone="no"?>
<svg
   xmlns:dc="http://purl.org/dc/elements/1.1/"
   xmlns:cc="http://creativecommons.org/ns#"
   xmlns:rdf="http://www.w3.org/1999/02/22-rdf-syntax-ns#"
   xmlns:svg="http://www.w3.org/2000/svg"
   xmlns="http://www.w3.org/2000/svg"
   xmlns:sodipodi="http://sodipodi.sourceforge.net/DTD/sodipodi-0.dtd"
   xmlns:inkscape="http://www.inkscape.org/namespaces/inkscape"
   width="706.91241"
   height="1711.1976"
   viewBox="0 0 199.50639 482.93798"
   version="1.1"
   id="svg2"
   inkscape:version="0.48.5 r10040"
   sodipodi:docname="TravelEtchABot.svg">
  <metadata
     id="metadata66">
    <rdf:RDF>
      <cc:Work
         rdf:about="">
        <dc:format>image/svg+xml</dc:format>
        <dc:type
           rdf:resource="http://purl.org/dc/dcmitype/StillImage" />
      </cc:Work>
    </rdf:RDF>
  </metadata>
  <defs
     id="defs64" />
  <sodipodi:namedview
     pagecolor="#ffffff"
     bordercolor="#666666"
     borderopacity="1"
     objecttolerance="10"
     gridtolerance="10"
     guidetolerance="10"
     inkscape:pageopacity="0"
     inkscape:pageshadow="2"
     inkscape:window-width="1600"
     inkscape:window-height="837"
     id="namedview62"
     showgrid="false"
     inkscape:snap-grids="true"
     showguides="false"
     inkscape:guide-bbox="true"
     inkscape:zoom="0.22198276"
     inkscape:cx="155.04937"
     inkscape:cy="1438.9501"
     inkscape:window-x="-8"
     inkscape:window-y="-8"
     inkscape:window-maximized="1"
     inkscape:current-layer="svg2"
     fit-margin-top="0"
     fit-margin-left="0"
     fit-margin-right="0"
     fit-margin-bottom="0">
    <inkscape:grid
       type="xygrid"
       id="grid3043"
       empspacing="5"
       visible="true"
       enabled="true"
       snapvisiblegridlinesonly="true"
       originx="-33.608241px"
       originy="-2757.4504px" />
    <sodipodi:guide
       orientation="0,1"
       position="-127.29952,-1299.6586"
       id="guide3045" />
    <sodipodi:guide
       orientation="0,1"
       position="-13.608241,-1367.4504"
       id="guide3047" />
  </sodipodi:namedview>
  <desc
     id="desc4">Output from Flights of Ideas SVG Sketchup Plugin</desc>
  <text
     xml:space="preserve"
     style="font-size:7.90987615999999870px;font-style:normal;font-variant:normal;font-weight:normal;font-stretch:normal;text-align:start;line-height:125%;letter-spacing:0px;word-spacing:0px;writing-mode:lr;text-anchor:start;fill:none;fill-opacity:1;stroke:#ff0000;font-family:Segoe Print;-inkscape-font-specification:Segoe Print;stroke-opacity:1;stroke-width:0.02822222;stroke-miterlimit:4;stroke-dasharray:none"
     x="88.798973"
     y="81.441109"
     id="text3058"
     sodipodi:linespacing="125%"
     transform="scale(1.0266698,0.974023)"><tspan
       sodipodi:role="line"
       id="tspan3060"
       x="88.798973"
       y="81.441109">horz</tspan></text>
  <text
     xml:space="preserve"
     style="font-size:7.90987615999999870px;font-style:normal;font-variant:normal;font-weight:normal;font-stretch:normal;text-align:start;line-height:125%;letter-spacing:0px;word-spacing:0px;writing-mode:lr;text-anchor:start;fill:none;fill-opacity:1;stroke:#ff0000;font-family:Segoe Print;-inkscape-font-specification:Segoe Print;stroke-opacity:1;stroke-width:0.02822222;stroke-miterlimit:4;stroke-dasharray:none"
     x="128.36646"
     y="80.987213"
     id="text3058-4"
     sodipodi:linespacing="125%"
     transform="scale(1.0266698,0.974023)"><tspan
       sodipodi:role="line"
       id="tspan3060-0"
       x="128.36646"
       y="80.987213">vert</tspan></text>
  <text
     xml:space="preserve"
     style="font-size:7.90987615999999870px;font-style:normal;font-variant:normal;font-weight:normal;font-stretch:normal;text-align:start;line-height:125%;letter-spacing:0px;word-spacing:0px;writing-mode:lr;text-anchor:start;fill:none;fill-opacity:1;stroke:#ff0000;font-family:Segoe Print;-inkscape-font-specification:Segoe Print;stroke-opacity:1;stroke-width:0.02822222;stroke-miterlimit:4;stroke-dasharray:none"
     x="164.21483"
     y="80.956314"
     id="text3058-4-9"
     sodipodi:linespacing="125%"
     transform="scale(1.0266698,0.974023)"><tspan
       sodipodi:role="line"
       id="tspan3060-0-4"
       x="164.21483"
       y="80.956314">erase</tspan></text>
  <path
     id="face0-cut"
     style="fill:none;stroke:#000000;stroke-width:0.02822222;stroke-linecap:round;stroke-linejoin:round;stroke-miterlimit:4;stroke-dasharray:none;stroke-opacity:1"
     d="m 170.40888,171.54981 1.58919,2.07107 2.07107,1.58918 2.41181,0.99901 2.58819,0.34074 2.58819,-0.34074 2.41181,-0.99901 2.07106,-1.58918 1.58919,-2.07107 0.99901,-2.41181 0.34074,-2.58819 -0.34074,-2.58819 -0.99901,-2.41181 -1.58919,-2.07107 -2.07106,-1.58918 -2.41181,-0.99901 -2.58819,-0.34074 -2.58819,0.34074 -2.41181,0.99901 -2.07107,1.58918 -1.58919,2.07107 -0.999,2.41181 -0.34074,2.58819 0.34074,2.58819 0.999,2.41181 m 3.9459,-5.8 0.15984,0.38589 0.0545,0.41411 -0.0545,0.41411 -0.15984,0.38589 -0.25427,0.33137 -0.33137,0.25427 -0.38589,0.15984 -0.41411,0.0545 -0.41411,-0.0545 -0.38589,-0.15984 -0.33137,-0.25427 -0.25427,-0.33137 -0.15984,-0.38589 -0.0545,-0.41411 0.0545,-0.41411 0.15984,-0.38589 0.25427,-0.33137 0.33137,-0.25427 0.38589,-0.15984 0.41411,-0.0545 0.41411,0.0545 0.38589,0.15984 0.33137,0.25427 0.25427,0.33137 m 11.22847,2.34548 -0.41411,0.0545 -0.41411,-0.0545 -0.38589,-0.15984 -0.33137,-0.25427 -0.25427,-0.33137 -0.15984,-0.38589 -0.0545,-0.41411 0.0545,-0.41411 0.15984,-0.38589 0.25427,-0.33137 0.33137,-0.25427 0.38589,-0.15984 0.41411,-0.0545 0.41411,0.0545 0.38589,0.15984 0.33137,0.25427 0.25427,0.33137 0.15984,0.38589 0.0545,0.41411 -0.0545,0.41411 -0.15984,0.38589 -0.25427,0.33137 -0.33137,0.25427 -0.38589,0.15984 m -5.26411,-3.71054 0.25,0.19183 0,3.94646 -0.25,0.19183 -0.60296,0.24975 -0.64704,0.0852 -0.64705,-0.0852 -0.60295,-0.24975 -0.25,-0.19183 0,-1.97323 0,-1.97323 0.25,-0.19183 0.60295,-0.24976 0.64705,-0.0852 0.64704,0.0852 0.60296,0.24976"
     inkscape:connector-curvature="0" />
  <path
     id="face1-cut"
     style="fill:none;stroke:#000000;stroke-width:0.02822222;stroke-linecap:round;stroke-linejoin:round;stroke-miterlimit:4;stroke-dasharray:none;stroke-opacity:1"
     d="m 118.2459,250.21901 0,-73.2 11,0 0.65263,-0.0428 0.64146,-0.1276 0.61932,-0.21023 0.58659,-0.28927 0.5438,-0.36336 0.49173,-0.43123 0.43123,-0.49173 0.36336,-0.54381 0.28927,-0.58658 0.21024,-0.61932 0.12759,-0.64145 0.0428,-0.65265 0,-5 -0.0428,-0.65262 -0.12759,-0.64146 -0.21024,-0.61932 -0.28927,-0.58659 -0.36336,-0.5438 -0.43123,-0.49173 -0.49173,-0.43123 -0.5438,-0.36336 -0.58659,-0.28927 -0.61932,-0.21023 -0.64146,-0.1276 -0.65263,-0.0428 -9.38399,0 -0.0249,0.18917 -1.19881,2.89417 -1.90702,2.48528 -2.48528,1.90702 -2.89417,1.19881 -3.10583,0.40889 -3.10583,-0.40889 -2.89417,-1.19881 -2.485282,-1.90702 -1.90703,-2.48528 -1.1988,-2.89417 -0.0249,-0.18917 -9.383983,0 -0.8037,0.21615 -0.76867,0.31903 -0.72056,0.41646 -0.66015,0.5068 -0.58849,0.58849 -0.5068,0.66015 -0.41646,0.72055 -0.31902,0.76868 -0.21615,0.80369 0,5 0.0428,0.65264 0.1276,0.64145 0.21023,0.61933 0.28927,0.58658 0.36336,0.54381 0.43123,0.49173 0.49173,0.43123 0.54381,0.36335 0.58658,0.28927 0.61932,0.21023 0.64147,0.12761 0.65263,0.0428 11.000003,0 0,73.20001 -30.000003,0 -1.30526,0.0856 -1.28293,0.25518 -1.23865,0.42047 -1.17316,0.57853 -1.08762,0.72672 -0.98345,0.86248 -0.86247,0.98344 -0.72672,1.08762 -0.57854,1.17317 -0.42046,1.23863 -0.25519,1.28294 -0.0856,1.30526 0,10 30.1,0 0,-10 3.000003,0 0,10 33.800002,0 0,-10 3,0 0,10 30.1,0 0,-10 -0.0856,-1.30526 -0.25519,-1.28294 -0.42047,-1.23863 -0.57854,-1.17317 -0.72672,-1.08762 -0.86247,-0.98344 -0.98345,-0.86248 -1.08761,-0.72672 -1.17317,-0.57853 -1.23864,-0.42047 -1.28293,-0.25518 -1.30526,-0.0856 -30,0 m 8.01764,-82.83349 0.48236,0.1998 0.41421,0.31783 0.31784,0.41421 0.1998,0.48236 0.0681,0.51764 -0.0681,0.51764 -0.1998,0.48236 -0.31784,0.41421 -0.41421,0.31784 -0.48236,0.19981 -0.51764,0.0681 -0.51764,-0.0681 -0.48236,-0.19981 -0.41422,-0.31784 -0.31783,-0.41421 -0.1998,-0.48236 -0.0682,-0.51764 0.0682,-0.51764 0.1998,-0.48236 0.31783,-0.41421 0.41422,-0.31783 0.48236,-0.1998 0.51764,-0.0682 0.51764,0.0682 m -36.931865,0.71927 0.41422,-0.31783 0.48236,-0.1998 0.517643,-0.0681 0.51764,0.0681 0.48236,0.1998 0.41421,0.31783 0.31784,0.41421 0.1998,0.48238 0.0682,0.51762 -0.0682,0.51764 -0.1998,0.48236 -0.31784,0.41422 -0.41421,0.31785 -0.48236,0.19979 -0.51764,0.0681 -0.517643,-0.0681 -0.48236,-0.19979 -0.41422,-0.31785 -0.31783,-0.41422 -0.1998,-0.48236 -0.0682,-0.51764 0.0682,-0.51762 0.1998,-0.48238 0.31783,-0.41421"
     inkscape:connector-curvature="0" />
  <path
     id="face2-cut"
     style="fill:none;stroke:#000000;stroke-width:0.02822222;stroke-linecap:round;stroke-linejoin:round;stroke-miterlimit:4;stroke-dasharray:none;stroke-opacity:1"
     d="m 158.99981,144.00339 0,92.2 0,0.78317 -0.20445,0.76974 -0.25227,0.74319 -0.34713,0.7039 -0.43603,0.65257 -0.51748,0.59007 -0.59007,0.51748 -0.65257,0.43603 -0.7039,0.34713 -0.74319,0.25228 -0.76975,0.15311 -0.78316,0.0513 -8,0 -0.78316,-0.0513 -0.76975,-0.15311 -0.74319,-0.25228 -0.7039,-0.34713 -0.65257,-0.43603 -0.59007,-0.51748 -0.51748,-0.59007 -0.43603,-0.65257 -0.34713,-0.7039 -0.25227,-0.74319 -0.15312,-0.76975 -0.0513,-0.78316 0,-92.2 -30,0 -1.30525,-0.0855 -1.28294,-0.25519 -1.23863,-0.42046 -1.17318,-0.57855 -1.0876,-0.72672 -0.98346,-0.86246 -0.86246,-0.98346 -0.72672,-1.08761 -0.578552,-1.17317 -0.42046,-1.23864 -0.2552,-1.28293 -0.0856,-1.30531 0,-10 30.100012,0 0,10 3,0 0,-10 33.79999,0 0,10 3,0 0,-10 30.1,0 0,10 -0.0856,1.30526 -0.25518,1.28293 -0.42047,1.23864 -0.57854,1.17317 -0.72672,1.08761 -0.86247,0.98346 -0.98346,0.86246 -1.08761,0.72672 -1.17317,0.57855 -1.23864,0.42046 -1.28293,0.25519 -1.30521,0.0856 -30,0 m -11.93185,88.68236 -0.0682,0.51764 0.0682,0.51764 0.1998,0.48236 0.31784,0.41421 0.41421,0.31784 0.48236,0.1998 0.51764,0.0682 0.51764,-0.0682 0.48236,-0.1998 0.41421,-0.31784 0.31784,-0.41421 0.1998,-0.48236 0.0681,-0.51764 -0.0681,-0.51764 -0.1998,-0.48236 -0.31784,-0.41421 -0.41421,-0.31784 -0.48236,-0.1998 -0.51764,-0.0682 -0.51764,0.0682 -0.48236,0.1998 -0.41421,0.31784 -0.31784,0.41421 -0.1998,0.48236"
     inkscape:connector-curvature="0" />
  <path
     id="face3-cut"
     style="fill:none;stroke:#000000;stroke-width:0.02822222;stroke-linecap:round;stroke-linejoin:round;stroke-miterlimit:4;stroke-dasharray:none;stroke-opacity:1"
     d="m 81.002355,12.395491 0,102.000009 0.03422,0.52211 0.102076,0.51317 0.168186,0.49546 0.231416,0.46926 0.290688,0.43505 0.344987,0.39338 0.393381,0.34499 0.435046,0.29069 0.469266,0.23141 0.495458,0.16819 0.513171,0.10207 0.522105,0.0342 108.499995,0 0.52211,-0.0342 0.51317,-0.10207 0.49546,-0.16819 0.46926,-0.23141 0.43505,-0.29069 0.39338,-0.34499 0.34499,-0.39338 0.29068,-0.43505 0.23142,-0.46926 0.16819,-0.49546 0.10207,-0.51317 0.0342,-0.52211 0,-102.000009 -0.0342,-0.5221 -0.10207,-0.51317 -0.16819,-0.49546 -0.23142,-0.46927 -0.29068,-0.4350404 -0.34499,-0.39338 -0.39338,-0.34499 -0.43505,-0.29069 -0.46926,-0.23141 -0.49546,-0.16819 -0.51317,-0.10208 -0.52211,-0.0342 -108.499995,0 -0.522105,0.0342 -0.513171,0.10208 -0.495458,0.16819 -0.469266,0.23141 -0.435046,0.29069 -0.393381,0.34499 -0.344987,0.39338 -0.290688,0.4350404 -0.231416,0.46927 -0.168186,0.49546 -0.102076,0.51317 -0.03422,0.5221 m 84.187495,69.59271 0.39192,-0.16234 0.42058,-0.0554 0.42058,0.0554 0.39192,0.16234 0.33655,0.25825 0.25824,0.33654 0.16234,0.39192 0.0554,0.42058 -0.0554,0.42058 -0.16234,0.39192 -0.25824,0.33655 -0.33655,0.25825 -0.39192,0.16233 -0.42058,0.0554 -0.42058,-0.0554 -0.39192,-0.16233 -0.33655,-0.25825 -0.25824,-0.33655 -0.16234,-0.39192 -0.0554,-0.42058 0.0554,-0.42058 0.16234,-0.39192 0.25824,-0.33654 0.33655,-0.25825 m 26.5,0 0.39192,-0.16234 0.42058,-0.0554 0.42058,0.0554 0.39192,0.16234 0.33655,0.25825 0.25824,0.33654 0.16234,0.39192 0.0554,0.42058 -0.0554,0.42058 -0.16234,0.39192 -0.25824,0.33655 -0.33655,0.25825 -0.39192,0.16233 -0.42058,0.0554 -0.42058,-0.0554 -0.39192,-0.16233 -0.33655,-0.25825 -0.25824,-0.33655 -0.16234,-0.39192 -0.0554,-0.42058 0.0554,-0.42058 0.16234,-0.39192 0.25824,-0.33654 0.33655,-0.25825 m 0,29.500009 0.39192,-0.16234 0.42058,-0.0554 0.42058,0.0554 0.39192,0.16234 0.33655,0.25825 0.25824,0.33654 0.16234,0.39192 0.0554,0.42058 -0.0554,0.42058 -0.16234,0.39192 -0.25824,0.33655 -0.33655,0.25825 -0.39192,0.16233 -0.42058,0.0554 -0.42058,-0.0554 -0.39192,-0.16233 -0.33655,-0.25825 -0.25824,-0.33655 -0.16234,-0.39192 -0.0554,-0.42058 0.0554,-0.42058 0.16234,-0.39192 0.25824,-0.33654 0.33655,-0.25825 m -26.5,0 0.39192,-0.16234 0.42058,-0.0554 0.42058,0.0554 0.39192,0.16234 0.33655,0.25825 0.25824,0.33654 0.16234,0.39192 0.0554,0.42058 -0.0554,0.42058 -0.16234,0.39192 -0.25824,0.33655 -0.33655,0.25825 -0.39192,0.16233 -0.42058,0.0554 -0.42058,-0.0554 -0.39192,-0.16233 -0.33655,-0.25825 -0.25824,-0.33655 -0.16234,-0.39192 -0.0554,-0.42058 0.0554,-0.42058 0.16234,-0.39192 0.25824,-0.33654 0.33655,-0.25825 m -13.5,-29.500009 0.39192,-0.16234 0.42058,-0.0554 0.42058,0.0554 0.39192,0.16234 0.33655,0.25825 0.25824,0.33654 0.16234,0.39192 0.0554,0.42058 -0.0554,0.42058 -0.16234,0.39192 -0.25824,0.33655 -0.33655,0.25825 -0.39192,0.16233 -0.42058,0.0554 -0.42058,-0.0554 -0.39192,-0.16233 -0.33655,-0.25825 -0.25824,-0.33655 -0.16234,-0.39192 -0.0554,-0.42058 0.0554,-0.42058 0.16234,-0.39192 0.25824,-0.33654 0.33655,-0.25825 m -26.5,0 0.39192,-0.16234 0.42058,-0.0554 0.42058,0.0554 0.39192,0.16234 0.33655,0.25825 0.25824,0.33654 0.16234,0.39192 0.0554,0.42058 -0.0554,0.42058 -0.16234,0.39192 -0.25824,0.33655 -0.33655,0.25825 -0.39192,0.16233 -0.42058,0.0554 -0.42058,-0.0554 -0.39192,-0.16233 -0.33655,-0.25825 -0.25824,-0.33655 -0.16234,-0.39192 -0.0554,-0.42058 0.0554,-0.42058 0.16234,-0.39192 0.25824,-0.33654 0.33655,-0.25825 m 0,29.500009 0.39192,-0.16234 0.42058,-0.0554 0.42058,0.0554 0.39192,0.16234 0.33655,0.25825 0.25824,0.33654 0.16234,0.39192 0.0554,0.42058 -0.0554,0.42058 -0.16234,0.39192 -0.25824,0.33655 -0.33655,0.25825 -0.39192,0.16233 -0.42058,0.0554 -0.42058,-0.0554 -0.39192,-0.16233 -0.33655,-0.25825 -0.25824,-0.33655 -0.16234,-0.39192 -0.0554,-0.42058 0.0554,-0.42058 0.16234,-0.39192 0.25824,-0.33654 0.33655,-0.25825 m 26.5,0 0.39192,-0.16234 0.42058,-0.0554 0.42058,0.0554 0.39192,0.16234 0.33655,0.25825 0.25824,0.33654 0.16234,0.39192 0.0554,0.42058 -0.0554,0.42058 -0.16234,0.39192 -0.25824,0.33655 -0.33655,0.25825 -0.39192,0.16233 -0.42058,0.0554 -0.42058,-0.0554 -0.39192,-0.16233 -0.33655,-0.25825 -0.25824,-0.33655 -0.16234,-0.39192 -0.0554,-0.42058 0.0554,-0.42058 0.16234,-0.39192 0.25824,-0.33654 0.33655,-0.25825 m -66.499995,0 0.391919,-0.16234 0.420581,-0.0554 0.420581,0.0554 0.391919,0.16234 0.336548,0.25825 0.258243,0.33654 0.162338,0.39192 0.05537,0.42058 -0.05537,0.42058 -0.162338,0.39192 -0.258243,0.33655 -0.336548,0.25825 -0.391919,0.16233 -0.420581,0.0554 -0.420581,-0.0554 -0.391919,-0.16233 -0.336549,-0.25825 -0.258243,-0.33655 -0.162338,-0.39192 -0.05537,-0.42058 0.05537,-0.42058 0.162338,-0.39192 0.258243,-0.33654 0.336549,-0.25825 m 0,-29.500009 0.391919,-0.16234 0.420581,-0.0554 0.420581,0.0554 0.391919,0.16234 0.336548,0.25825 0.258243,0.33654 0.162338,0.39192 0.05537,0.42058 -0.05537,0.42058 -0.162338,0.39192 -0.258243,0.33655 -0.336548,0.25825 -0.391919,0.16233 -0.420581,0.0554 -0.420581,-0.0554 -0.391919,-0.16233 -0.336549,-0.25825 -0.258243,-0.33655 -0.162338,-0.39192 -0.05537,-0.42058 0.05537,-0.42058 0.162338,-0.39192 0.258243,-0.33654 0.336549,-0.25825 m 25.905205,31.719799 -0.16234,-0.39192 -0.0554,-0.42058 0.0554,-0.42058 0.16234,-0.39192 0.25824,-0.33654 0.33655,-0.25825 0.39192,-0.16234 0.42058,-0.0554 0.42058,0.0554 0.39192,0.16234 0.33655,0.25825 0.25824,0.33654 0.16234,0.39192 0.0554,0.42058 -0.0554,0.42058 -0.16234,0.39192 -0.25824,0.33655 -0.33655,0.25825 -0.39192,0.16233 -0.42058,0.0554 -0.42058,-0.0554 -0.39192,-0.16233 -0.33655,-0.25825 -0.25824,-0.33655 m 1.82787,-31.882139 0.39192,0.16234 0.33655,0.25825 0.25824,0.33654 0.16234,0.39192 0.0554,0.42058 -0.0554,0.42058 -0.16234,0.39192 -0.25824,0.33655 -0.33655,0.25825 -0.39192,0.16233 -0.42058,0.0554 -0.42058,-0.0554 -0.39192,-0.16233 -0.33655,-0.25825 -0.25824,-0.33655 -0.16234,-0.39192 -0.0554,-0.42058 0.0554,-0.42058 0.16234,-0.39192 0.25824,-0.33654 0.33655,-0.25825 0.39192,-0.16234 0.42058,-0.0554 0.42058,0.0554 m 65.70739,-15.71003 -0.23838,0.31066 -0.31066,0.23838 -0.36177,0.14985 -0.38823,0.0511 -0.38822,-0.0511 -0.36178,-0.14985 -0.31066,-0.23838 -0.23837,-0.31066 -0.14985,-0.36177 -0.0511,-0.38823 0.0511,-0.38823 0.14985,-0.36177 0.23837,-0.31066 0.31066,-0.23838 0.36178,-0.14985 0.38822,-0.0511 0.38823,0.0511 0.36177,0.14985 0.31066,0.23838 0.23838,0.31066 0.14985,0.36177 0.0511,0.38823 -0.0511,0.38823 -0.14985,0.36177 m -52.66904,-17.6 0.38823,0.0511 0.36177,0.14985 0.31066,0.23838 0.23838,0.31066 0.14985,0.36177 0.0511,0.38823 -0.0511,0.38823 -0.14985,0.36177 -0.23838,0.31066 -0.31066,0.23838 -0.36177,0.14985 -0.38823,0.0511 -0.38822,-0.0511 -0.36178,-0.14985 -0.31066,-0.23838 -0.23837,-0.31066 -0.14985,-0.36177 -0.0511,-0.38823 0.0511,-0.38823 0.14985,-0.36177 0.23837,-0.31066 0.31066,-0.23838 0.36178,-0.14985 0.38822,-0.0511 m -1.44888,-26.23177 -0.0511,-0.38823 0.0511,-0.38823 0.14985,-0.36177 0.23837,-0.31066 0.31066,-0.23838 0.36178,-0.14985 0.38822,-0.0511 0.38823,0.0511 0.36177,0.14985 0.31066,0.23838 0.23838,0.31066 0.14985,0.36177 0.0511,0.38823 -0.0511,0.38823 -0.14985,0.36177 -0.23838,0.31066 -0.31066,0.23838 -0.36177,0.14985 -0.38823,0.0511 -0.38822,-0.0511 -0.36178,-0.14985 -0.31066,-0.23838 -0.23837,-0.31066 -0.14985,-0.36177 m 52.71985,-6.28823 0.23837,-0.31066 0.31066,-0.23838 0.36178,-0.14985 0.38822,-0.0511 0.38823,0.0511 0.36177,0.14985 0.31066,0.23838 0.23838,0.31066 0.14985,0.36177 0.0511,0.38823 -0.0511,0.38823 -0.14985,0.36177 -0.23838,0.31066 -0.31066,0.23838 -0.36177,0.14985 -0.38823,0.0511 -0.38822,-0.0511 -0.36178,-0.14985 -0.31066,-0.23838 -0.23837,-0.31066 -0.14985,-0.36177 -0.0511,-0.38823 0.0511,-0.38823 0.14985,-0.36177"
     inkscape:connector-curvature="0" />
  <path
     id="face4-cut"
     style="fill:none;stroke:#000000;stroke-width:0.02822222;stroke-linecap:round;stroke-linejoin:round;stroke-miterlimit:4;stroke-dasharray:none;stroke-opacity:1"
     d="m 170.40888,196.78 1.58919,2.07107 2.07107,1.58919 2.41181,0.999 2.58819,0.34074 2.58819,-0.34074 2.41181,-0.999 2.07106,-1.58919 1.58919,-2.07107 0.99901,-2.41181 0.34074,-2.58819 -0.34074,-2.58819 -0.99901,-2.41181 -1.58919,-2.07106 -2.07106,-1.58919 -2.41181,-0.999 -2.58819,-0.34075 -2.58819,0.34075 -2.41181,0.999 -2.07107,1.58919 -1.58919,2.07106 -0.999,2.41181 -0.34074,2.58819 0.34074,2.58819 0.999,2.41181 m 8.66026,-7.2 0.5694,0.075 0.5306,0.21978 0.45563,0.34962 0.34962,0.45563 0.21978,0.5306 0.075,0.5694 -0.075,0.56941 -0.21978,0.53059 -0.34962,0.45564 -0.45563,0.34962 -0.5306,0.21978 -0.5694,0.075 -0.5694,-0.075 -0.5306,-0.21978 -0.45564,-0.34962 -0.34962,-0.45564 -0.21978,-0.53059 -0.075,-0.56941 0.075,-0.5694 0.21978,-0.5306 0.34962,-0.45563 0.45564,-0.34962 0.5306,-0.21978 0.5694,-0.075 m -4.71436,1.4 0.15984,0.38589 0.0545,0.41411 -0.0545,0.41411 -0.15984,0.38589 -0.25427,0.33137 -0.33137,0.25427 -0.38589,0.15985 -0.41411,0.0545 -0.41411,-0.0545 -0.38589,-0.15985 -0.33137,-0.25427 -0.25427,-0.33137 -0.15984,-0.38589 -0.0545,-0.41411 0.0545,-0.41411 0.15984,-0.38589 0.25427,-0.33137 0.33137,-0.25427 0.38589,-0.15984 0.41411,-0.0545 0.41411,0.0545 0.38589,0.15984 0.33137,0.25427 0.25427,0.33137 m 11.22847,2.34549 -0.41411,0.0545 -0.41411,-0.0545 -0.38589,-0.15985 -0.33137,-0.25427 -0.25427,-0.33137 -0.15984,-0.38589 -0.0545,-0.41411 0.0545,-0.41411 0.15984,-0.38589 0.25427,-0.33137 0.33137,-0.25427 0.38589,-0.15984 0.41411,-0.0545 0.41411,0.0545 0.38589,0.15984 0.33137,0.25427 0.25427,0.33137 0.15984,0.38589 0.0545,0.41411 -0.0545,0.41411 -0.15984,0.38589 -0.25427,0.33137 -0.33137,0.25427 -0.38589,0.15985"
     inkscape:connector-curvature="0" />
  <path
     id="face5-cut"
     style="fill:none;stroke:#000000;stroke-width:0.02822222;stroke-linecap:round;stroke-linejoin:round;stroke-miterlimit:4;stroke-dasharray:none;stroke-opacity:1"
     d="m 3.1509758,136.62862 3,0 0.02738,0.41768 0.08166,0.41054 0.134548,0.39637 0.185134,0.37541 0.23255,0.34804 0.275989,0.3147 0.314705,0.27599 0.348037,0.23255 0.375413,0.18513 0.396366,0.13455 0.410537,0.0817 0.417681,0.0273 3.6000002,0 0.417684,-0.0274 0.410537,-0.0817 0.396366,-0.13455 0.375413,-0.18513 0.348037,-0.23255 0.314705,-0.27599 0.275989,-0.3147 0.23255,-0.34804 0.185134,-0.37541 0.134548,-0.39637 0.08166,-0.41054 0.02738,-0.41762 13.8,0 0,-3.2 5.05,0 0,3.2 7.8,0 0.02738,0.41768 0.08166,0.41054 0.134548,0.39637 0.185134,0.37541 0.23255,0.34804 0.275989,0.3147 0.314705,0.27599 0.348037,0.23255 0.375413,0.18513 0.396366,0.13455 0.410537,0.0817 0.417684,0.0274 3.6,0 0.417684,-0.0274 0.410537,-0.0817 0.396366,-0.13455 0.375413,-0.18513 0.348037,-0.23255 0.314705,-0.27599 0.275989,-0.3147 0.23255,-0.34804 0.185134,-0.37541 0.134548,-0.39637 0.08166,-0.41054 0.02737,-0.41768 17.35,0 0.522113,0 0.513163,-0.1363 0.495458,-0.16818 0.469266,-0.23142 0.435046,-0.29069 0.393381,-0.34498 0.344986,-0.39338 0.290689,-0.43505 0.231416,-0.46927 0.168185,-0.49545 0.102076,-0.51318 0.03422,-0.5221 0,-51.500007 -0.03422,-0.5221 -0.102076,-0.51318 -0.168185,-0.49545 -0.231417,-0.46927 -0.290689,-0.43505 -0.344986,-0.39338 -0.393381,-0.34498 -0.435046,-0.29069 -0.469266,-0.23142 -0.495458,-0.16818 -0.513171,-0.10208 -0.522105,-0.03422 -41,0 0,-3.2 -0.04278,-0.65263 -0.127595,-0.64147 -0.210231,-0.61932 -0.289271,-0.58658 -0.36336,-0.54381 -0.431233,-0.49172 -0.491727,-0.43124 -0.543803,-0.36336 -0.586583,-0.28927 -0.619322,-0.21023 -0.641464,-0.12759 -0.652631,-0.04278 -21.0000002,0 0,67.700007 m 60.2000002,-26.01436 -0.331371,-0.25427 -0.25427,-0.33137 -0.15984,-0.38589 -0.05452,-0.41411 0.05452,-0.41411 0.15984,-0.38589 0.25427,-0.33137 0.33137,-0.25427 0.38589,-0.15984 0.41411,-0.0545 0.41411,0.0545 0.38589,0.15984 0.331371,0.25427 0.25427,0.33137 0.15984,0.38589 0.05452,0.41413 -0.05452,0.41411 -0.15984,0.38589 -0.25427,0.33137 -0.33137,0.25427 -0.38589,0.15984 -0.41411,0.0545 -0.41411,-0.0545 -0.38589,-0.15984 m 1.6,-14.971287 0.331371,0.25427 0.25427,0.33137 0.15984,0.38589 0.05452,0.41411 -0.05452,0.41411 -0.15984,0.38589 -0.25427,0.33137 -0.33137,0.25427 -0.38589,0.15984 -0.41411,0.05452 -0.41411,-0.05452 -0.38589,-0.15984 -0.331371,-0.25427 -0.25427,-0.33137 -0.15984,-0.38589 -0.05452,-0.41411 0.05452,-0.41411 0.15984,-0.38589 0.25427,-0.33137 0.33137,-0.25427 0.38589,-0.15984 0.41411,-0.05452 0.41411,0.0545 0.38589,0.15984 m -2.355635,5.930007 0.424264,-0.32555 0.03137,-0.0241 0.530598,-0.21978 0.569403,-0.0749 0.569402,0.075 0.530598,0.21978 0.455635,0.34963 0.349621,0.45563 0.219781,0.5306 0.07496,0.56936 -0.07496,0.5694 -0.219781,0.5306 -0.349621,0.45563 -0.455635,0.34963 -0.530598,0.21978 -0.569402,0.075 -0.569402,-0.075 -0.530598,-0.21978 -0.03137,-0.0241 -0.424264,-0.32555 -0.349621,-0.45563 -0.219781,-0.5306 -0.07496,-0.5694 0.07496,-0.5694 0.219781,-0.5306 0.349621,-0.45563 m -48.564216,24.95564 0,-6 3.2,0 0,6 -3.2,0 m 0,-10.5 0,-6 3.2,0 0,6 -3.2,0 m 3.119854,-42.100007 0.41411,0.0545 0.38589,0.15984 0.331371,0.25427 0.25427,0.33137 0.15984,0.38589 0.05452,0.41413 -0.05452,0.41411 -0.15984,0.38589 -0.25427,0.33137 -0.33137,0.25427 -0.38589,0.15984 -0.41411,0.05452 -0.41411,-0.05452 -0.38589,-0.15984 -0.331371,-0.25427 -0.25427,-0.33137 -0.15984,-0.38589 -0.05452,-0.41411 0.05452,-0.41411 0.15984,-0.38589 0.25427,-0.33137 0.33137,-0.25427 0.38589,-0.15984 0.41411,-0.05452 m -10.0000002,0 5.0000002,0 0,3.2 -5.0000002,0 0,-3.2 m 41.7813712,62.231377 -0.331371,0.25427 -0.38589,0.15984 -0.41411,0.0545 -0.41411,-0.0545 -0.38589,-0.15984 -0.331371,-0.25427 -0.25427,-0.33137 -0.15984,-0.38589 -0.05452,-0.41411 0.05452,-0.41411 0.15984,-0.38589 0.25427,-0.33137 0.331371,-0.25427 0.38589,-0.15984 0.41411,-0.0545 0.41411,0.0545 0.38589,0.15984 0.331371,0.25427 0.25427,0.33137 0.15984,0.38589 0.05452,0.41411 -0.05452,0.41411 -0.15984,0.38589 -0.25427,0.33137 m -37.367262,0.41411 -0.41411,0.0545 -0.41411,-0.0545 -0.38589,-0.15984 -0.331371,-0.25427 -0.2542702,-0.33137 -0.15984,-0.38589 -0.054519,-0.41411 0.05452,-0.41411 0.15984,-0.38589 0.2542702,-0.33137 0.33137,-0.25427 0.38589,-0.15984 0.41411,-0.0545 0.41411,0.0545 0.38589,0.15984 0.331371,0.25427 0.25427,0.33137 0.15984,0.38589 0.05452,0.41413 -0.05452,0.41411 -0.15984,0.38589 -0.25427,0.33137 -0.331371,0.25427 -0.38589,0.15984"
     inkscape:connector-curvature="0" />
  <path
     id="face6-cut"
     style="fill:none;stroke:#000000;stroke-width:0.02822222;stroke-linecap:round;stroke-linejoin:round;stroke-miterlimit:4;stroke-dasharray:none;stroke-opacity:1"
     d="m 4.46896,213.57466 3,0 0.02738,0.41768 0.08166,0.41054 0.134548,0.39637 0.185134,0.37541 0.23255,0.34804 0.275989,0.3147 0.314705,0.27599 0.348037,0.23255 0.375413,0.18513 0.396366,0.13455 0.410537,0.0817 0.417681,0.0273 3.600001,0 0.417684,-0.0274 0.410537,-0.0817 0.396366,-0.13455 0.375413,-0.18513 0.348037,-0.23255 0.314705,-0.27599 0.275989,-0.3147 0.23255,-0.34804 0.185134,-0.37541 0.134548,-0.39637 0.08166,-0.41054 0.02738,-0.41762 13.8,0 0,-3.2 5.05,0 0,3.2 7.8,0 0.02738,0.41768 0.08166,0.41054 0.134548,0.39637 0.185134,0.37541 0.23255,0.34804 0.275989,0.3147 0.314705,0.27599 0.348037,0.23255 0.375413,0.18513 0.396366,0.13455 0.410537,0.0817 0.417684,0.0274 3.6,0 0.417684,-0.0274 0.410537,-0.0817 0.396366,-0.13455 0.375413,-0.18513 0.348037,-0.23255 0.314705,-0.27599 0.275989,-0.3147 0.23255,-0.34804 0.185134,-0.37541 0.134548,-0.39637 0.08166,-0.41054 0.02737,-0.41768 17.35,0 0.522113,0 0.513163,-0.1363 0.495458,-0.16818 0.469266,-0.23142 0.435046,-0.29069 0.393381,-0.34498 0.344986,-0.39338 0.290689,-0.43505 0.231416,-0.46927 0.168185,-0.49545 0.102076,-0.51318 0.03422,-0.5221 0,-51.5 -0.03422,-0.5221 -0.102076,-0.51318 -0.168185,-0.49545 -0.231417,-0.46927 -0.290689,-0.43505 -0.344986,-0.39338 -0.393381,-0.34498 -0.435046,-0.29069 -0.469266,-0.23142 -0.495458,-0.16818 -0.513171,-0.10208 -0.522105,-0.0342 -41,0 0,-3.2 -0.04278,-0.65263 -0.127595,-0.64147 -0.210231,-0.61932 -0.289271,-0.58658 -0.36336,-0.54381 -0.431233,-0.49172 -0.491727,-0.43124 -0.543803,-0.36336 -0.586583,-0.28927 -0.619322,-0.21023 -0.641464,-0.12759 -0.652631,-0.0428 -21.000001,0 0,67.7 m 60.200001,-26.01436 -0.331371,-0.25427 -0.25427,-0.33137 -0.15984,-0.38589 -0.05452,-0.41411 0.05452,-0.41411 0.15984,-0.38589 0.25427,-0.33137 0.33137,-0.25427 0.38589,-0.15984 0.41411,-0.0545 0.41411,0.0545 0.38589,0.15984 0.331371,0.25427 0.25427,0.33137 0.15984,0.38589 0.05452,0.41413 -0.05452,0.41411 -0.15984,0.38589 -0.25427,0.33137 -0.331371,0.25427 -0.38589,0.15984 -0.41411,0.0545 -0.41411,-0.0545 -0.38589,-0.15984 m 1.6,-14.97128 0.331371,0.25427 0.25427,0.33137 0.15984,0.38589 0.05452,0.41411 -0.05452,0.41411 -0.15984,0.38589 -0.25427,0.33137 -0.33137,0.25427 -0.38589,0.15984 -0.41411,0.0545 -0.41411,-0.0545 -0.38589,-0.15984 -0.331371,-0.25427 -0.25427,-0.33137 -0.15984,-0.38589 -0.05452,-0.41411 0.05452,-0.41411 0.15984,-0.38589 0.25427,-0.33137 0.33137,-0.25427 0.38589,-0.15984 0.41411,-0.0545 0.41411,0.0545 0.38589,0.15984 m -2.355635,5.93001 0.424264,-0.32555 0.03137,-0.0241 0.530598,-0.21978 0.569403,-0.0749 0.569402,0.075 0.530598,0.21978 0.455635,0.34963 0.349621,0.45559 0.219781,0.5306 0.07496,0.5694 -0.07496,0.5694 -0.219781,0.5306 -0.349621,0.45563 -0.455635,0.34963 -0.530598,0.21978 -0.569402,0.075 -0.569402,-0.075 -0.530598,-0.21978 -0.03137,-0.0241 -0.424264,-0.32555 -0.349621,-0.45563 -0.219781,-0.5306 -0.07496,-0.5694 0.07496,-0.5694 0.219781,-0.5306 0.349621,-0.45563 m -48.564219,24.95563 0,-6 3.2,0 0,6 -3.2,0 m 0,-10.5 0,-6 3.2,0 0,6 -3.2,0 m 3.119854,-42.1 0.41411,0.0545 0.38589,0.15984 0.331371,0.25427 0.25427,0.33137 0.15984,0.38589 0.05452,0.41413 -0.05452,0.41411 -0.15984,0.38589 -0.25427,0.33137 -0.33137,0.25427 -0.38589,0.15984 -0.41411,0.0545 -0.41411,-0.0545 -0.38589,-0.15984 -0.331371,-0.25427 -0.25427,-0.33137 -0.15984,-0.38589 -0.05452,-0.41411 0.05452,-0.41411 0.15984,-0.38589 0.25427,-0.33137 0.33137,-0.25427 0.38589,-0.15984 0.41411,-0.0545 m -10.000001,0 5,0 0,3.2 -5,0 0,-3.2 m 41.781372,62.23137 -0.331371,0.25427 -0.38589,0.15984 -0.41411,0.0545 -0.41411,-0.0545 -0.38589,-0.15984 -0.331371,-0.25427 -0.25427,-0.33137 -0.15984,-0.38589 -0.05452,-0.41411 0.05452,-0.41411 0.15984,-0.38589 0.25427,-0.33137 0.331371,-0.25427 0.38589,-0.15984 0.41411,-0.0545 0.41411,0.0545 0.38589,0.15984 0.331371,0.25427 0.25427,0.33137 0.15984,0.38589 0.05452,0.41411 -0.05452,0.41411 -0.15984,0.38589 -0.25427,0.33137 m -37.367261,0.41411 -0.41411,0.0545 -0.41411,-0.0545 -0.38589,-0.15984 -0.331371,-0.25427 -0.25427,-0.33137 -0.15984,-0.38589 -0.05452,-0.41411 0.05452,-0.41411 0.15984,-0.38589 0.25427,-0.33137 0.33137,-0.25427 0.38589,-0.15984 0.41411,-0.0545 0.41411,0.0545 0.38589,0.15984 0.331371,0.25427 0.25427,0.33137 0.159841,0.38589 0.05452,0.41413 -0.05452,0.41411 -0.159841,0.38589 -0.25427,0.33137 -0.331371,0.25427 -0.38589,0.15984"
     inkscape:connector-curvature="0" />
  <path
     id="face7-cut"
     style="fill:none;stroke:#000000;stroke-width:0.02822222;stroke-linecap:round;stroke-linejoin:round;stroke-miterlimit:4;stroke-dasharray:none;stroke-opacity:1"
     d="m 8.7158762,478.94573 0.983454,0.86246 1.0876138,0.72672 1.173166,0.57855 1.238644,0.42046 1.282928,0.25519 1.305263,0.0856 10,0 0,-255.1 -10,0 -1.305263,0.0856 -1.282928,0.25519 -1.238644,0.42046 -1.173166,0.5785 -1.0876138,0.72672 -0.983454,0.86246 -0.862465,0.98346 -0.726721,1.08761 -0.578541,1.17317 -0.4204629,1.23864 -0.255191,1.28293 -0.085551,1.30526 0,10.1 10.0000007,0 0,3 -10.0000007,0 0,208.9 10.0000007,0 0,3 -10.0000007,0 0,10.1 0.08555,1.30526 0.255191,1.28293 0.4204629,1.23864 0.578541,1.17317 0.726721,1.08761 0.862465,0.98346"
     inkscape:connector-curvature="0" />
  <path
     id="face8-cut"
     style="fill:none;stroke:#000000;stroke-width:0.02822222;stroke-linecap:round;stroke-linejoin:round;stroke-miterlimit:4;stroke-dasharray:none;stroke-opacity:1"
     d="m 46.996416,478.44529 -0.983453,0.86246 -1.087615,0.72672 -1.173165,0.57854 -1.238644,0.42047 -1.282929,0.25519 -1.305262,0.0856 -10,0 0,-255.1 10,0 1.305262,0.0856 1.282929,0.25519 1.238644,0.42046 1.173165,0.57854 1.087615,0.72673 0.983453,0.86246 0.862466,0.98345 0.72672,1.08762 0.578542,1.17316 0.420463,1.23865 0.25519,1.28293 0.08555,1.30526 0,10.1 -10,0 0,3 10,0 0,208.9 -10,0 0,3 10,0 0,10.1 -0.08555,1.30526 -0.25519,1.28293 -0.420463,1.23864 -0.578542,1.17317 -0.72672,1.08761 -0.862466,0.98346"
     inkscape:connector-curvature="0" />
  <path
     id="face9-cut"
     style="fill:none;stroke:#000000;stroke-width:0.02822222;stroke-linecap:round;stroke-linejoin:round;stroke-miterlimit:4;stroke-dasharray:none;stroke-opacity:1"
     d="m 172.96273,226.68654 1.58919,2.07107 2.07107,1.58918 2.41181,0.99901 2.58819,0.34074 2.58819,-0.34074 2.41181,-0.99901 2.07106,-1.58918 1.58919,-2.07107 0.99901,-2.41181 0.34074,-2.58819 -0.34074,-2.58819 -0.99901,-2.41181 -1.58919,-2.07107 -2.07106,-1.58918 -2.41181,-0.99901 -2.58819,-0.34074 -2.58819,0.34074 -2.41181,0.99901 -2.07107,1.58918 -1.58919,2.07107 -0.999,2.41181 -0.34074,2.58819 0.34074,2.58819 0.999,2.41181 m 3.9459,-5.8 0.15984,0.38589 0.0545,0.41411 -0.0545,0.41411 -0.15984,0.38589 -0.25427,0.33137 -0.33137,0.25427 -0.38589,0.15984 -0.41411,0.0545 -0.41411,-0.0545 -0.38589,-0.15984 -0.33137,-0.25427 -0.25427,-0.33137 -0.15984,-0.38589 -0.0545,-0.41411 0.0545,-0.41411 0.15984,-0.38589 0.25427,-0.33137 0.33137,-0.25427 0.38589,-0.15984 0.41411,-0.0545 0.41411,0.0545 0.38589,0.15984 0.33137,0.25427 0.25427,0.33137 m 11.22847,2.34548 -0.41411,0.0545 -0.41411,-0.0545 -0.38589,-0.15984 -0.33137,-0.25427 -0.25427,-0.33137 -0.15984,-0.38589 -0.0545,-0.41411 0.0545,-0.41411 0.15984,-0.38589 0.25427,-0.33137 0.33137,-0.25427 0.38589,-0.15984 0.41411,-0.0545 0.41411,0.0545 0.38589,0.15984 0.33137,0.25427 0.25427,0.33137 0.15984,0.38589 0.0545,0.41411 -0.0545,0.41411 -0.15984,0.38589 -0.25427,0.33137 -0.33137,0.25427 -0.38589,0.15984 m -5.26411,-3.71055 0.25,0.19184 0,3.94646 -0.25,0.19183 -0.60296,0.24975 -0.64704,0.0852 -0.64705,-0.0852 -0.60295,-0.24975 -0.25,-0.19183 0,-1.97323 0,-1.97323 0.25,-0.19184 0.60295,-0.24975 0.64705,-0.0852 0.64704,0.0852 0.60296,0.24975"
     inkscape:connector-curvature="0" />
  <path
     id="face10-cut"
     style="fill:none;stroke:#000000;stroke-width:0.02822222;stroke-linecap:round;stroke-linejoin:round;stroke-miterlimit:4;stroke-dasharray:none;stroke-opacity:1"
     d="m 176.62299,243.02628 -2.07107,1.58919 -1.58919,2.07107 -0.999,2.41181 -0.34074,2.58819 0.34074,2.58819 0.999,2.41181 1.58919,2.07107 2.07107,1.58918 2.41181,0.99901 2.58819,0.34074 2.58819,-0.34074 2.41181,-0.99901 2.07106,-1.58918 1.58919,-2.07107 0.99901,-2.41181 0.34074,-2.58819 -0.34074,-2.58819 -0.99901,-2.41181 -1.58919,-2.07107 -2.07106,-1.58919 -2.41181,-0.999 -2.58819,-0.34074 -2.58819,0.34074 -2.41181,0.999 m 7.2,8.66026 -0.075,0.5694 -0.21978,0.5306 -0.34962,0.45563 -0.45563,0.34962 -0.5306,0.21978 -0.5694,0.075 -0.56941,-0.075 -0.53059,-0.21978 -0.45564,-0.34962 -0.34962,-0.45563 -0.21978,-0.5306 -0.075,-0.5694 0.075,-0.5694 0.21978,-0.5306 0.34962,-0.45564 0.45564,-0.34962 0.53059,-0.21978 0.56941,-0.075 0.5694,0.075 0.5306,0.21978 0.45563,0.34962 0.34962,0.45564 0.21978,0.5306 0.075,0.5694 m -1.4,-4.71436 -0.38589,0.15984 -0.41411,0.0545 -0.41411,-0.0545 -0.38589,-0.15984 -0.33137,-0.25427 -0.25427,-0.33137 -0.15984,-0.38589 -0.0545,-0.41411 0.0545,-0.41411 0.15984,-0.38589 0.25427,-0.33137 0.33137,-0.25427 0.38589,-0.15984 0.41411,-0.0545 0.41411,0.0545 0.38589,0.15984 0.33137,0.25427 0.25427,0.33137 0.15984,0.38589 0.0545,0.41411 -0.0545,0.41411 -0.15984,0.38589 -0.25427,0.33137 -0.33137,0.25427 m -2.34548,11.22847 -0.0545,-0.41411 0.0545,-0.41411 0.15984,-0.38589 0.25427,-0.33137 0.33137,-0.25427 0.38589,-0.15984 0.41411,-0.0545 0.41411,0.0545 0.38589,0.15984 0.33137,0.25427 0.25427,0.33137 0.15984,0.38589 0.0545,0.41411 -0.0545,0.41411 -0.15984,0.38589 -0.25427,0.33137 -0.33137,0.25427 -0.38589,0.15984 -0.41411,0.0545 -0.41411,-0.0545 -0.38589,-0.15984 -0.33137,-0.25427 -0.25427,-0.33137 -0.15984,-0.38589"
     inkscape:connector-curvature="0" />
  <path
     id="face11-cut"
     style="fill:none;stroke:#000000;stroke-width:0.02822222;stroke-linecap:round;stroke-linejoin:round;stroke-miterlimit:4;stroke-dasharray:none;stroke-opacity:1"
     d="m 58.526508,287.17516 -3.9,0 0,183.6 3.9,0 0,3.2 6,0 0,-3.2 4.5,0 0,3.2 6,0 0,-3.2 7.1,0 0,-35 3.2,0 0,-5 -3.2,0 0,-103.6 3.2,0 0,-5 -3.2,0 0,-35 -7.1,0 0,-3.2 -6,0 0,3.2 -4.5,0 0,-3.2 -6,0 0,3.2"
     inkscape:connector-curvature="0" />
  <path
     id="face12-cut"
     style="fill:none;stroke:#000000;stroke-width:0.02822222;stroke-linecap:round;stroke-linejoin:round;stroke-miterlimit:4;stroke-dasharray:none;stroke-opacity:1"
     d="m 99.262829,286.09663 -6.500002,0 0,183.6 6.500002,0 -8.4e-4,-5.1947 -1.4,2e-4 -4.1e-4,-2.8004 1.4,0 -4.4e-4,-2.9993 3.200441,-5e-4 0,2.9998 1.40041,0 0,2.7997 -1.4,0 7.7e-4,5.1952 17.13184,0 0,3.2 4.96823,0 0,-3.2 11.13177,-1e-4 -8.4e-4,-5.1946 -1.4,2e-4 -4.1e-4,-2.8005 1.4,0 -4.4e-4,-2.9992 3.20044,-6e-4 0,2.9998 1.40041,0 0,2.7997 -1.4,1e-4 7.7e-4,5.1952 6.4683,0 0,-183.6 -6.4683,0 8.3e-4,5.1947 1.4,-3e-4 0.012,2.9774 -1.41111,0 0,2.8223 -3.20044,6e-4 0,-2.9998 -1.40041,0 0,-2.8222 1.4,0.022 -7.7e-4,-5.1952 -11.13177,0 0,-3.2 -5,0 0,3.2 -17.10007,0 8.4e-4,5.1947 1.4,-2e-4 0.0111,2.8224 -1.41112,0 8.6e-4,2.9773 -3.200441,5e-4 0,-2.9998 -1.40041,0 -1e-5,-2.7997 1.4,0 -7.6e-4,-5.1952 m 4.400001,148.6 0,-5 3.2,0 0,5 -3.2,0 m 0,-113.6 3.2,0 0,5 -3.2,0 0,-5"
     inkscape:connector-curvature="0"
     sodipodi:nodetypes="ccccccccccccccccccccccccccccccccccccccccccccccccccccccccccccccccccccccc" />
  <path
     id="face13-cut"
     style="fill:none;stroke:#000000;stroke-width:0.02822222;stroke-linecap:round;stroke-linejoin:round;stroke-miterlimit:4;stroke-dasharray:none;stroke-opacity:1"
     d="m 153.41757,470.5808 5,0 0,-3.2 3.5,0 0,-5.2 -1.4,0 0,-2.8 1.4,0 0,-3 3.2,0 0,3 1.4,0 0,2.8 -1.6,0 0,5.2 10.5,0 0,3.2 4,0 0.5221,-0.0342 0.51317,-0.10207 0.49546,-0.16819 0.46927,-0.23142 0.43504,-0.29068 0.39338,-0.34499 0.34499,-0.39338 0.29069,-0.43505 0.23141,-0.46926 0.16819,-0.49546 0.10208,-0.51317 0.0342,-0.52211 0,-12.5 -0.0342,-0.5221 -0.10208,-0.51317 -0.16819,-0.49546 -0.23141,-0.46927 -0.29069,-0.43504 -0.34499,-0.39339 -0.39338,-0.34498 -0.43504,-0.29069 -0.46927,-0.23142 -0.49546,-0.16818 -0.51317,-0.10208 -0.5221,-0.0342 -2.84701,-0.37481 -2.65299,-1.09891 -2.27818,-1.7481 -1.7481,-2.27818 -1.09891,-2.65299 -0.37481,-2.84701 0.37481,-2.84701 1.09891,-2.65299 1.7481,-2.27817 2.27818,-1.74811 2.65299,-1.0989 2.84701,-0.37482 0.5221,-0.0342 0.51317,-0.10207 0.49546,-0.16819 0.46927,-0.23142 0.43504,-0.29068 0.39338,-0.34499 0.34499,-0.39338 0.29069,-0.43505 0.23141,-0.46926 0.16819,-0.49546 0.10208,-0.51317 0.0342,-0.52211 0,-5 -0.0342,-0.5221 -0.10208,-0.51317 -0.16819,-0.49546 -0.23141,-0.46927 -0.29069,-0.43504 -0.34499,-0.39339 -0.39338,-0.34498 -0.43504,-0.29069 -0.46927,-0.23142 -0.49546,-0.16818 -0.51317,-0.10208 -0.5221,-0.0342 -0.52211,-0.0342 -0.51317,-0.10207 -0.49546,-0.16819 -0.46926,-0.23142 -0.43505,-0.29068 -0.39338,-0.34499 -0.34499,-0.39338 -0.29069,-0.43505 -0.23141,-0.46926 -0.16819,-0.49546 -0.10207,-0.51317 -0.0342,-0.52211 0,-71 0.0342,-0.5221 0.10207,-0.51317 0.16819,-0.49546 0.23141,-0.46927 0.29069,-0.43504 0.34499,-0.39339 0.39338,-0.34498 0.43505,-0.29069 0.46926,-0.23142 0.49546,-0.16818 0.51317,-0.10208 0.52211,-0.0342 0.5221,-0.0342 0.51317,-0.10207 0.49546,-0.16819 0.46927,-0.23142 0.43504,-0.29068 0.39338,-0.34499 0.34499,-0.39338 0.29069,-0.43505 0.23141,-0.46926 0.16819,-0.49546 0.10208,-0.51317 0.0342,-0.52211 0,-5 -0.0342,-0.5221 -0.10208,-0.51317 -0.16819,-0.49546 -0.23141,-0.46927 -0.29069,-0.43504 -0.34499,-0.39339 -0.39338,-0.34498 -0.43504,-0.29069 -0.46927,-0.23142 -0.49546,-0.16818 -0.51317,-0.10208 -0.5221,-0.0342 -2.84701,-0.37481 -2.65299,-1.09891 -2.27818,-1.7481 -1.7481,-2.27818 -1.09891,-2.65299 -0.37481,-2.84701 0.37481,-2.84701 1.09891,-2.65299 1.7481,-2.27817 2.27818,-1.74811 2.65299,-1.0989 2.84701,-0.37482 0.5221,-0.0342 0.51317,-0.10207 0.49546,-0.16819 0.46927,-0.23142 0.43504,-0.29068 0.39338,-0.34499 0.34499,-0.39338 0.29069,-0.43505 0.23141,-0.46926 0.16819,-0.49546 0.10208,-0.51317 0.0342,-0.52211 0,-12.5 -0.0342,-0.5221 -0.10208,-0.51317 -0.16819,-0.49546 -0.23141,-0.46927 -0.29069,-0.43504 -0.34499,-0.39339 -0.39338,-0.34498 -0.43504,-0.29069 -0.46927,-0.23142 -0.49546,-0.16818 -0.51317,-0.10208 -0.5221,-0.0342 -4,0 0,3.2 -10.5,0 0,5.2 1.6,0 0,2.8 -1.4,0 0,3 -3.2,0 0,-3 -1.4,0 0,-2.8 1.4,0 0,-5.2 -3.5,0 0,-3.2 -5,0 0,190 m 16.7272,-12.72721 -0.28605,-0.37279 -0.17982,-0.43412 -0.0613,-0.46588 0.0613,-0.46587 0.17982,-0.43413 0.28605,-0.37279 0.3728,-0.28605 0.43412,-0.17982 0.46588,-0.0613 0.46587,0.0613 0.43413,0.17982 0.37279,0.28605 0.28605,0.37279 0.17982,0.43413 0.0613,0.46587 -0.0613,0.46588 -0.17982,0.43412 -0.28605,0.37279 -0.37279,0.28606 -0.43413,0.17982 -0.46587,0.0613 -0.46588,-0.0613 -0.43412,-0.17982 -0.3728,-0.28606 m 1.73867,-38.01145 0.43413,0.17982 0.37279,0.28605 0.28605,0.37279 0.17982,0.43413 0.0613,0.46587 -0.0613,0.46588 -0.17982,0.43412 -0.28605,0.37279 -0.37279,0.28606 -0.43413,0.17982 -0.46587,0.0613 -0.46588,-0.0613 -0.43412,-0.17982 -0.3728,-0.28606 -0.28605,-0.37279 -0.17982,-0.43412 -0.0613,-0.46588 0.0613,-0.46587 0.17982,-0.43413 0.28605,-0.37279 0.3728,-0.28605 0.43412,-0.17982 0.46588,-0.0613 0.46587,0.0613 m 1.27279,-89.79546 -0.17982,0.43412 -0.28605,0.37279 -0.37279,0.28606 -0.43413,0.17982 -0.46587,0.0613 -0.46588,-0.0613 -0.43412,-0.17982 -0.3728,-0.28606 -0.28605,-0.37279 -0.17982,-0.43412 -0.0613,-0.46588 0.0613,-0.46587 0.17982,-0.43413 0.28605,-0.37279 0.3728,-0.28605 0.43412,-0.17982 0.46588,-0.0613 0.46587,0.0613 0.43413,0.17982 0.37279,0.28605 0.28605,0.37279 0.17982,0.43413 0.0613,0.46587 -0.0613,0.46588 m -3.29751,-36.36588 0.28605,-0.37279 0.3728,-0.28605 0.43412,-0.17982 0.46588,-0.0613 0.46587,0.0613 0.43413,0.17982 0.37279,0.28605 0.28605,0.37279 0.17982,0.43413 0.0613,0.46587 -0.0613,0.46588 -0.17982,0.43412 -0.28605,0.37279 -0.37279,0.28606 -0.43413,0.17982 -0.46587,0.0613 -0.46588,-0.0613 -0.43412,-0.17982 -0.3728,-0.28606 -0.28605,-0.37279 -0.17982,-0.43412 -0.0613,-0.46588 0.0613,-0.46587 0.17982,-0.43413"
     inkscape:connector-curvature="0" />
  <path
     id="face0-interior"
     style="fill:none;stroke:#000000;stroke-width:0.02822222;stroke-linecap:round;stroke-linejoin:round;stroke-miterlimit:4;stroke-dasharray:none;stroke-opacity:1"
     d="m 1.8547534,-321.34332 m 1.589186,2.07106 m 2.071068,1.58919 m 2.41181,0.999 m 2.5881906,0.34075 m 2.58819,-0.34075 m 2.41181,-0.999 m 2.071068,-1.58919 m 1.589186,-2.07106 m 0.999004,-2.41181 m 0.340742,-2.58819 m -0.340742,-2.58819 m -0.999004,-2.41181 m -1.589186,-2.07107 m -2.071068,-1.58919 m -2.41181,-0.999 m -2.58819,-0.34074 m -2.5881906,0.34074 m -2.41181,0.999 m -2.071068,1.58919 m -1.589186,2.07107 m -0.99900399,2.41181 m -0.340742,2.58819 m 0.340742,2.58819 m 4.94489899,-3.38819 m 0.15984,0.38589 m 0.054519,0.41411 m -0.05452,0.41411 m -0.159839,0.38589 m -0.25427,0.33137 m -0.331371,0.25427 m -0.38589,0.15984 m -0.41411,0.0545 m -0.41411,-0.0545 m -0.38589,-0.15984 m -0.331371,-0.25427 m -0.25427,-0.33137 m -0.15984,-0.38589 m -0.054519,-0.41411 m 0.05452,-0.41411 m 0.159839,-0.38589 m 0.25427,-0.33137 m 0.331371,-0.25427 m 0.38589,-0.15984 m 0.41411,-0.0545 m 0.41411,0.0545 m 0.38589,0.15984 m 0.331371,0.25427 m 11.4827396,2.67685 m -0.41411,0.0545 m -0.41411,-0.0545 m -0.38589,-0.15984 m -0.331371,-0.25427 m -0.25427,-0.33137 m -0.15984,-0.38589 m -0.05452,-0.41411 m 0.05452,-0.41411 m 0.159839,-0.38589 m 0.25427,-0.33137 m 0.331371,-0.25427 m 0.38589,-0.15984 m 0.41411,-0.0545 m 0.41411,0.0545 m 0.38589,0.15984 m 0.331371,0.25427 m 0.25427,0.33137 m 0.15984,0.38589 m 0.05452,0.41411 m -0.05452,0.41411 m -0.159839,0.38589 m -0.25427,0.33137 m -0.331371,0.25427 m -5.65,-3.55071 m 0.25,0.19183 m 0,3.94647 m -0.25,0.19183 m -0.602952,0.24975 m -0.647048,0.0852 m -0.6470486,-0.0852 m -0.602952,-0.24976 m -0.25,-0.19183 m 0,-1.97323 m 0,-1.97324 m 0.25,-0.19183 m 0.602952,-0.24975 m 0.6470486,-0.0852 m 0.647048,0.0852"
     inkscape:connector-curvature="0" />
  <path
     id="face1-interior"
     style="fill:none;stroke:#000000;stroke-width:0.02822222;stroke-linecap:round;stroke-linejoin:round;stroke-miterlimit:4;stroke-dasharray:none;stroke-opacity:1"
     d="m 261.26157,171.04962 m 0,-73.200004 m 11,0 m 0.65263,-0.0428 m 0.64146,-0.1276 m 0.61932,-0.21023 m 0.58659,-0.28927 m 0.5438,-0.36336 m 0.49173,-0.43123 m 0.43123,-0.49173 m 0.36336,-0.54381 m 0.28927,-0.58658 m 0.21024,-0.61932 m 0.12759,-0.64146 m 0.0428,-0.65264 m 0,-5 m -0.0428,-0.65263 m -0.12759,-0.64146 m -0.21024,-0.61932 m -0.28927,-0.58659 m -0.36336,-0.5438 m -0.43123,-0.49173 m -0.49173,-0.43123 m -0.5438,-0.36336 m -0.58659,-0.28927 m -0.61932,-0.21023 m -0.64146,-0.1276 m -0.65263,-0.0428 m -9.38399,0 m -0.0249,0.18917 m -1.19881,2.89417 m -1.90702,2.48528 m -2.48528,1.90702 m -2.89417,1.19881 m -3.10583,0.40889 m -3.10583,-0.40889 m -2.89417,-1.19881 m -2.48528,-1.90702 m -1.90703,-2.48528 m -1.1988,-2.89417 m -0.0249,-0.18917 m -9.38398,0 m -0.8037,0.21615 m -0.76867,0.31903 m -0.72056,0.41646 m -0.66015,0.5068 m -0.58849,0.58849 m -0.5068,0.66015 m -0.41646,0.72055 m -0.31902,0.76868 m -0.21615,0.80369 m 0,5 m 0.0428,0.65264 m 0.1276,0.64146 m 0.21023,0.61932 m 0.28927,0.58658 m 0.36336,0.54381 m 0.43123,0.49173 m 0.49173,0.43123 m 0.54381,0.36336 m 0.58658,0.28927 m 0.61932,0.21023 m 0.64147,0.1276 m 0.65263,0.0428 m 11,0 m 0,73.200004 m -30,0 m -1.30526,0.0856 m -1.28293,0.25519 m -1.23865,0.42046 m -1.17316,0.57854 m -1.08766,0.7267 m -0.98345,0.86247 m -0.86247,0.98345 m -0.72672,1.08761 m -0.57854,1.17317 m -0.42046,1.23864 m -0.25519,1.28293 m -0.0856,1.30526 m 0,10 m 30.1,0 m 0,-10 m 3,0 m 0,10 m 33.8,0 m 0,-10 m 3,0 m 0,10 m 30.1,0 m 0,-10 m -0.0856,-1.30526 m -0.25519,-1.28293 m -0.42047,-1.23864 m -0.57854,-1.17317 m -0.72672,-1.08761 m -0.86247,-0.98345 m -0.98345,-0.86247 m -1.08761,-0.72672 m -1.17317,-0.57854 m -1.23864,-0.42046 m -1.28293,-0.25519 m -1.30526,-0.0856 M 269.27911,88.216086 m 0.48236,0.1998 m 0.41421,0.31784 m 0.31784,0.41421 m 0.1998,0.48236 m 0.0681,0.51764 m -0.0681,0.51764 m -0.1998,0.48236 m -0.31784,0.41421 m -0.41421,0.31784 m -0.48236,0.1998 m -0.51764,0.0681 m -0.51764,-0.0681 m -0.48236,-0.1998 m -0.41422,-0.31784 m -0.31783,-0.41421 m -0.1998,-0.48236 m -0.0682,-0.51764 m 0.0682,-0.51764 m 0.1998,-0.48236 m 0.31783,-0.41421 m 0.41422,-0.31784 m 0.48236,-0.1998 m 0.51764,-0.0682 m -36.41422,0.78743 m 0.41422,-0.31784 m 0.48236,-0.1998 m 0.51764,-0.0681 m 0.51764,0.0681 m 0.48236,0.1998 m 0.41421,0.31784 m 0.31784,0.41421 m 0.1998,0.48237 m 0.0682,0.51763 m -0.0682,0.51764 m -0.1998,0.48236 m -0.31784,0.41422 m -0.41421,0.31784 m -0.48236,0.1998 m -0.51764,0.0681 m -0.51764,-0.0681 m -0.48236,-0.1998 m -0.41422,-0.31784 m -0.31783,-0.41422 m -0.1998,-0.48236 m -0.0682,-0.51764 m 0.0682,-0.51763 m 0.1998,-0.48237"
     inkscape:connector-curvature="0" />
  <path
     id="face4-interior"
     style="fill:none;stroke:#000000;stroke-width:0.02822222;stroke-linecap:round;stroke-linejoin:round;stroke-miterlimit:4;stroke-dasharray:none;stroke-opacity:1"
     d="m 1.8547534,48.656676 m 1.589186,2.07107 m 2.071068,1.58918 m 2.41181,0.99901 m 2.5881906,0.34074 m 2.58819,-0.34074 m 2.41181,-0.99901 m 2.071068,-1.58918 m 1.589186,-2.07107 m 0.999004,-2.41181 m 0.340742,-2.58819 m -0.340742,-2.58819 m -0.999004,-2.41181 m -1.589186,-2.07107 m -2.071068,-1.58918 m -2.41181,-0.99901 m -2.58819,-0.34074 m -2.5881906,0.34074 m -2.41181,0.99901 m -2.071068,1.58918 m -1.589186,2.07107 m -0.99900399,2.41181 m -0.340742,2.58819 m 0.340742,2.58819 m 9.65925859,-4.78819 m 0.569402,0.075 m 0.530598,0.21974 m 0.455635,0.34963 m 0.349621,0.45563 m 0.219781,0.5306 m 0.07496,0.5694 m -0.07496,0.5694 m -0.219784,0.5306 m -0.349621,0.45563 m -0.455635,0.34963 m -0.530598,0.21978 m -0.569402,0.07496 m -0.5694026,-0.075 m -0.530598,-0.21974 m -0.455635,-0.34963 m -0.349621,-0.45563 m -0.219781,-0.5306 m -0.074963,-0.5694 m 0.07496,-0.5694 m 0.219784,-0.5306 m 0.349621,-0.45563 m 0.455635,-0.34963 m 0.530598,-0.21978 m -4.144957,1.32504 m 0.15984,0.38589 m 0.054519,0.41411 m -0.05452,0.41411 m -0.159839,0.38589 m -0.25427,0.33137 m -0.331371,0.25427 m -0.38589,0.15984 m -0.41411,0.05452 m -0.41411,-0.0545 m -0.38589,-0.15986 m -0.331371,-0.25427 m -0.25427,-0.33137 m -0.15984,-0.38589 m -0.054519,-0.41411 m 0.05452,-0.41411 m 0.159839,-0.38589 m 0.25427,-0.33137 m 0.331371,-0.25427 m 0.38589,-0.15984 m 0.41411,-0.05452 m 0.41411,0.0545 m 0.38589,0.15986 m 0.331371,0.25427 m 11.4827396,2.67685 m -0.41411,0.05452 m -0.41411,-0.0545 m -0.38589,-0.15986 m -0.331371,-0.25427 m -0.25427,-0.33137 m -0.15984,-0.38589 m -0.05452,-0.41411 m 0.05452,-0.41411 m 0.159839,-0.38589 m 0.25427,-0.33137 m 0.331371,-0.25427 m 0.38589,-0.15984 m 0.41411,-0.05452 m 0.41411,0.0545 m 0.38589,0.15986 m 0.331371,0.25427 m 0.25427,0.33137 m 0.15984,0.38589 m 0.05452,0.41411 m -0.05452,0.41411 m -0.159839,0.38589 m -0.25427,0.33137 m -0.331371,0.25427"
     inkscape:connector-curvature="0" />
  <path
     id="face5-interior"
     style="fill:none;stroke:#000000;stroke-width:0.02822222;stroke-linecap:round;stroke-linejoin:round;stroke-miterlimit:4;stroke-dasharray:none;stroke-opacity:1"
     d="m 0.51500741,131.35668 m 2.99999999,0 m 0.02738,0.41768 m 0.08166,0.41054 m 0.134548,0.39637 m 0.185131,0.37541 m 0.23255,0.34804 m 0.275989,0.3147 m 0.314705,0.27599 m 0.348037,0.23255 m 0.375413,0.18513 m 0.396366,0.13455 m 0.410537,0.0817 m 0.417684,0.0273 m 3.6000006,0 m 0.417684,-0.0274 m 0.410537,-0.0817 m 0.396366,-0.13455 m 0.375413,-0.18507 m 0.348037,-0.23255 m 0.314705,-0.27599 m 0.275989,-0.3147 m 0.23255,-0.34804 m 0.185134,-0.37541 m 0.134548,-0.39637 m 0.08166,-0.41054 m 0.02738,-0.41768 m 13.8,0 m 0,-3.2 m 5.05,0 m 0,3.2 m 7.8,0 m 0.02738,0.41768 m 0.08166,0.41054 m 0.134548,0.39637 m 0.185131,0.37541 m 0.23255,0.34804 m 0.275989,0.3147 m 0.314705,0.27599 m 0.348037,0.23255 m 0.375413,0.18513 m 0.396366,0.13455 m 0.410537,0.0817 m 0.417684,0.0273 m 3.6,0 m 0.417684,-0.0274 m 0.410537,-0.0817 m 0.396366,-0.13455 m 0.375413,-0.18507 m 0.348037,-0.23255 m 0.314705,-0.27599 m 0.275989,-0.3147 m 0.23255,-0.34804 m 0.185134,-0.37541 m 0.134548,-0.39637 m 0.08166,-0.41054 m 0.02738,-0.41768 m 17.35,0 m 0.522113,0 m 0.513163,-0.1363 m 0.495458,-0.16818 m 0.469266,-0.23142 m 0.435046,-0.29069 m 0.393381,-0.34498 m 0.344986,-0.39338 m 0.290689,-0.43505 m 0.231416,-0.46927 m 0.168185,-0.49545 m 0.102076,-0.51318 m 0.03422,-0.5221 m 0,-51.500004 m -0.03422,-0.5221 m -0.102076,-0.51318 m -0.168185,-0.49545 m -0.231417,-0.46927 m -0.290689,-0.43505 m -0.344986,-0.39338 m -0.393381,-0.34498 m -0.435046,-0.29069 m -0.469266,-0.23142 m -0.495458,-0.16818 m -0.513171,-0.10208 m -0.522105,-0.03422 m -41,0 m 0,-3.2 m -0.04278,-0.65263 m -0.127595,-0.64147 m -0.210231,-0.61932 m -0.289267,-0.58658 m -0.36336,-0.54381 m -0.431233,-0.49172 m -0.491727,-0.43124 m -0.543807,-0.36336 m -0.586583,-0.28927 m -0.619322,-0.21023 m -0.641464,-0.12759 m -0.652631,-0.04278 m -21.00000059,0 M 60.715008,105.34232 m -0.331371,-0.25427 m -0.25427,-0.33137 m -0.15984,-0.38589 m -0.05452,-0.41411 m 0.05452,-0.41411 m 0.159839,-0.38589 m 0.25427,-0.33137 m 0.331371,-0.25427 m 0.38589,-0.15984 m 0.41411,-0.0545 m 0.41411,0.0545 m 0.38589,0.15986 m 0.331371,0.25427 m 0.25427,0.33137 m 0.15984,0.38589 m 0.05452,0.41411 m -0.05452,0.41411 m -0.159839,0.38589 m -0.25427,0.33137 m -0.331371,0.25427 m -0.38589,0.15984 m -0.41411,0.0545 m -0.41411,-0.0545 m 1.21411,-15.131144 m 0.331371,0.25427 m 0.25427,0.33137 m 0.15984,0.38589 m 0.05452,0.41411 m -0.05452,0.41411 m -0.159839,0.38589 m -0.25427,0.33137 m -0.331371,0.25427 m -0.38589,0.15984 m -0.41411,0.05452 m -0.41411,-0.0545 m -0.38589,-0.15986 m -0.331371,-0.25427 m -0.25427,-0.33137 m -0.15984,-0.38589 m -0.05452,-0.41411 m 0.05452,-0.41411 m 0.159839,-0.38589 m 0.25427,-0.33137 m 0.331371,-0.25427 m 0.38589,-0.15984 m 0.41411,-0.05452 m 0.41411,0.0545 m -1.969745,6.08985 m 0.424264,-0.32555 m 0.03137,-0.02406 m 0.530598,-0.21978 m 0.569402,-0.07496 m 0.569402,0.075 m 0.530598,0.21974 m 0.455635,0.34963 m 0.349621,0.45563 m 0.219781,0.5306 m 0.07496,0.5694 m -0.07496,0.5694 m -0.219784,0.5306 m -0.349621,0.45563 m -0.455635,0.34963 m -0.530598,0.21978 m -0.569402,0.07496 m -0.569402,-0.075 m -0.530598,-0.21974 m -0.03137,-0.0241 m -0.424264,-0.32555 m -0.349622,-0.45561 m -0.219781,-0.5306 m -0.07496,-0.5694 m 0.07496,-0.5694 m 0.219784,-0.5306 M 11.395154,121.25668 m 0,-6 m 3.2,0 m 0,6 m -3.2,-10.5 m 0,-6 m 3.2,0 m 0,6 m -0.08015,-42.100004 m 0.41411,0.0545 m 0.38589,0.15986 m 0.331371,0.25427 m 0.25427,0.33137 m 0.15984,0.38589 m 0.05452,0.41411 m -0.05452,0.41411 m -0.159839,0.38589 m -0.25427,0.33137 m -0.331371,0.25427 m -0.38589,0.15984 m -0.41411,0.05452 m -0.41411,-0.0545 m -0.38589,-0.15986 m -0.331371,-0.25427 m -0.25427,-0.33137 m -0.15984,-0.38589 m -0.05452,-0.41411 m 0.05452,-0.41411 m 0.159839,-0.38589 m 0.25427,-0.33137 m 0.331371,-0.25427 m 0.38589,-0.15984 m -9.5858906,-0.05452 m 5,0 m 0,3.2 m -5,0 M 46.296379,130.88805 m -0.331371,0.25427 m -0.38589,0.15984 m -0.41411,0.0545 m -0.41411,-0.0545 m -0.38589,-0.15986 m -0.331371,-0.25427 m -0.25427,-0.33137 m -0.15984,-0.38589 m -0.05452,-0.41411 m 0.05452,-0.41411 m 0.159839,-0.38589 m 0.25427,-0.33137 m 0.331371,-0.25427 m 0.38589,-0.15984 m 0.41411,-0.0545 m 0.41411,0.0545 m 0.38589,0.15984 m 0.331371,0.25427 m 0.25427,0.33137 m 0.15984,0.38589 m 0.05452,0.41413 m -0.05452,0.41411 m -0.159839,0.38589 m -37.6215316,0.74548 m -0.41411,0.0545 m -0.41411,-0.0545 m -0.38589,-0.15986 m -0.331371,-0.25427 m -0.25427,-0.33137 m -0.15984,-0.38589 m -0.054519,-0.41411 m 0.05452,-0.41411 m 0.159839,-0.38589 m 0.25427,-0.33137 m 0.331371,-0.25427 m 0.38589,-0.15984 m 0.41411,-0.0545 m 0.41411,0.0545 m 0.38589,0.15986 m 0.331371,0.25427 m 0.25427,0.33137 m 0.1598406,0.38589 m 0.05452,0.41411 m -0.05452,0.41411 m -0.1598396,0.38589 m -0.25427,0.33137 m -0.331371,0.25427"
     inkscape:connector-curvature="0" />
  <path
     id="face6-interior"
     style="fill:none;stroke:#000000;stroke-width:0.02822222;stroke-linecap:round;stroke-linejoin:round;stroke-miterlimit:4;stroke-dasharray:none;stroke-opacity:1"
     d="m 0.51500741,212.25668 m 2.99999999,0 m 0.02738,0.41768 m 0.08166,0.41054 m 0.134548,0.39637 m 0.185131,0.37541 m 0.23255,0.34804 m 0.275989,0.3147 m 0.314705,0.27599 m 0.348037,0.23255 m 0.375413,0.18513 m 0.396366,0.13455 m 0.410537,0.0817 m 0.417684,0.0273 m 3.6000006,0 m 0.417684,-0.0274 m 0.410537,-0.0817 m 0.396366,-0.13455 m 0.375413,-0.18507 m 0.348037,-0.23255 m 0.314705,-0.27599 m 0.275989,-0.3147 m 0.23255,-0.34804 m 0.185134,-0.37541 m 0.134548,-0.39637 m 0.08166,-0.41054 m 0.02738,-0.41768 m 13.8,0 m 0,-3.2 m 5.05,0 m 0,3.2 m 7.8,0 m 0.02738,0.41768 m 0.08166,0.41054 m 0.134548,0.39637 m 0.185131,0.37541 m 0.23255,0.34804 m 0.275989,0.3147 m 0.314705,0.27599 m 0.348037,0.23255 m 0.375413,0.18513 m 0.396366,0.13455 m 0.410537,0.0817 m 0.417684,0.0273 m 3.6,0 m 0.417684,-0.0274 m 0.410537,-0.0817 m 0.396366,-0.13455 m 0.375413,-0.18507 m 0.348037,-0.23255 m 0.314705,-0.27599 m 0.275989,-0.3147 m 0.23255,-0.34804 m 0.185134,-0.37541 m 0.134548,-0.39637 m 0.08166,-0.41054 m 0.02738,-0.41768 m 17.35,0 m 0.522113,0 m 0.513163,-0.1363 m 0.495458,-0.16818 m 0.469266,-0.23142 m 0.435046,-0.29069 m 0.393381,-0.34498 m 0.344986,-0.39338 m 0.290689,-0.43505 m 0.231416,-0.46927 m 0.168185,-0.49545 m 0.102076,-0.51318 m 0.03422,-0.5221 m 0,-51.5 m -0.03422,-0.5221 m -0.102076,-0.51318 m -0.168185,-0.49545 m -0.231417,-0.46927 m -0.290689,-0.43505 m -0.344986,-0.39338 m -0.393381,-0.34498 m -0.435046,-0.29069 m -0.469266,-0.23142 m -0.495458,-0.16818 m -0.513171,-0.10208 m -0.522105,-0.0342 m -41,0 m 0,-3.2 m -0.04278,-0.65263 m -0.127595,-0.64147 m -0.210231,-0.61932 m -0.289267,-0.58658 m -0.36336,-0.54381 m -0.431233,-0.49172 m -0.491727,-0.43124 m -0.543807,-0.36336 m -0.586583,-0.28927 m -0.619322,-0.21023 m -0.641464,-0.12759 m -0.652631,-0.0428 m -21.00000059,0 M 60.715013,186.24224 m -0.331371,-0.25427 m -0.25427,-0.33137 m -0.15984,-0.38589 m -0.05452,-0.41411 m 0.05452,-0.41411 m 0.159839,-0.38589 m 0.25427,-0.33137 m 0.331371,-0.25427 m 0.38589,-0.15984 m 0.41411,-0.0545 m 0.41411,0.0545 m 0.38589,0.15986 m 0.331371,0.25427 m 0.25427,0.33137 m 0.15984,0.38589 m 0.05452,0.41411 m -0.05452,0.41411 m -0.159839,0.38589 m -0.25427,0.33137 m -0.331371,0.25427 m -0.38589,0.15984 m -0.41411,0.0545 m -0.41411,-0.0545 m 1.21411,-15.13114 m 0.331371,0.25427 m 0.25427,0.33137 m 0.15984,0.38589 m 0.05452,0.41411 m -0.05452,0.41411 m -0.159839,0.38589 m -0.25427,0.33137 m -0.331371,0.25427 m -0.38589,0.15984 m -0.41411,0.0545 m -0.41411,-0.0545 m -0.38589,-0.15986 m -0.331371,-0.25427 m -0.25427,-0.33137 m -0.15984,-0.38589 m -0.05452,-0.41411 m 0.05452,-0.41411 m 0.159839,-0.38589 m 0.25427,-0.33137 m 0.331371,-0.25427 m 0.38589,-0.15984 m 0.41411,-0.0545 m 0.41411,0.0545 m -1.969745,6.08985 m 0.424264,-0.32555 m 0.03137,-0.0241 m 0.530598,-0.21978 m 0.569402,-0.075 m 0.569402,0.075 m 0.530598,0.21974 m 0.455635,0.34963 m 0.349621,0.45563 m 0.219781,0.5306 m 0.07496,0.5694 m -0.07496,0.5694 m -0.219784,0.5306 m -0.349621,0.45563 m -0.455635,0.34963 m -0.530598,0.21978 m -0.569402,0.075 m -0.569402,-0.075 m -0.530598,-0.21974 m -0.03137,-0.0241 m -0.424264,-0.32555 m -0.349622,-0.45561 m -0.219781,-0.5306 m -0.07496,-0.5694 m 0.07496,-0.5694 m 0.219784,-0.5306 m -48.214598,24.5 m 0,-6 m 3.2,0 m 0,6 m -3.2,-10.5 m 0,-6 m 3.2,0 m 0,6 m -0.08015,-42.1 m 0.41411,0.0545 m 0.38589,0.15986 m 0.331371,0.25427 m 0.25427,0.33137 m 0.15984,0.38589 m 0.05452,0.41411 m -0.05452,0.41411 m -0.159839,0.38589 m -0.25427,0.33137 m -0.331371,0.25427 m -0.38589,0.15984 m -0.41411,0.0545 m -0.41411,-0.0545 m -0.38589,-0.15986 m -0.331371,-0.25427 m -0.25427,-0.33137 m -0.15984,-0.38589 m -0.05452,-0.41411 m 0.05452,-0.41411 m 0.159839,-0.38589 m 0.25427,-0.33137 m 0.331371,-0.25427 m 0.38589,-0.15984 m -9.5858906,-0.0545 m 5,0 m 0,3.2 m -5,0 m 41.7813716,59.03137 m -0.331371,0.25427 m -0.38589,0.15984 m -0.41411,0.0545 m -0.41411,-0.0545 m -0.38589,-0.15986 m -0.331371,-0.25427 m -0.25427,-0.33137 m -0.15984,-0.38589 m -0.05452,-0.41411 m 0.05452,-0.41411 m 0.159839,-0.38589 m 0.25427,-0.33137 m 0.331371,-0.25427 m 0.38589,-0.15984 m 0.41411,-0.0545 m 0.41411,0.0545 m 0.38589,0.15984 m 0.331371,0.25427 m 0.25427,0.33137 m 0.15984,0.38589 m 0.05452,0.41413 m -0.05452,0.41411 m -0.159839,0.38589 m -37.6215316,0.74548 m -0.41411,0.0545 m -0.41411,-0.0545 m -0.38589,-0.15986 m -0.331371,-0.25427 m -0.25427,-0.33137 m -0.15984,-0.38589 m -0.054519,-0.41411 m 0.05452,-0.41411 m 0.159839,-0.38589 m 0.25427,-0.33137 m 0.331371,-0.25427 m 0.38589,-0.15984 m 0.41411,-0.0545 m 0.41411,0.0545 m 0.38589,0.15986 m 0.331371,0.25427 m 0.25427,0.33137 m 0.1598406,0.38589 m 0.05452,0.41411 m -0.05452,0.41411 m -0.1598396,0.38589 m -0.25427,0.33137 m -0.331371,0.25427"
     inkscape:connector-curvature="0" />
  <path
     id="face7-interior"
     style="fill:none;stroke:#000000;stroke-width:0.02822222;stroke-linecap:round;stroke-linejoin:round;stroke-miterlimit:4;stroke-dasharray:none;stroke-opacity:1"
     d="m 3.4439394,477.62775 m 0.983454,0.86246 m 1.087614,0.72672 m 1.173166,0.57855 m 1.238644,0.42046 m 1.282928,0.25519 m 1.3052626,0.0856 m 10,0 m 0,-255.1 m -10,0 m -1.3052626,0.0856 m -1.282928,0.25519 m -1.238644,0.42046 m -1.173166,0.5785 m -1.087614,0.72672 m -0.983454,0.86246 m -0.862465,0.98346 m -0.726721,1.08761 m -0.578541,1.17317 m -0.42046299,1.23864 m -0.255191,1.28293 m -0.085551,1.30526 m 0,10.1 m 10.00000059,0 m 0,3 m -10.00000059,0 m 0,208.9 m 10.00000059,0 m 0,3 m -10.00000059,0 m 0,10.1 m 0.08555,1.30526 m 0.255191,1.28293 m 0.42046299,1.23864 m 0.578542,1.17317 m 0.726721,1.08761"
     inkscape:connector-curvature="0" />
  <path
     id="face9-interior"
     style="fill:none;stroke:#000000;stroke-width:0.02822222;stroke-linecap:round;stroke-linejoin:round;stroke-miterlimit:4;stroke-dasharray:none;stroke-opacity:1"
     d="m 172.96273,226.68654 m 1.58919,2.07107 m 2.07107,1.58918 m 2.41181,0.99901 m 2.58819,0.34074 m 2.58819,-0.34074 m 2.41181,-0.99901 m 2.07106,-1.58918 m 1.58919,-2.07107 m 0.99901,-2.41181 m 0.34074,-2.58819 m -0.34074,-2.58819 m -0.99901,-2.41181 m -1.58919,-2.07107 m -2.07106,-1.58918 m -2.41181,-0.99901 m -2.58819,-0.34074 m -2.58819,0.34074 m -2.41181,0.99901 m -2.07107,1.58918 m -1.58919,2.07107 m -0.999,2.41181 m -0.34074,2.58819 m 0.34074,2.58819 m 4.9449,-3.38819 m 0.15984,0.38589 m 0.0545,0.41411 m -0.0545,0.41411 m -0.15984,0.38589 m -0.25427,0.33137 m -0.33137,0.25427 m -0.38589,0.15984 m -0.41411,0.0545 m -0.41411,-0.0545 m -0.38589,-0.15984 m -0.33137,-0.25427 m -0.25427,-0.33137 m -0.15984,-0.38589 m -0.0545,-0.41411 m 0.0545,-0.41411 m 0.15984,-0.38589 m 0.25427,-0.33137 m 0.33137,-0.25427 m 0.38589,-0.15984 m 0.41411,-0.0545 m 0.41411,0.0545 m 0.38589,0.15984 m 0.33137,0.25427 m 11.48274,2.67685 m -0.41411,0.0545 m -0.41411,-0.0545 m -0.38589,-0.15984 m -0.33137,-0.25427 m -0.25427,-0.33137 m -0.15984,-0.38589 m -0.0545,-0.41411 m 0.0545,-0.41411 m 0.15984,-0.38589 m 0.25427,-0.33137 m 0.33137,-0.25427 m 0.38589,-0.15984 m 0.41411,-0.0545 m 0.41411,0.0545 m 0.38589,0.15984 m 0.33137,0.25427 m 0.25427,0.33137 m 0.15984,0.38589 m 0.0545,0.41411 m -0.0545,0.41411 m -0.15984,0.38589 m -0.25427,0.33137 m -0.33137,0.25427 m -5.65,-3.55071 m 0.25,0.19184 m 0,3.94646 m -0.25,0.19183 m -0.60296,0.24975 m -0.64704,0.0852 m -0.64705,-0.0852 m -0.60295,-0.24975 m -0.25,-0.19183 m 0,-1.97323 m 0,-1.97323 m 0.25,-0.19184 m 0.60295,-0.24975 m 0.64705,-0.0852 m 0.64704,0.0852"
     inkscape:connector-curvature="0" />
  <path
     id="face10-interior"
     style="fill:none;stroke:#000000;stroke-width:0.02822222;stroke-linecap:round;stroke-linejoin:round;stroke-miterlimit:4;stroke-dasharray:none;stroke-opacity:1"
     d="m 176.62299,243.02628 m -2.07107,1.58919 m -1.58919,2.07107 m -0.999,2.41181 m -0.34074,2.58819 m 0.34074,2.58819 m 0.999,2.41181 m 1.58919,2.07107 m 2.07107,1.58918 m 2.41181,0.99901 m 2.58819,0.34074 m 2.58819,-0.34074 m 2.41181,-0.99901 m 2.07106,-1.58918 m 1.58919,-2.07107 m 0.99901,-2.41181 m 0.34074,-2.58819 m -0.34074,-2.58819 m -0.99901,-2.41181 m -1.58919,-2.07107 m -2.07106,-1.58919 m -2.41181,-0.999 m -2.58819,-0.34074 m -2.58819,0.34074 m 4.78819,9.65926 m -0.075,0.5694 m -0.21978,0.5306 m -0.34962,0.45563 m -0.45563,0.34962 m -0.5306,0.21978 m -0.5694,0.075 m -0.56941,-0.075 m -0.53059,-0.21978 m -0.45564,-0.34962 m -0.34962,-0.45563 m -0.21978,-0.5306 m -0.075,-0.5694 m 0.075,-0.5694 m 0.21978,-0.5306 m 0.34962,-0.45564 m 0.45564,-0.34962 m 0.53059,-0.21978 m 0.56941,-0.075 m 0.5694,0.075 m 0.5306,0.21978 m 0.45563,0.34962 m 0.34962,0.45564 m 0.21978,0.5306 m -1.32503,-4.14496 m -0.38589,0.15984 m -0.41411,0.0545 m -0.41411,-0.0545 m -0.38589,-0.15984 m -0.33137,-0.25427 m -0.25427,-0.33137 m -0.15984,-0.38589 m -0.0545,-0.41411 m 0.0545,-0.41411 m 0.15984,-0.38589 m 0.25427,-0.33137 m 0.33137,-0.25427 m 0.38589,-0.15984 m 0.41411,-0.0545 m 0.41411,0.0545 m 0.38589,0.15984 m 0.33137,0.25427 m 0.25427,0.33137 m 0.15984,0.38589 m 0.0545,0.41411 m -0.0545,0.41411 m -0.15984,0.38589 m -0.25427,0.33137 m -2.67685,11.48274 m -0.0545,-0.41411 m 0.0545,-0.41411 m 0.15984,-0.38589 m 0.25427,-0.33137 m 0.33137,-0.25427 m 0.38589,-0.15984 m 0.41411,-0.0545 m 0.41411,0.0545 m 0.38589,0.15984 m 0.33137,0.25427 m 0.25427,0.33137 m 0.15984,0.38589 m 0.0545,0.41411 m -0.0545,0.41411 m -0.15984,0.38589 m -0.25427,0.33137 m -0.33137,0.25427 m -0.38589,0.15984 m -0.41411,0.0545 m -0.41411,-0.0545 m -0.38589,-0.15984 m -0.33137,-0.25427 m -0.25427,-0.33137"
     inkscape:connector-curvature="0" />
  <path
     id="path34"
     style="fill:none;stroke:#000000;stroke-width:0.02822222;stroke-linecap:round;stroke-linejoin:round;stroke-miterlimit:4;stroke-dasharray:none;stroke-opacity:1"
     d="m 1.8547534,-321.34332 m 1.589186,2.07106 m 2.071068,1.58919 m 2.41181,0.999 m 2.5881906,0.34075 m 2.58819,-0.34075 m 2.41181,-0.999 m 2.071068,-1.58919 m 1.589186,-2.07106 m 0.999004,-2.41181 m 0.340742,-2.58819 m -0.340742,-2.58819 m -0.999004,-2.41181 m -1.589186,-2.07107 m -2.071068,-1.58919 m -2.41181,-0.999 m -2.58819,-0.34074 m -2.5881906,0.34074 m -2.41181,0.999 m -2.071068,1.58919 m -1.589186,2.07107 m -0.99900399,2.41181 m -0.340742,2.58819 m 0.340742,2.58819 m 4.94489899,-3.38819 m 0.15984,0.38589 m 0.054519,0.41411 m -0.05452,0.41411 m -0.159839,0.38589 m -0.25427,0.33137 m -0.331371,0.25427 m -0.38589,0.15984 m -0.41411,0.0545 m -0.41411,-0.0545 m -0.38589,-0.15984 m -0.331371,-0.25427 m -0.25427,-0.33137 m -0.15984,-0.38589 m -0.054519,-0.41411 m 0.05452,-0.41411 m 0.159839,-0.38589 m 0.25427,-0.33137 m 0.331371,-0.25427 m 0.38589,-0.15984 m 0.41411,-0.0545 m 0.41411,0.0545 m 0.38589,0.15984 m 0.331371,0.25427 m 11.4827396,2.67685 m -0.41411,0.0545 m -0.41411,-0.0545 m -0.38589,-0.15984 m -0.331371,-0.25427 m -0.25427,-0.33137 m -0.15984,-0.38589 m -0.05452,-0.41411 m 0.05452,-0.41411 m 0.159839,-0.38589 m 0.25427,-0.33137 m 0.331371,-0.25427 m 0.38589,-0.15984 m 0.41411,-0.0545 m 0.41411,0.0545 m 0.38589,0.15984 m 0.331371,0.25427 m 0.25427,0.33137 m 0.15984,0.38589 m 0.05452,0.41411 m -0.05452,0.41411 m -0.159839,0.38589 m -0.25427,0.33137 m -0.331371,0.25427 m -5.65,-3.55071 m 0.25,0.19183 m 0,3.94647 m -0.25,0.19183 m -0.602952,0.24975 m -0.647048,0.0852 m -0.6470486,-0.0852 m -0.602952,-0.24976 m -0.25,-0.19183 m 0,-1.97323 m 0,-1.97324 m 0.25,-0.19183 m 0.602952,-0.24975 m 0.6470486,-0.0852 m 0.647048,0.0852"
     inkscape:connector-curvature="0" />
  <path
     id="path36"
     style="fill:none;stroke:#000000;stroke-width:0.02822222;stroke-linecap:round;stroke-linejoin:round;stroke-miterlimit:4;stroke-dasharray:none;stroke-opacity:1"
     d="m 261.26157,171.04962 m 0,-73.200004 m 11,0 m 0.65263,-0.0428 m 0.64146,-0.1276 m 0.61932,-0.21023 m 0.58659,-0.28927 m 0.5438,-0.36336 m 0.49173,-0.43123 m 0.43123,-0.49173 m 0.36336,-0.54381 m 0.28927,-0.58658 m 0.21024,-0.61932 m 0.12759,-0.64146 m 0.0428,-0.65264 m 0,-5 m -0.0428,-0.65263 m -0.12759,-0.64146 m -0.21024,-0.61932 m -0.28927,-0.58659 m -0.36336,-0.5438 m -0.43123,-0.49173 m -0.49173,-0.43123 m -0.5438,-0.36336 m -0.58659,-0.28927 m -0.61932,-0.21023 m -0.64146,-0.1276 m -0.65263,-0.0428 m -9.38399,0 m -0.0249,0.18917 m -1.19881,2.89417 m -1.90702,2.48528 m -2.48528,1.90702 m -2.89417,1.19881 m -3.10583,0.40889 m -3.10583,-0.40889 m -2.89417,-1.19881 m -2.48528,-1.90702 m -1.90703,-2.48528 m -1.1988,-2.89417 m -0.0249,-0.18917 m -9.38398,0 m -0.8037,0.21615 m -0.76867,0.31903 m -0.72056,0.41646 m -0.66015,0.5068 m -0.58849,0.58849 m -0.5068,0.66015 m -0.41646,0.72055 m -0.31902,0.76868 m -0.21615,0.80369 m 0,5 m 0.0428,0.65264 m 0.1276,0.64146 m 0.21023,0.61932 m 0.28927,0.58658 m 0.36336,0.54381 m 0.43123,0.49173 m 0.49173,0.43123 m 0.54381,0.36336 m 0.58658,0.28927 m 0.61932,0.21023 m 0.64147,0.1276 m 0.65263,0.0428 m 11,0 m 0,73.200004 m -30,0 m -1.30526,0.0856 m -1.28293,0.25519 m -1.23865,0.42046 m -1.17316,0.57854 m -1.08766,0.7267 m -0.98345,0.86247 m -0.86247,0.98345 m -0.72672,1.08761 m -0.57854,1.17317 m -0.42046,1.23864 m -0.25519,1.28293 m -0.0856,1.30526 m 0,10 m 30.1,0 m 0,-10 m 3,0 m 0,10 m 33.8,0 m 0,-10 m 3,0 m 0,10 m 30.1,0 m 0,-10 m -0.0856,-1.30526 m -0.25519,-1.28293 m -0.42047,-1.23864 m -0.57854,-1.17317 m -0.72672,-1.08761 m -0.86247,-0.98345 m -0.98345,-0.86247 m -1.08761,-0.72672 m -1.17317,-0.57854 m -1.23864,-0.42046 m -1.28293,-0.25519 m -1.30526,-0.0856 M 269.27911,88.216086 m 0.48236,0.1998 m 0.41421,0.31784 m 0.31784,0.41421 m 0.1998,0.48236 m 0.0681,0.51764 m -0.0681,0.51764 m -0.1998,0.48236 m -0.31784,0.41421 m -0.41421,0.31784 m -0.48236,0.1998 m -0.51764,0.0681 m -0.51764,-0.0681 m -0.48236,-0.1998 m -0.41422,-0.31784 m -0.31783,-0.41421 m -0.1998,-0.48236 m -0.0682,-0.51764 m 0.0682,-0.51764 m 0.1998,-0.48236 m 0.31783,-0.41421 m 0.41422,-0.31784 m 0.48236,-0.1998 m 0.51764,-0.0682 m -36.41422,0.78743 m 0.41422,-0.31784 m 0.48236,-0.1998 m 0.51764,-0.0681 m 0.51764,0.0681 m 0.48236,0.1998 m 0.41421,0.31784 m 0.31784,0.41421 m 0.1998,0.48237 m 0.0682,0.51763 m -0.0682,0.51764 m -0.1998,0.48236 m -0.31784,0.41422 m -0.41421,0.31784 m -0.48236,0.1998 m -0.51764,0.0681 m -0.51764,-0.0681 m -0.48236,-0.1998 m -0.41422,-0.31784 m -0.31783,-0.41422 m -0.1998,-0.48236 m -0.0682,-0.51764 m 0.0682,-0.51763 m 0.1998,-0.48237"
     inkscape:connector-curvature="0" />
  <path
     id="path42"
     style="fill:none;stroke:#000000;stroke-width:0.02822222;stroke-linecap:round;stroke-linejoin:round;stroke-miterlimit:4;stroke-dasharray:none;stroke-opacity:1"
     d="m 1.8547534,48.656676 m 1.589186,2.07107 m 2.071068,1.58918 m 2.41181,0.99901 m 2.5881906,0.34074 m 2.58819,-0.34074 m 2.41181,-0.99901 m 2.071068,-1.58918 m 1.589186,-2.07107 m 0.999004,-2.41181 m 0.340742,-2.58819 m -0.340742,-2.58819 m -0.999004,-2.41181 m -1.589186,-2.07107 m -2.071068,-1.58918 m -2.41181,-0.99901 m -2.58819,-0.34074 m -2.5881906,0.34074 m -2.41181,0.99901 m -2.071068,1.58918 m -1.589186,2.07107 m -0.99900399,2.41181 m -0.340742,2.58819 m 0.340742,2.58819 m 9.65925859,-4.78819 m 0.569402,0.075 m 0.530598,0.21974 m 0.455635,0.34963 m 0.349621,0.45563 m 0.219781,0.5306 m 0.07496,0.5694 m -0.07496,0.5694 m -0.219784,0.5306 m -0.349621,0.45563 m -0.455635,0.34963 m -0.530598,0.21978 m -0.569402,0.07496 m -0.5694026,-0.075 m -0.530598,-0.21974 m -0.455635,-0.34963 m -0.349621,-0.45563 m -0.219781,-0.5306 m -0.074963,-0.5694 m 0.07496,-0.5694 m 0.219784,-0.5306 m 0.349621,-0.45563 m 0.455635,-0.34963 m 0.530598,-0.21978 m -4.144957,1.32504 m 0.15984,0.38589 m 0.054519,0.41411 m -0.05452,0.41411 m -0.159839,0.38589 m -0.25427,0.33137 m -0.331371,0.25427 m -0.38589,0.15984 m -0.41411,0.05452 m -0.41411,-0.0545 m -0.38589,-0.15986 m -0.331371,-0.25427 m -0.25427,-0.33137 m -0.15984,-0.38589 m -0.054519,-0.41411 m 0.05452,-0.41411 m 0.159839,-0.38589 m 0.25427,-0.33137 m 0.331371,-0.25427 m 0.38589,-0.15984 m 0.41411,-0.05452 m 0.41411,0.0545 m 0.38589,0.15986 m 0.331371,0.25427 m 11.4827396,2.67685 m -0.41411,0.05452 m -0.41411,-0.0545 m -0.38589,-0.15986 m -0.331371,-0.25427 m -0.25427,-0.33137 m -0.15984,-0.38589 m -0.05452,-0.41411 m 0.05452,-0.41411 m 0.159839,-0.38589 m 0.25427,-0.33137 m 0.331371,-0.25427 m 0.38589,-0.15984 m 0.41411,-0.05452 m 0.41411,0.0545 m 0.38589,0.15986 m 0.331371,0.25427 m 0.25427,0.33137 m 0.15984,0.38589 m 0.05452,0.41411 m -0.05452,0.41411 m -0.159839,0.38589 m -0.25427,0.33137 m -0.331371,0.25427"
     inkscape:connector-curvature="0" />
  <path
     id="path44"
     style="fill:none;stroke:#000000;stroke-width:0.02822222;stroke-linecap:round;stroke-linejoin:round;stroke-miterlimit:4;stroke-dasharray:none;stroke-opacity:1"
     d="m 0.51500741,131.35668 m 2.99999999,0 m 0.02738,0.41768 m 0.08166,0.41054 m 0.134548,0.39637 m 0.185131,0.37541 m 0.23255,0.34804 m 0.275989,0.3147 m 0.314705,0.27599 m 0.348037,0.23255 m 0.375413,0.18513 m 0.396366,0.13455 m 0.410537,0.0817 m 0.417684,0.0273 m 3.6000006,0 m 0.417684,-0.0274 m 0.410537,-0.0817 m 0.396366,-0.13455 m 0.375413,-0.18507 m 0.348037,-0.23255 m 0.314705,-0.27599 m 0.275989,-0.3147 m 0.23255,-0.34804 m 0.185134,-0.37541 m 0.134548,-0.39637 m 0.08166,-0.41054 m 0.02738,-0.41768 m 13.8,0 m 0,-3.2 m 5.05,0 m 0,3.2 m 7.8,0 m 0.02738,0.41768 m 0.08166,0.41054 m 0.134548,0.39637 m 0.185131,0.37541 m 0.23255,0.34804 m 0.275989,0.3147 m 0.314705,0.27599 m 0.348037,0.23255 m 0.375413,0.18513 m 0.396366,0.13455 m 0.410537,0.0817 m 0.417684,0.0273 m 3.6,0 m 0.417684,-0.0274 m 0.410537,-0.0817 m 0.396366,-0.13455 m 0.375413,-0.18507 m 0.348037,-0.23255 m 0.314705,-0.27599 m 0.275989,-0.3147 m 0.23255,-0.34804 m 0.185134,-0.37541 m 0.134548,-0.39637 m 0.08166,-0.41054 m 0.02738,-0.41768 m 17.35,0 m 0.522113,0 m 0.513163,-0.1363 m 0.495458,-0.16818 m 0.469266,-0.23142 m 0.435046,-0.29069 m 0.393381,-0.34498 m 0.344986,-0.39338 m 0.290689,-0.43505 m 0.231416,-0.46927 m 0.168185,-0.49545 m 0.102076,-0.51318 m 0.03422,-0.5221 m 0,-51.500004 m -0.03422,-0.5221 m -0.102076,-0.51318 m -0.168185,-0.49545 m -0.231417,-0.46927 m -0.290689,-0.43505 m -0.344986,-0.39338 m -0.393381,-0.34498 m -0.435046,-0.29069 m -0.469266,-0.23142 m -0.495458,-0.16818 m -0.513171,-0.10208 m -0.522105,-0.03422 m -41,0 m 0,-3.2 m -0.04278,-0.65263 m -0.127595,-0.64147 m -0.210231,-0.61932 m -0.289267,-0.58658 m -0.36336,-0.54381 m -0.431233,-0.49172 m -0.491727,-0.43124 m -0.543807,-0.36336 m -0.586583,-0.28927 m -0.619322,-0.21023 m -0.641464,-0.12759 m -0.652631,-0.04278 m -21.00000059,0 M 60.715008,105.34232 m -0.331371,-0.25427 m -0.25427,-0.33137 m -0.15984,-0.38589 m -0.05452,-0.41411 m 0.05452,-0.41411 m 0.159839,-0.38589 m 0.25427,-0.33137 m 0.331371,-0.25427 m 0.38589,-0.15984 m 0.41411,-0.0545 m 0.41411,0.0545 m 0.38589,0.15986 m 0.331371,0.25427 m 0.25427,0.33137 m 0.15984,0.38589 m 0.05452,0.41411 m -0.05452,0.41411 m -0.159839,0.38589 m -0.25427,0.33137 m -0.331371,0.25427 m -0.38589,0.15984 m -0.41411,0.0545 m -0.41411,-0.0545 m 1.21411,-15.131144 m 0.331371,0.25427 m 0.25427,0.33137 m 0.15984,0.38589 m 0.05452,0.41411 m -0.05452,0.41411 m -0.159839,0.38589 m -0.25427,0.33137 m -0.331371,0.25427 m -0.38589,0.15984 m -0.41411,0.05452 m -0.41411,-0.0545 m -0.38589,-0.15986 m -0.331371,-0.25427 m -0.25427,-0.33137 m -0.15984,-0.38589 m -0.05452,-0.41411 m 0.05452,-0.41411 m 0.159839,-0.38589 m 0.25427,-0.33137 m 0.331371,-0.25427 m 0.38589,-0.15984 m 0.41411,-0.05452 m 0.41411,0.0545 m -1.969745,6.08985 m 0.424264,-0.32555 m 0.03137,-0.02406 m 0.530598,-0.21978 m 0.569402,-0.07496 m 0.569402,0.075 m 0.530598,0.21974 m 0.455635,0.34963 m 0.349621,0.45563 m 0.219781,0.5306 m 0.07496,0.5694 m -0.07496,0.5694 m -0.219784,0.5306 m -0.349621,0.45563 m -0.455635,0.34963 m -0.530598,0.21978 m -0.569402,0.07496 m -0.569402,-0.075 m -0.530598,-0.21974 m -0.03137,-0.0241 m -0.424264,-0.32555 m -0.349622,-0.45561 m -0.219781,-0.5306 m -0.07496,-0.5694 m 0.07496,-0.5694 m 0.219784,-0.5306 M 11.395154,121.25668 m 0,-6 m 3.2,0 m 0,6 m -3.2,-10.5 m 0,-6 m 3.2,0 m 0,6 m -0.08015,-42.100004 m 0.41411,0.0545 m 0.38589,0.15986 m 0.331371,0.25427 m 0.25427,0.33137 m 0.15984,0.38589 m 0.05452,0.41411 m -0.05452,0.41411 m -0.159839,0.38589 m -0.25427,0.33137 m -0.331371,0.25427 m -0.38589,0.15984 m -0.41411,0.05452 m -0.41411,-0.0545 m -0.38589,-0.15986 m -0.331371,-0.25427 m -0.25427,-0.33137 m -0.15984,-0.38589 m -0.05452,-0.41411 m 0.05452,-0.41411 m 0.159839,-0.38589 m 0.25427,-0.33137 m 0.331371,-0.25427 m 0.38589,-0.15984 m -9.5858906,-0.05452 m 5,0 m 0,3.2 m -5,0 M 46.296379,130.88805 m -0.331371,0.25427 m -0.38589,0.15984 m -0.41411,0.0545 m -0.41411,-0.0545 m -0.38589,-0.15986 m -0.331371,-0.25427 m -0.25427,-0.33137 m -0.15984,-0.38589 m -0.05452,-0.41411 m 0.05452,-0.41411 m 0.159839,-0.38589 m 0.25427,-0.33137 m 0.331371,-0.25427 m 0.38589,-0.15984 m 0.41411,-0.0545 m 0.41411,0.0545 m 0.38589,0.15984 m 0.331371,0.25427 m 0.25427,0.33137 m 0.15984,0.38589 m 0.05452,0.41413 m -0.05452,0.41411 m -0.159839,0.38589 m -37.6215316,0.74548 m -0.41411,0.0545 m -0.41411,-0.0545 m -0.38589,-0.15986 m -0.331371,-0.25427 m -0.25427,-0.33137 m -0.15984,-0.38589 m -0.054519,-0.41411 m 0.05452,-0.41411 m 0.159839,-0.38589 m 0.25427,-0.33137 m 0.331371,-0.25427 m 0.38589,-0.15984 m 0.41411,-0.0545 m 0.41411,0.0545 m 0.38589,0.15986 m 0.331371,0.25427 m 0.25427,0.33137 m 0.1598406,0.38589 m 0.05452,0.41411 m -0.05452,0.41411 m -0.1598396,0.38589 m -0.25427,0.33137 m -0.331371,0.25427"
     inkscape:connector-curvature="0" />
  <path
     id="path46"
     style="fill:none;stroke:#000000;stroke-width:0.02822222;stroke-linecap:round;stroke-linejoin:round;stroke-miterlimit:4;stroke-dasharray:none;stroke-opacity:1"
     d="m 0.51500741,212.25668 m 2.99999999,0 m 0.02738,0.41768 m 0.08166,0.41054 m 0.134548,0.39637 m 0.185131,0.37541 m 0.23255,0.34804 m 0.275989,0.3147 m 0.314705,0.27599 m 0.348037,0.23255 m 0.375413,0.18513 m 0.396366,0.13455 m 0.410537,0.0817 m 0.417684,0.0273 m 3.6000006,0 m 0.417684,-0.0274 m 0.410537,-0.0817 m 0.396366,-0.13455 m 0.375413,-0.18507 m 0.348037,-0.23255 m 0.314705,-0.27599 m 0.275989,-0.3147 m 0.23255,-0.34804 m 0.185134,-0.37541 m 0.134548,-0.39637 m 0.08166,-0.41054 m 0.02738,-0.41768 m 13.8,0 m 0,-3.2 m 5.05,0 m 0,3.2 m 7.8,0 m 0.02738,0.41768 m 0.08166,0.41054 m 0.134548,0.39637 m 0.185131,0.37541 m 0.23255,0.34804 m 0.275989,0.3147 m 0.314705,0.27599 m 0.348037,0.23255 m 0.375413,0.18513 m 0.396366,0.13455 m 0.410537,0.0817 m 0.417684,0.0273 m 3.6,0 m 0.417684,-0.0274 m 0.410537,-0.0817 m 0.396366,-0.13455 m 0.375413,-0.18507 m 0.348037,-0.23255 m 0.314705,-0.27599 m 0.275989,-0.3147 m 0.23255,-0.34804 m 0.185134,-0.37541 m 0.134548,-0.39637 m 0.08166,-0.41054 m 0.02738,-0.41768 m 17.35,0 m 0.522113,0 m 0.513163,-0.1363 m 0.495458,-0.16818 m 0.469266,-0.23142 m 0.435046,-0.29069 m 0.393381,-0.34498 m 0.344986,-0.39338 m 0.290689,-0.43505 m 0.231416,-0.46927 m 0.168185,-0.49545 m 0.102076,-0.51318 m 0.03422,-0.5221 m 0,-51.5 m -0.03422,-0.5221 m -0.102076,-0.51318 m -0.168185,-0.49545 m -0.231417,-0.46927 m -0.290689,-0.43505 m -0.344986,-0.39338 m -0.393381,-0.34498 m -0.435046,-0.29069 m -0.469266,-0.23142 m -0.495458,-0.16818 m -0.513171,-0.10208 m -0.522105,-0.0342 m -41,0 m 0,-3.2 m -0.04278,-0.65263 m -0.127595,-0.64147 m -0.210231,-0.61932 m -0.289267,-0.58658 m -0.36336,-0.54381 m -0.431233,-0.49172 m -0.491727,-0.43124 m -0.543807,-0.36336 m -0.586583,-0.28927 m -0.619322,-0.21023 m -0.641464,-0.12759 m -0.652631,-0.0428 m -21.00000059,0 M 60.715013,186.24224 m -0.331371,-0.25427 m -0.25427,-0.33137 m -0.15984,-0.38589 m -0.05452,-0.41411 m 0.05452,-0.41411 m 0.159839,-0.38589 m 0.25427,-0.33137 m 0.331371,-0.25427 m 0.38589,-0.15984 m 0.41411,-0.0545 m 0.41411,0.0545 m 0.38589,0.15986 m 0.331371,0.25427 m 0.25427,0.33137 m 0.15984,0.38589 m 0.05452,0.41411 m -0.05452,0.41411 m -0.159839,0.38589 m -0.25427,0.33137 m -0.331371,0.25427 m -0.38589,0.15984 m -0.41411,0.0545 m -0.41411,-0.0545 m 1.21411,-15.13114 m 0.331371,0.25427 m 0.25427,0.33137 m 0.15984,0.38589 m 0.05452,0.41411 m -0.05452,0.41411 m -0.159839,0.38589 m -0.25427,0.33137 m -0.331371,0.25427 m -0.38589,0.15984 m -0.41411,0.0545 m -0.41411,-0.0545 m -0.38589,-0.15986 m -0.331371,-0.25427 m -0.25427,-0.33137 m -0.15984,-0.38589 m -0.05452,-0.41411 m 0.05452,-0.41411 m 0.159839,-0.38589 m 0.25427,-0.33137 m 0.331371,-0.25427 m 0.38589,-0.15984 m 0.41411,-0.0545 m 0.41411,0.0545 m -1.969745,6.08985 m 0.424264,-0.32555 m 0.03137,-0.0241 m 0.530598,-0.21978 m 0.569402,-0.075 m 0.569402,0.075 m 0.530598,0.21974 m 0.455635,0.34963 m 0.349621,0.45563 m 0.219781,0.5306 m 0.07496,0.5694 m -0.07496,0.5694 m -0.219784,0.5306 m -0.349621,0.45563 m -0.455635,0.34963 m -0.530598,0.21978 m -0.569402,0.075 m -0.569402,-0.075 m -0.530598,-0.21974 m -0.03137,-0.0241 m -0.424264,-0.32555 m -0.349622,-0.45561 m -0.219781,-0.5306 m -0.07496,-0.5694 m 0.07496,-0.5694 m 0.219784,-0.5306 m -48.214598,24.5 m 0,-6 m 3.2,0 m 0,6 m -3.2,-10.5 m 0,-6 m 3.2,0 m 0,6 m -0.08015,-42.1 m 0.41411,0.0545 m 0.38589,0.15986 m 0.331371,0.25427 m 0.25427,0.33137 m 0.15984,0.38589 m 0.05452,0.41411 m -0.05452,0.41411 m -0.159839,0.38589 m -0.25427,0.33137 m -0.331371,0.25427 m -0.38589,0.15984 m -0.41411,0.0545 m -0.41411,-0.0545 m -0.38589,-0.15986 m -0.331371,-0.25427 m -0.25427,-0.33137 m -0.15984,-0.38589 m -0.05452,-0.41411 m 0.05452,-0.41411 m 0.159839,-0.38589 m 0.25427,-0.33137 m 0.331371,-0.25427 m 0.38589,-0.15984 m -9.5858906,-0.0545 m 5,0 m 0,3.2 m -5,0 m 41.7813716,59.03137 m -0.331371,0.25427 m -0.38589,0.15984 m -0.41411,0.0545 m -0.41411,-0.0545 m -0.38589,-0.15986 m -0.331371,-0.25427 m -0.25427,-0.33137 m -0.15984,-0.38589 m -0.05452,-0.41411 m 0.05452,-0.41411 m 0.159839,-0.38589 m 0.25427,-0.33137 m 0.331371,-0.25427 m 0.38589,-0.15984 m 0.41411,-0.0545 m 0.41411,0.0545 m 0.38589,0.15984 m 0.331371,0.25427 m 0.25427,0.33137 m 0.15984,0.38589 m 0.05452,0.41413 m -0.05452,0.41411 m -0.159839,0.38589 m -37.6215316,0.74548 m -0.41411,0.0545 m -0.41411,-0.0545 m -0.38589,-0.15986 m -0.331371,-0.25427 m -0.25427,-0.33137 m -0.15984,-0.38589 m -0.054519,-0.41411 m 0.05452,-0.41411 m 0.159839,-0.38589 m 0.25427,-0.33137 m 0.331371,-0.25427 m 0.38589,-0.15984 m 0.41411,-0.0545 m 0.41411,0.0545 m 0.38589,0.15986 m 0.331371,0.25427 m 0.25427,0.33137 m 0.1598406,0.38589 m 0.05452,0.41411 m -0.05452,0.41411 m -0.1598396,0.38589 m -0.25427,0.33137 m -0.331371,0.25427"
     inkscape:connector-curvature="0" />
  <path
     id="path48"
     style="fill:none;stroke:#000000;stroke-width:0.02822222;stroke-linecap:round;stroke-linejoin:round;stroke-miterlimit:4;stroke-dasharray:none;stroke-opacity:1"
     d="m 3.4439394,477.62775 m 0.983454,0.86246 m 1.087614,0.72672 m 1.173166,0.57855 m 1.238644,0.42046 m 1.282928,0.25519 m 1.3052626,0.0856 m 10,0 m 0,-255.1 m -10,0 m -1.3052626,0.0856 m -1.282928,0.25519 m -1.238644,0.42046 m -1.173166,0.5785 m -1.087614,0.72672 m -0.983454,0.86246 m -0.862465,0.98346 m -0.726721,1.08761 m -0.578541,1.17317 m -0.42046299,1.23864 m -0.255191,1.28293 m -0.085551,1.30526 m 0,10.1 m 10.00000059,0 m 0,3 m -10.00000059,0 m 0,208.9 m 10.00000059,0 m 0,3 m -10.00000059,0 m 0,10.1 m 0.08555,1.30526 m 0.255191,1.28293 m 0.42046299,1.23864 m 0.578542,1.17317 m 0.726721,1.08761"
     inkscape:connector-curvature="0" />
  <path
     id="path52"
     style="fill:none;stroke:#000000;stroke-width:0.02822222;stroke-linecap:round;stroke-linejoin:round;stroke-miterlimit:4;stroke-dasharray:none;stroke-opacity:1"
     d="m 172.96273,226.68654 m 1.58919,2.07107 m 2.07107,1.58918 m 2.41181,0.99901 m 2.58819,0.34074 m 2.58819,-0.34074 m 2.41181,-0.99901 m 2.07106,-1.58918 m 1.58919,-2.07107 m 0.99901,-2.41181 m 0.34074,-2.58819 m -0.34074,-2.58819 m -0.99901,-2.41181 m -1.58919,-2.07107 m -2.07106,-1.58918 m -2.41181,-0.99901 m -2.58819,-0.34074 m -2.58819,0.34074 m -2.41181,0.99901 m -2.07107,1.58918 m -1.58919,2.07107 m -0.999,2.41181 m -0.34074,2.58819 m 0.34074,2.58819 m 4.9449,-3.38819 m 0.15984,0.38589 m 0.0545,0.41411 m -0.0545,0.41411 m -0.15984,0.38589 m -0.25427,0.33137 m -0.33137,0.25427 m -0.38589,0.15984 m -0.41411,0.0545 m -0.41411,-0.0545 m -0.38589,-0.15984 m -0.33137,-0.25427 m -0.25427,-0.33137 m -0.15984,-0.38589 m -0.0545,-0.41411 m 0.0545,-0.41411 m 0.15984,-0.38589 m 0.25427,-0.33137 m 0.33137,-0.25427 m 0.38589,-0.15984 m 0.41411,-0.0545 m 0.41411,0.0545 m 0.38589,0.15984 m 0.33137,0.25427 m 11.48274,2.67685 m -0.41411,0.0545 m -0.41411,-0.0545 m -0.38589,-0.15984 m -0.33137,-0.25427 m -0.25427,-0.33137 m -0.15984,-0.38589 m -0.0545,-0.41411 m 0.0545,-0.41411 m 0.15984,-0.38589 m 0.25427,-0.33137 m 0.33137,-0.25427 m 0.38589,-0.15984 m 0.41411,-0.0545 m 0.41411,0.0545 m 0.38589,0.15984 m 0.33137,0.25427 m 0.25427,0.33137 m 0.15984,0.38589 m 0.0545,0.41411 m -0.0545,0.41411 m -0.15984,0.38589 m -0.25427,0.33137 m -0.33137,0.25427 m -5.65,-3.55071 m 0.25,0.19184 m 0,3.94646 m -0.25,0.19183 m -0.60296,0.24975 m -0.64704,0.0852 m -0.64705,-0.0852 m -0.60295,-0.24975 m -0.25,-0.19183 m 0,-1.97323 m 0,-1.97323 m 0.25,-0.19184 m 0.60295,-0.24975 m 0.64705,-0.0852 m 0.64704,0.0852"
     inkscape:connector-curvature="0" />
  <path
     id="path54"
     style="fill:none;stroke:#000000;stroke-width:0.02822222;stroke-linecap:round;stroke-linejoin:round;stroke-miterlimit:4;stroke-dasharray:none;stroke-opacity:1"
     d="m 176.62299,243.02628 m -2.07107,1.58919 m -1.58919,2.07107 m -0.999,2.41181 m -0.34074,2.58819 m 0.34074,2.58819 m 0.999,2.41181 m 1.58919,2.07107 m 2.07107,1.58918 m 2.41181,0.99901 m 2.58819,0.34074 m 2.58819,-0.34074 m 2.41181,-0.99901 m 2.07106,-1.58918 m 1.58919,-2.07107 m 0.99901,-2.41181 m 0.34074,-2.58819 m -0.34074,-2.58819 m -0.99901,-2.41181 m -1.58919,-2.07107 m -2.07106,-1.58919 m -2.41181,-0.999 m -2.58819,-0.34074 m -2.58819,0.34074 m 4.78819,9.65926 m -0.075,0.5694 m -0.21978,0.5306 m -0.34962,0.45563 m -0.45563,0.34962 m -0.5306,0.21978 m -0.5694,0.075 m -0.56941,-0.075 m -0.53059,-0.21978 m -0.45564,-0.34962 m -0.34962,-0.45563 m -0.21978,-0.5306 m -0.075,-0.5694 m 0.075,-0.5694 m 0.21978,-0.5306 m 0.34962,-0.45564 m 0.45564,-0.34962 m 0.53059,-0.21978 m 0.56941,-0.075 m 0.5694,0.075 m 0.5306,0.21978 m 0.45563,0.34962 m 0.34962,0.45564 m 0.21978,0.5306 m -1.32503,-4.14496 m -0.38589,0.15984 m -0.41411,0.0545 m -0.41411,-0.0545 m -0.38589,-0.15984 m -0.33137,-0.25427 m -0.25427,-0.33137 m -0.15984,-0.38589 m -0.0545,-0.41411 m 0.0545,-0.41411 m 0.15984,-0.38589 m 0.25427,-0.33137 m 0.33137,-0.25427 m 0.38589,-0.15984 m 0.41411,-0.0545 m 0.41411,0.0545 m 0.38589,0.15984 m 0.33137,0.25427 m 0.25427,0.33137 m 0.15984,0.38589 m 0.0545,0.41411 m -0.0545,0.41411 m -0.15984,0.38589 m -0.25427,0.33137 m -2.67685,11.48274 m -0.0545,-0.41411 m 0.0545,-0.41411 m 0.15984,-0.38589 m 0.25427,-0.33137 m 0.33137,-0.25427 m 0.38589,-0.15984 m 0.41411,-0.0545 m 0.41411,0.0545 m 0.38589,0.15984 m 0.33137,0.25427 m 0.25427,0.33137 m 0.15984,0.38589 m 0.0545,0.41411 m -0.0545,0.41411 m -0.15984,0.38589 m -0.25427,0.33137 m -0.33137,0.25427 m -0.38589,0.15984 m -0.41411,0.0545 m -0.41411,-0.0545 m -0.38589,-0.15984 m -0.33137,-0.25427 m -0.25427,-0.33137"
     inkscape:connector-curvature="0" />
  <rect
     style="fill:none;stroke:#000000;stroke-width:0.1;stroke-miterlimit:4;stroke-opacity:1;stroke-dasharray:none;stroke-dashoffset:0"
     id="rect3817"
     width="1771.6536"
     height="1771.6536"
     x="-28.020138"
     y="-35.390919"
     transform="matrix(0.28222222,0,0,0.28222222,0,-6.071516e-6)" />
  <text
     xml:space="preserve"
     style="font-size:11.17840440000000000px;font-style:normal;font-variant:normal;font-weight:normal;font-stretch:normal;text-align:start;line-height:125%;letter-spacing:0px;word-spacing:0px;writing-mode:lr;text-anchor:start;fill:none;fill-opacity:1;stroke:#ff0000;font-family:Segoe Print;-inkscape-font-specification:Segoe Print;stroke-opacity:1;stroke-width:0.02822222;stroke-miterlimit:4;stroke-dasharray:none"
     x="442.71341"
     y="-127.656"
     id="text3131"
     sodipodi:linespacing="125%"
     transform="matrix(0,0.80437343,-1.2432037,0,0,0)"><tspan
       sodipodi:role="line"
       id="tspan3133"
       x="442.71341"
       y="-127.656">EtchABot</tspan></text>
  <text
     xml:space="preserve"
     style="font-size:48px;font-style:oblique;font-variant:normal;font-weight:normal;font-stretch:normal;text-align:start;line-height:125%;letter-spacing:0px;word-spacing:0px;writing-mode:lr-tb;text-anchor:start;fill:#000000;fill-opacity:1;stroke:none;font-family:Harlow Solid Italic;-inkscape-font-specification:'Harlow Solid Italic, Oblique'"
     x="-218.80731"
     y="1301.5159"
     id="text3135"
     sodipodi:linespacing="125%"
     transform="matrix(0.28222222,0,0,0.28222222,0,-6.071516e-6)"><tspan
       sodipodi:role="line"
       id="tspan3137"
       x="-218.80731"
       y="1301.5159" /></text>
  <text
     xml:space="preserve"
     style="font-size:13.24703583000000000px;font-style:normal;font-variant:normal;font-weight:normal;font-stretch:normal;text-align:start;line-height:125%;letter-spacing:0px;word-spacing:0px;writing-mode:lr;text-anchor:start;fill:none;fill-opacity:1;stroke:#ff0000;font-family:Segoe Print;-inkscape-font-specification:Segoe Print;stroke-opacity:1;stroke-width:0.02822222;stroke-miterlimit:4;stroke-dasharray:none"
     x="-494.53778"
     y="18.390268"
     id="text3139"
     sodipodi:linespacing="125%"
     transform="matrix(0,-0.88933774,1.1244322,0,0,0)"><tspan
       sodipodi:role="line"
       id="tspan3141"
       x="-494.53778"
       y="18.390268">www.GeekMomProjects.com</tspan></text>
</svg>
